solid OpenSCAD_Model
  facet normal -1 0 0
    outer loop
      vertex -12 -5.5 0
      vertex -12 -5.5 6
      vertex -12 5.35 0
    endloop
  endfacet
  facet normal -1 0 0
    outer loop
      vertex -12 5.35 0
      vertex -12 -5.5 6
      vertex -12 5.35 6
    endloop
  endfacet
  facet normal 0 -1 0
    outer loop
      vertex -6.61177 -5.5 1.55111
      vertex -12 -5.5 0
      vertex 0 -5.5 0
    endloop
  endfacet
  facet normal 0 -1 0
    outer loop
      vertex -6.61177 -5.5 1.55111
      vertex -7 -5.5 1.5
      vertex -12 -5.5 0
    endloop
  endfacet
  facet normal 0 -1 0
    outer loop
      vertex -12 -5.5 6
      vertex -12 -5.5 0
      vertex -8.44889 -5.5 2.61177
    endloop
  endfacet
  facet normal 0 -1 0
    outer loop
      vertex -5.93934 -5.5 1.93934
      vertex -6.25 -5.5 1.70096
      vertex 0 -5.5 0
    endloop
  endfacet
  facet normal 0 -1 0
    outer loop
      vertex -12 -5.5 6
      vertex -8.44889 -5.5 2.61177
      vertex -8.5 -5.5 3
    endloop
  endfacet
  facet normal 0 -1 0
    outer loop
      vertex -5.70096 -5.5 2.25
      vertex -5.93934 -5.5 1.93934
      vertex 0 -5.5 0
    endloop
  endfacet
  facet normal 0 -1 0
    outer loop
      vertex -12 -5.5 6
      vertex -8.5 -5.5 3
      vertex -8.44889 -5.5 3.38823
    endloop
  endfacet
  facet normal 0 -1 0
    outer loop
      vertex -12 -5.5 6
      vertex -8.44889 -5.5 3.38823
      vertex -8.29904 -5.5 3.75
    endloop
  endfacet
  facet normal 0 -1 0
    outer loop
      vertex -7.75 -5.5 4.29904
      vertex -12 -5.5 6
      vertex -8.06066 -5.5 4.06066
    endloop
  endfacet
  facet normal 0 -1 0
    outer loop
      vertex -7.38823 -5.5 4.44889
      vertex -12 -5.5 6
      vertex -7.75 -5.5 4.29904
    endloop
  endfacet
  facet normal 0 -1 0
    outer loop
      vertex 0 -5.5 6
      vertex -12 -5.5 6
      vertex -7.38823 -5.5 4.44889
    endloop
  endfacet
  facet normal 0 -1 0
    outer loop
      vertex -6.61177 -5.5 4.44889
      vertex -6.25 -5.5 4.29904
      vertex 0 -5.5 6
    endloop
  endfacet
  facet normal 0 -1 0
    outer loop
      vertex 0 -5.5 6
      vertex -7.38823 -5.5 4.44889
      vertex -7 -5.5 4.5
    endloop
  endfacet
  facet normal 0 -1 0
    outer loop
      vertex -5.5 -5.5 3
      vertex -5.55111 -5.5 2.61177
      vertex 0 -5.5 0
    endloop
  endfacet
  facet normal 0 -1 0
    outer loop
      vertex 0 -5.5 6
      vertex -6.25 -5.5 4.29904
      vertex 0 -5.5 0
    endloop
  endfacet
  facet normal 0 -1 0
    outer loop
      vertex -6.25 -5.5 4.29904
      vertex -5.93934 -5.5 4.06066
      vertex 0 -5.5 0
    endloop
  endfacet
  facet normal 0 -1 0
    outer loop
      vertex -5.93934 -5.5 4.06066
      vertex -5.70096 -5.5 3.75
      vertex 0 -5.5 0
    endloop
  endfacet
  facet normal 0 -1 0
    outer loop
      vertex -5.70096 -5.5 3.75
      vertex -5.55111 -5.5 3.38823
      vertex 0 -5.5 0
    endloop
  endfacet
  facet normal 0 -1 0
    outer loop
      vertex -5.55111 -5.5 3.38823
      vertex -5.5 -5.5 3
      vertex 0 -5.5 0
    endloop
  endfacet
  facet normal 0 -1 0
    outer loop
      vertex -7 -5.5 4.5
      vertex -6.61177 -5.5 4.44889
      vertex 0 -5.5 6
    endloop
  endfacet
  facet normal 0 -1 0
    outer loop
      vertex -5.55111 -5.5 2.61177
      vertex -5.70096 -5.5 2.25
      vertex 0 -5.5 0
    endloop
  endfacet
  facet normal 0 -1 0
    outer loop
      vertex -6.25 -5.5 1.70096
      vertex -6.61177 -5.5 1.55111
      vertex 0 -5.5 0
    endloop
  endfacet
  facet normal 0 -1 0
    outer loop
      vertex -7.38823 -5.5 1.55111
      vertex -12 -5.5 0
      vertex -7 -5.5 1.5
    endloop
  endfacet
  facet normal 0 -1 0
    outer loop
      vertex -7.75 -5.5 1.70096
      vertex -12 -5.5 0
      vertex -7.38823 -5.5 1.55111
    endloop
  endfacet
  facet normal 0 -1 0
    outer loop
      vertex -8.06066 -5.5 1.93934
      vertex -12 -5.5 0
      vertex -7.75 -5.5 1.70096
    endloop
  endfacet
  facet normal 0 -1 0
    outer loop
      vertex -8.29904 -5.5 2.25
      vertex -12 -5.5 0
      vertex -8.06066 -5.5 1.93934
    endloop
  endfacet
  facet normal 0 -1 0
    outer loop
      vertex -8.44889 -5.5 2.61177
      vertex -12 -5.5 0
      vertex -8.29904 -5.5 2.25
    endloop
  endfacet
  facet normal 0 -1 0
    outer loop
      vertex -8.29904 -5.5 3.75
      vertex -8.06066 -5.5 4.06066
      vertex -12 -5.5 6
    endloop
  endfacet
  facet normal 0 0 -1
    outer loop
      vertex -12 -5.5 0
      vertex -12 5.35 0
      vertex 0 -5.5 0
    endloop
  endfacet
  facet normal 0 0 -1
    outer loop
      vertex 0 -5.5 0
      vertex -12 5.35 0
      vertex 0 0 0
    endloop
  endfacet
  facet normal 0 0 -1
    outer loop
      vertex 0 11.15 0
      vertex -12 11.15 0
      vertex -12 16.5 0
    endloop
  endfacet
  facet normal 0 0 -1
    outer loop
      vertex 0 11.15 0
      vertex -12 16.5 0
      vertex 0 16.5 0
    endloop
  endfacet
  facet normal 0 0 -1
    outer loop
      vertex 0 11.15 0
      vertex 78 22 0
      vertex 0 5.35 0
    endloop
  endfacet
  facet normal 0 0 -1
    outer loop
      vertex 0 16.5 0
      vertex 0 22 0
      vertex 78 22 0
    endloop
  endfacet
  facet normal 0 0 -1
    outer loop
      vertex 0 16.5 0
      vertex 78 22 0
      vertex 0 11.15 0
    endloop
  endfacet
  facet normal 0 0 -1
    outer loop
      vertex 0 5.35 0
      vertex 78 22 0
      vertex 0 0 0
    endloop
  endfacet
  facet normal 0 0 -1
    outer loop
      vertex 0 5.35 0
      vertex 0 0 0
      vertex -12 5.35 0
    endloop
  endfacet
  facet normal 0 0 -1
    outer loop
      vertex 0 0 0
      vertex 78 22 0
      vertex 78 0 0
    endloop
  endfacet
  facet normal 0 1 0
    outer loop
      vertex -7.38823 5.35 1.55111
      vertex 0 5.35 0
      vertex -12 5.35 0
    endloop
  endfacet
  facet normal 0 1 0
    outer loop
      vertex -5.5 5.35 3
      vertex 0 5.35 0
      vertex -5.55111 5.35 2.61177
    endloop
  endfacet
  facet normal 0 1 0
    outer loop
      vertex -12 5.35 6
      vertex -8.44889 5.35 2.61177
      vertex -12 5.35 0
    endloop
  endfacet
  facet normal 0 1 0
    outer loop
      vertex -5.93934 5.35 1.93934
      vertex 0 5.35 0
      vertex -6.25 5.35 1.70096
    endloop
  endfacet
  facet normal 0 1 0
    outer loop
      vertex -8.44889 5.35 2.61177
      vertex -8.29904 5.35 2.25
      vertex -12 5.35 0
    endloop
  endfacet
  facet normal 0 1 0
    outer loop
      vertex -8.29904 5.35 2.25
      vertex -8.06066 5.35 1.93934
      vertex -12 5.35 0
    endloop
  endfacet
  facet normal 0 1 0
    outer loop
      vertex -6.25 5.35 1.70096
      vertex 0 5.35 0
      vertex -6.61177 5.35 1.55111
    endloop
  endfacet
  facet normal 0 1 0
    outer loop
      vertex -8.06066 5.35 1.93934
      vertex -7.75 5.35 1.70096
      vertex -12 5.35 0
    endloop
  endfacet
  facet normal 0 1 0
    outer loop
      vertex -7 5.35 1.5
      vertex 0 5.35 0
      vertex -7.38823 5.35 1.55111
    endloop
  endfacet
  facet normal 0 1 0
    outer loop
      vertex -7.75 5.35 1.70096
      vertex -7.38823 5.35 1.55111
      vertex -12 5.35 0
    endloop
  endfacet
  facet normal 0 1 0
    outer loop
      vertex -5.70096 5.35 2.25
      vertex 0 5.35 0
      vertex -5.93934 5.35 1.93934
    endloop
  endfacet
  facet normal 0 1 0
    outer loop
      vertex -5.55111 5.35 2.61177
      vertex 0 5.35 0
      vertex -5.70096 5.35 2.25
    endloop
  endfacet
  facet normal 0 1 0
    outer loop
      vertex 0 5.35 6
      vertex 0 5.35 0
      vertex -5.5 5.35 3
    endloop
  endfacet
  facet normal 0 1 0
    outer loop
      vertex 0 5.35 6
      vertex -5.5 5.35 3
      vertex -5.55111 5.35 3.38823
    endloop
  endfacet
  facet normal 0 1 0
    outer loop
      vertex 0 5.35 6
      vertex -5.55111 5.35 3.38823
      vertex -5.70096 5.35 3.75
    endloop
  endfacet
  facet normal 0 1 0
    outer loop
      vertex 0 5.35 6
      vertex -5.70096 5.35 3.75
      vertex -5.93934 5.35 4.06066
    endloop
  endfacet
  facet normal 0 1 0
    outer loop
      vertex 0 5.35 6
      vertex -5.93934 5.35 4.06066
      vertex -6.25 5.35 4.29904
    endloop
  endfacet
  facet normal 0 1 0
    outer loop
      vertex 0 5.35 6
      vertex -6.25 5.35 4.29904
      vertex -6.61177 5.35 4.44889
    endloop
  endfacet
  facet normal 0 1 0
    outer loop
      vertex 0 5.35 6
      vertex -6.61177 5.35 4.44889
      vertex -12 5.35 6
    endloop
  endfacet
  facet normal 0 1 0
    outer loop
      vertex -7.38823 5.35 4.44889
      vertex -12 5.35 6
      vertex -7 5.35 4.5
    endloop
  endfacet
  facet normal 0 1 0
    outer loop
      vertex -7.75 5.35 4.29904
      vertex -12 5.35 6
      vertex -7.38823 5.35 4.44889
    endloop
  endfacet
  facet normal 0 1 0
    outer loop
      vertex -8.06066 5.35 4.06066
      vertex -12 5.35 6
      vertex -7.75 5.35 4.29904
    endloop
  endfacet
  facet normal 0 1 0
    outer loop
      vertex -7 5.35 4.5
      vertex -12 5.35 6
      vertex -6.61177 5.35 4.44889
    endloop
  endfacet
  facet normal 0 1 0
    outer loop
      vertex -8.29904 5.35 3.75
      vertex -12 5.35 6
      vertex -8.06066 5.35 4.06066
    endloop
  endfacet
  facet normal 0 1 0
    outer loop
      vertex -8.44889 5.35 3.38823
      vertex -12 5.35 6
      vertex -8.29904 5.35 3.75
    endloop
  endfacet
  facet normal 0 1 0
    outer loop
      vertex -12 5.35 6
      vertex -8.44889 5.35 3.38823
      vertex -8.5 5.35 3
    endloop
  endfacet
  facet normal 0 1 0
    outer loop
      vertex -12 5.35 6
      vertex -8.5 5.35 3
      vertex -8.44889 5.35 2.61177
    endloop
  endfacet
  facet normal 0 1 0
    outer loop
      vertex -6.61177 5.35 1.55111
      vertex 0 5.35 0
      vertex -7 5.35 1.5
    endloop
  endfacet
  facet normal 0 0 1
    outer loop
      vertex -12 5.35 6
      vertex -12 -5.5 6
      vertex 0 -5.5 6
    endloop
  endfacet
  facet normal 0 0 1
    outer loop
      vertex 78 0 6
      vertex -12 5.35 6
      vertex 0 0 6
    endloop
  endfacet
  facet normal 0 0 1
    outer loop
      vertex 0 0 6
      vertex -12 5.35 6
      vertex 0 -5.5 6
    endloop
  endfacet
  facet normal 0 0 1
    outer loop
      vertex 0 5.35 6
      vertex -12 5.35 6
      vertex 78 0 6
    endloop
  endfacet
  facet normal 0 0 1
    outer loop
      vertex -12 11.15 6
      vertex 0 11.15 6
      vertex 0 16.5 6
    endloop
  endfacet
  facet normal 0 0 1
    outer loop
      vertex 0 22 6
      vertex 0 16.5 6
      vertex 78 22 6
    endloop
  endfacet
  facet normal 0 0 1
    outer loop
      vertex 0 16.5 6
      vertex 0 11.15 6
      vertex 78 22 6
    endloop
  endfacet
  facet normal 0 0 1
    outer loop
      vertex 78 22 6
      vertex 0 5.35 6
      vertex 78 0 6
    endloop
  endfacet
  facet normal 0 0 1
    outer loop
      vertex 0 11.15 6
      vertex 0 5.35 6
      vertex 78 22 6
    endloop
  endfacet
  facet normal 0 0 1
    outer loop
      vertex 0 16.5 6
      vertex -12 16.5 6
      vertex -12 11.15 6
    endloop
  endfacet
  facet normal 1 0 0
    outer loop
      vertex 0 0 0
      vertex 0 0 6
      vertex 0 -5.5 6
    endloop
  endfacet
  facet normal 1 0 0
    outer loop
      vertex 0 -5.5 0
      vertex 0 0 0
      vertex 0 -5.5 6
    endloop
  endfacet
  facet normal 0.991445 2.89825e-17 0.130525
    outer loop
      vertex -8.44889 -5.5 2.61177
      vertex -8.44889 5.35 2.61177
      vertex -8.5 5.35 3
    endloop
  endfacet
  facet normal 0.991445 2.89825e-17 0.130525
    outer loop
      vertex -8.5 -5.5 3
      vertex -8.44889 -5.5 2.61177
      vertex -8.5 5.35 3
    endloop
  endfacet
  facet normal 0.923879 8.49731e-17 0.382685
    outer loop
      vertex -8.29904 -5.5 2.25
      vertex -8.29904 5.35 2.25
      vertex -8.44889 5.35 2.61177
    endloop
  endfacet
  facet normal 0.923879 8.49731e-17 0.382685
    outer loop
      vertex -8.44889 -5.5 2.61177
      vertex -8.29904 -5.5 2.25
      vertex -8.44889 5.35 2.61177
    endloop
  endfacet
  facet normal 0.793353 1.35172e-16 0.608762
    outer loop
      vertex -8.06066 -5.5 1.93934
      vertex -8.06066 5.35 1.93934
      vertex -8.29904 5.35 2.25
    endloop
  endfacet
  facet normal 0.793353 1.35172e-16 0.608762
    outer loop
      vertex -8.29904 -5.5 2.25
      vertex -8.06066 -5.5 1.93934
      vertex -8.29904 5.35 2.25
    endloop
  endfacet
  facet normal 0.608762 1.7616e-16 0.793353
    outer loop
      vertex -7.75 -5.5 1.70096
      vertex -7.75 5.35 1.70096
      vertex -8.06066 5.35 1.93934
    endloop
  endfacet
  facet normal 0.608762 1.7616e-16 0.793353
    outer loop
      vertex -8.06066 -5.5 1.93934
      vertex -7.75 -5.5 1.70096
      vertex -8.06066 5.35 1.93934
    endloop
  endfacet
  facet normal 0.382685 2.05142e-16 0.923879
    outer loop
      vertex -7.38823 -5.5 1.55111
      vertex -7.38823 5.35 1.55111
      vertex -7.75 5.35 1.70096
    endloop
  endfacet
  facet normal 0.382685 2.05142e-16 0.923879
    outer loop
      vertex -7.75 -5.5 1.70096
      vertex -7.38823 -5.5 1.55111
      vertex -7.75 5.35 1.70096
    endloop
  endfacet
  facet normal 0.130525 2.20145e-16 0.991445
    outer loop
      vertex -7 -5.5 1.5
      vertex -7 5.35 1.5
      vertex -7.38823 5.35 1.55111
    endloop
  endfacet
  facet normal 0.130525 2.20145e-16 0.991445
    outer loop
      vertex -7.38823 -5.5 1.55111
      vertex -7 -5.5 1.5
      vertex -7.38823 5.35 1.55111
    endloop
  endfacet
  facet normal -0.130525 2.20145e-16 0.991445
    outer loop
      vertex -6.61177 -5.5 1.55111
      vertex -6.61177 5.35 1.55111
      vertex -7 5.35 1.5
    endloop
  endfacet
  facet normal -0.130525 2.20145e-16 0.991445
    outer loop
      vertex -7 -5.5 1.5
      vertex -6.61177 -5.5 1.55111
      vertex -7 5.35 1.5
    endloop
  endfacet
  facet normal -0.382685 2.05142e-16 0.923879
    outer loop
      vertex -6.25 -5.5 1.70096
      vertex -6.25 5.35 1.70096
      vertex -6.61177 5.35 1.55111
    endloop
  endfacet
  facet normal -0.382685 2.05142e-16 0.923879
    outer loop
      vertex -6.61177 -5.5 1.55111
      vertex -6.25 -5.5 1.70096
      vertex -6.61177 5.35 1.55111
    endloop
  endfacet
  facet normal -0.608762 1.7616e-16 0.793353
    outer loop
      vertex -5.93934 -5.5 1.93934
      vertex -5.93934 5.35 1.93934
      vertex -6.25 5.35 1.70096
    endloop
  endfacet
  facet normal -0.608762 1.7616e-16 0.793353
    outer loop
      vertex -6.25 -5.5 1.70096
      vertex -5.93934 -5.5 1.93934
      vertex -6.25 5.35 1.70096
    endloop
  endfacet
  facet normal -0.793353 1.35172e-16 0.608762
    outer loop
      vertex -5.70096 5.35 2.25
      vertex -5.93934 5.35 1.93934
      vertex -5.70096 -5.5 2.25
    endloop
  endfacet
  facet normal -0.793353 1.35172e-16 0.608762
    outer loop
      vertex -5.70096 -5.5 2.25
      vertex -5.93934 5.35 1.93934
      vertex -5.93934 -5.5 1.93934
    endloop
  endfacet
  facet normal -0.923879 8.49731e-17 0.382685
    outer loop
      vertex -5.55111 5.35 2.61177
      vertex -5.70096 5.35 2.25
      vertex -5.55111 -5.5 2.61177
    endloop
  endfacet
  facet normal -0.923879 8.49731e-17 0.382685
    outer loop
      vertex -5.55111 -5.5 2.61177
      vertex -5.70096 5.35 2.25
      vertex -5.70096 -5.5 2.25
    endloop
  endfacet
  facet normal -0.991445 2.89825e-17 0.130525
    outer loop
      vertex -5.5 5.35 3
      vertex -5.55111 5.35 2.61177
      vertex -5.5 -5.5 3
    endloop
  endfacet
  facet normal -0.991445 2.89825e-17 0.130525
    outer loop
      vertex -5.5 -5.5 3
      vertex -5.55111 5.35 2.61177
      vertex -5.55111 -5.5 2.61177
    endloop
  endfacet
  facet normal -0.991445 -2.89825e-17 -0.130525
    outer loop
      vertex -5.5 5.35 3
      vertex -5.5 -5.5 3
      vertex -5.55111 5.35 3.38823
    endloop
  endfacet
  facet normal -0.991445 -2.89825e-17 -0.130525
    outer loop
      vertex -5.55111 5.35 3.38823
      vertex -5.5 -5.5 3
      vertex -5.55111 -5.5 3.38823
    endloop
  endfacet
  facet normal -0.923879 -8.49731e-17 -0.382685
    outer loop
      vertex -5.55111 5.35 3.38823
      vertex -5.55111 -5.5 3.38823
      vertex -5.70096 5.35 3.75
    endloop
  endfacet
  facet normal -0.923879 -8.49731e-17 -0.382685
    outer loop
      vertex -5.70096 5.35 3.75
      vertex -5.55111 -5.5 3.38823
      vertex -5.70096 -5.5 3.75
    endloop
  endfacet
  facet normal -0.793353 -1.35172e-16 -0.608762
    outer loop
      vertex -5.70096 5.35 3.75
      vertex -5.70096 -5.5 3.75
      vertex -5.93934 5.35 4.06066
    endloop
  endfacet
  facet normal -0.793353 -1.35172e-16 -0.608762
    outer loop
      vertex -5.93934 5.35 4.06066
      vertex -5.70096 -5.5 3.75
      vertex -5.93934 -5.5 4.06066
    endloop
  endfacet
  facet normal -0.608762 -1.7616e-16 -0.793353
    outer loop
      vertex -5.93934 5.35 4.06066
      vertex -5.93934 -5.5 4.06066
      vertex -6.25 5.35 4.29904
    endloop
  endfacet
  facet normal -0.608762 -1.7616e-16 -0.793353
    outer loop
      vertex -6.25 5.35 4.29904
      vertex -5.93934 -5.5 4.06066
      vertex -6.25 -5.5 4.29904
    endloop
  endfacet
  facet normal -0.382685 -2.05142e-16 -0.923879
    outer loop
      vertex -6.25 5.35 4.29904
      vertex -6.25 -5.5 4.29904
      vertex -6.61177 5.35 4.44889
    endloop
  endfacet
  facet normal -0.382685 -2.05142e-16 -0.923879
    outer loop
      vertex -6.61177 5.35 4.44889
      vertex -6.25 -5.5 4.29904
      vertex -6.61177 -5.5 4.44889
    endloop
  endfacet
  facet normal -0.130525 -2.20145e-16 -0.991445
    outer loop
      vertex -6.61177 5.35 4.44889
      vertex -6.61177 -5.5 4.44889
      vertex -7 5.35 4.5
    endloop
  endfacet
  facet normal -0.130525 -2.20145e-16 -0.991445
    outer loop
      vertex -7 5.35 4.5
      vertex -6.61177 -5.5 4.44889
      vertex -7 -5.5 4.5
    endloop
  endfacet
  facet normal 0.130525 -2.20145e-16 -0.991445
    outer loop
      vertex -7 5.35 4.5
      vertex -7 -5.5 4.5
      vertex -7.38823 5.35 4.44889
    endloop
  endfacet
  facet normal 0.130525 -2.20145e-16 -0.991445
    outer loop
      vertex -7.38823 5.35 4.44889
      vertex -7 -5.5 4.5
      vertex -7.38823 -5.5 4.44889
    endloop
  endfacet
  facet normal 0.382685 -2.05142e-16 -0.923879
    outer loop
      vertex -7.38823 5.35 4.44889
      vertex -7.38823 -5.5 4.44889
      vertex -7.75 5.35 4.29904
    endloop
  endfacet
  facet normal 0.382685 -2.05142e-16 -0.923879
    outer loop
      vertex -7.75 5.35 4.29904
      vertex -7.38823 -5.5 4.44889
      vertex -7.75 -5.5 4.29904
    endloop
  endfacet
  facet normal 0.608762 -1.7616e-16 -0.793353
    outer loop
      vertex -7.75 5.35 4.29904
      vertex -7.75 -5.5 4.29904
      vertex -8.06066 5.35 4.06066
    endloop
  endfacet
  facet normal 0.608762 -1.7616e-16 -0.793353
    outer loop
      vertex -8.06066 5.35 4.06066
      vertex -7.75 -5.5 4.29904
      vertex -8.06066 -5.5 4.06066
    endloop
  endfacet
  facet normal 0.793353 -1.35172e-16 -0.608762
    outer loop
      vertex -8.29904 5.35 3.75
      vertex -8.06066 5.35 4.06066
      vertex -8.06066 -5.5 4.06066
    endloop
  endfacet
  facet normal 0.793353 -1.35172e-16 -0.608762
    outer loop
      vertex -8.29904 -5.5 3.75
      vertex -8.29904 5.35 3.75
      vertex -8.06066 -5.5 4.06066
    endloop
  endfacet
  facet normal 0.923879 -8.49731e-17 -0.382685
    outer loop
      vertex -8.44889 5.35 3.38823
      vertex -8.29904 5.35 3.75
      vertex -8.29904 -5.5 3.75
    endloop
  endfacet
  facet normal 0.923879 -8.49731e-17 -0.382685
    outer loop
      vertex -8.44889 -5.5 3.38823
      vertex -8.44889 5.35 3.38823
      vertex -8.29904 -5.5 3.75
    endloop
  endfacet
  facet normal 0.991445 -2.89825e-17 -0.130525
    outer loop
      vertex -8.5 5.35 3
      vertex -8.44889 5.35 3.38823
      vertex -8.44889 -5.5 3.38823
    endloop
  endfacet
  facet normal 0.991445 -2.89825e-17 -0.130525
    outer loop
      vertex -8.5 -5.5 3
      vertex -8.5 5.35 3
      vertex -8.44889 -5.5 3.38823
    endloop
  endfacet
  facet normal 0 -1 0
    outer loop
      vertex 0 0 6
      vertex 0 0 0
      vertex 78 0 0
    endloop
  endfacet
  facet normal 0 -1 0
    outer loop
      vertex 78 0 6
      vertex 0 0 6
      vertex 78 0 0
    endloop
  endfacet
  facet normal 1 0 0
    outer loop
      vertex 78 6.55 2.04737
      vertex 78 0 0
      vertex 78 22 0
    endloop
  endfacet
  facet normal 1 0 0
    outer loop
      vertex 78 16 1.9
      vertex 78 0 6
      vertex 78 22 0
    endloop
  endfacet
  facet normal 1 0 0
    outer loop
      vertex 78 16 4.1
      vertex 78 16.55 3.95263
      vertex 78 22 6
    endloop
  endfacet
  facet normal 1 0 0
    outer loop
      vertex 78 0 6
      vertex 78 0 0
      vertex 78 5.04737 2.45
    endloop
  endfacet
  facet normal 1 0 0
    outer loop
      vertex 78 6.95263 2.45
      vertex 78 6.55 2.04737
      vertex 78 22 0
    endloop
  endfacet
  facet normal 1 0 0
    outer loop
      vertex 78 0 6
      vertex 78 5.04737 2.45
      vertex 78 4.9 3
    endloop
  endfacet
  facet normal 1 0 0
    outer loop
      vertex 78 7.1 3
      vertex 78 6.95263 2.45
      vertex 78 22 0
    endloop
  endfacet
  facet normal 1 0 0
    outer loop
      vertex 78 0 6
      vertex 78 4.9 3
      vertex 78 5.04737 3.55
    endloop
  endfacet
  facet normal 1 0 0
    outer loop
      vertex 78 6.95263 3.55
      vertex 78 7.1 3
      vertex 78 22 0
    endloop
  endfacet
  facet normal 1 0 0
    outer loop
      vertex 78 0 6
      vertex 78 5.04737 3.55
      vertex 78 5.45 3.95263
    endloop
  endfacet
  facet normal 1 0 0
    outer loop
      vertex 78 0 6
      vertex 78 6 4.1
      vertex 78 22 0
    endloop
  endfacet
  facet normal 1 0 0
    outer loop
      vertex 78 0 6
      vertex 78 5.45 3.95263
      vertex 78 6 4.1
    endloop
  endfacet
  facet normal 1 0 0
    outer loop
      vertex 78 6 4.1
      vertex 78 6.55 3.95263
      vertex 78 22 0
    endloop
  endfacet
  facet normal 1 0 0
    outer loop
      vertex 78 6 1.9
      vertex 78 0 0
      vertex 78 6.55 2.04737
    endloop
  endfacet
  facet normal 1 0 0
    outer loop
      vertex 78 5.45 2.04737
      vertex 78 0 0
      vertex 78 6 1.9
    endloop
  endfacet
  facet normal 1 0 0
    outer loop
      vertex 78 5.04737 2.45
      vertex 78 0 0
      vertex 78 5.45 2.04737
    endloop
  endfacet
  facet normal 1 0 0
    outer loop
      vertex 78 14.9 3
      vertex 78 0 6
      vertex 78 15.0474 2.45
    endloop
  endfacet
  facet normal 1 0 0
    outer loop
      vertex 78 15.0474 3.55
      vertex 78 0 6
      vertex 78 14.9 3
    endloop
  endfacet
  facet normal 1 0 0
    outer loop
      vertex 78 15.45 3.95263
      vertex 78 0 6
      vertex 78 15.0474 3.55
    endloop
  endfacet
  facet normal 1 0 0
    outer loop
      vertex 78 22 6
      vertex 78 0 6
      vertex 78 15.45 3.95263
    endloop
  endfacet
  facet normal 1 0 0
    outer loop
      vertex 78 16.55 3.95263
      vertex 78 16.9526 3.55
      vertex 78 22 6
    endloop
  endfacet
  facet normal 1 0 0
    outer loop
      vertex 78 22 6
      vertex 78 15.45 3.95263
      vertex 78 16 4.1
    endloop
  endfacet
  facet normal 1 0 0
    outer loop
      vertex 78 16.9526 3.55
      vertex 78 17.1 3
      vertex 78 22 6
    endloop
  endfacet
  facet normal 1 0 0
    outer loop
      vertex 78 16.55 2.04737
      vertex 78 16 1.9
      vertex 78 22 0
    endloop
  endfacet
  facet normal 1 0 0
    outer loop
      vertex 78 22 6
      vertex 78 17.1 3
      vertex 78 22 0
    endloop
  endfacet
  facet normal 1 0 0
    outer loop
      vertex 78 17.1 3
      vertex 78 16.9526 2.45
      vertex 78 22 0
    endloop
  endfacet
  facet normal 1 0 0
    outer loop
      vertex 78 16.9526 2.45
      vertex 78 16.55 2.04737
      vertex 78 22 0
    endloop
  endfacet
  facet normal 1 0 0
    outer loop
      vertex 78 15.45 2.04737
      vertex 78 0 6
      vertex 78 16 1.9
    endloop
  endfacet
  facet normal 1 0 0
    outer loop
      vertex 78 15.0474 2.45
      vertex 78 0 6
      vertex 78 15.45 2.04737
    endloop
  endfacet
  facet normal 1 0 0
    outer loop
      vertex 78 6.55 3.95263
      vertex 78 6.95263 3.55
      vertex 78 22 0
    endloop
  endfacet
  facet normal 0 1 0
    outer loop
      vertex 0 22 0
      vertex 0 22 6
      vertex 78 22 0
    endloop
  endfacet
  facet normal 0 1 0
    outer loop
      vertex 78 22 0
      vertex 0 22 6
      vertex 78 22 6
    endloop
  endfacet
  facet normal -1 0 0
    outer loop
      vertex 0 16.5 0
      vertex 0 16.5 6
      vertex 0 22 0
    endloop
  endfacet
  facet normal -1 0 0
    outer loop
      vertex 0 22 0
      vertex 0 16.5 6
      vertex 0 22 6
    endloop
  endfacet
  facet normal 0 1 0
    outer loop
      vertex -6.61177 16.5 4.44889
      vertex -12 16.5 6
      vertex 0 16.5 6
    endloop
  endfacet
  facet normal 0 1 0
    outer loop
      vertex -12 16.5 0
      vertex -12 16.5 6
      vertex -8.5 16.5 3
    endloop
  endfacet
  facet normal 0 1 0
    outer loop
      vertex -12 16.5 0
      vertex -8.5 16.5 3
      vertex -8.44889 16.5 2.61177
    endloop
  endfacet
  facet normal 0 1 0
    outer loop
      vertex -12 16.5 0
      vertex -8.44889 16.5 2.61177
      vertex -8.29904 16.5 2.25
    endloop
  endfacet
  facet normal 0 1 0
    outer loop
      vertex -12 16.5 0
      vertex -8.29904 16.5 2.25
      vertex -8.06066 16.5 1.93934
    endloop
  endfacet
  facet normal 0 1 0
    outer loop
      vertex -12 16.5 0
      vertex -8.06066 16.5 1.93934
      vertex -7.75 16.5 1.70096
    endloop
  endfacet
  facet normal 0 1 0
    outer loop
      vertex -12 16.5 0
      vertex -7.75 16.5 1.70096
      vertex -7.38823 16.5 1.55111
    endloop
  endfacet
  facet normal 0 1 0
    outer loop
      vertex -12 16.5 0
      vertex -7.38823 16.5 1.55111
      vertex 0 16.5 0
    endloop
  endfacet
  facet normal 0 1 0
    outer loop
      vertex -7.38823 16.5 1.55111
      vertex -7 16.5 1.5
      vertex 0 16.5 0
    endloop
  endfacet
  facet normal 0 1 0
    outer loop
      vertex -6.25 16.5 1.70096
      vertex 0 16.5 0
      vertex -6.61177 16.5 1.55111
    endloop
  endfacet
  facet normal 0 1 0
    outer loop
      vertex -5.93934 16.5 1.93934
      vertex 0 16.5 0
      vertex -6.25 16.5 1.70096
    endloop
  endfacet
  facet normal 0 1 0
    outer loop
      vertex -5.70096 16.5 2.25
      vertex 0 16.5 0
      vertex -5.93934 16.5 1.93934
    endloop
  endfacet
  facet normal 0 1 0
    outer loop
      vertex -5.5 16.5 3
      vertex 0 16.5 0
      vertex -5.55111 16.5 2.61177
    endloop
  endfacet
  facet normal 0 1 0
    outer loop
      vertex -5.70096 16.5 2.25
      vertex -5.55111 16.5 2.61177
      vertex 0 16.5 0
    endloop
  endfacet
  facet normal 0 1 0
    outer loop
      vertex -8.29904 16.5 3.75
      vertex -12 16.5 6
      vertex -8.06066 16.5 4.06066
    endloop
  endfacet
  facet normal 0 1 0
    outer loop
      vertex 0 16.5 0
      vertex -5.5 16.5 3
      vertex 0 16.5 6
    endloop
  endfacet
  facet normal 0 1 0
    outer loop
      vertex -5.5 16.5 3
      vertex -5.55111 16.5 3.38823
      vertex 0 16.5 6
    endloop
  endfacet
  facet normal 0 1 0
    outer loop
      vertex -8.06066 16.5 4.06066
      vertex -12 16.5 6
      vertex -7.75 16.5 4.29904
    endloop
  endfacet
  facet normal 0 1 0
    outer loop
      vertex -5.55111 16.5 3.38823
      vertex -5.70096 16.5 3.75
      vertex 0 16.5 6
    endloop
  endfacet
  facet normal 0 1 0
    outer loop
      vertex -7.75 16.5 4.29904
      vertex -12 16.5 6
      vertex -7.38823 16.5 4.44889
    endloop
  endfacet
  facet normal 0 1 0
    outer loop
      vertex -5.70096 16.5 3.75
      vertex -5.93934 16.5 4.06066
      vertex 0 16.5 6
    endloop
  endfacet
  facet normal 0 1 0
    outer loop
      vertex -7.38823 16.5 4.44889
      vertex -12 16.5 6
      vertex -7 16.5 4.5
    endloop
  endfacet
  facet normal 0 1 0
    outer loop
      vertex -5.93934 16.5 4.06066
      vertex -6.25 16.5 4.29904
      vertex 0 16.5 6
    endloop
  endfacet
  facet normal 0 1 0
    outer loop
      vertex -6.25 16.5 4.29904
      vertex -6.61177 16.5 4.44889
      vertex 0 16.5 6
    endloop
  endfacet
  facet normal 0 1 0
    outer loop
      vertex -7 16.5 4.5
      vertex -12 16.5 6
      vertex -6.61177 16.5 4.44889
    endloop
  endfacet
  facet normal 0 1 0
    outer loop
      vertex -8.44889 16.5 3.38823
      vertex -12 16.5 6
      vertex -8.29904 16.5 3.75
    endloop
  endfacet
  facet normal 0 1 0
    outer loop
      vertex -8.5 16.5 3
      vertex -12 16.5 6
      vertex -8.44889 16.5 3.38823
    endloop
  endfacet
  facet normal 0 1 0
    outer loop
      vertex -6.61177 16.5 1.55111
      vertex 0 16.5 0
      vertex -7 16.5 1.5
    endloop
  endfacet
  facet normal -1 0 0
    outer loop
      vertex -12 11.15 0
      vertex -12 11.15 6
      vertex -12 16.5 0
    endloop
  endfacet
  facet normal -1 0 0
    outer loop
      vertex -12 16.5 0
      vertex -12 11.15 6
      vertex -12 16.5 6
    endloop
  endfacet
  facet normal 0 -1 0
    outer loop
      vertex -7.38823 11.15 4.44889
      vertex 0 11.15 6
      vertex -12 11.15 6
    endloop
  endfacet
  facet normal 0 -1 0
    outer loop
      vertex -7 11.15 4.5
      vertex -6.61177 11.15 4.44889
      vertex 0 11.15 6
    endloop
  endfacet
  facet normal 0 -1 0
    outer loop
      vertex -12 11.15 0
      vertex -8.5 11.15 3
      vertex -12 11.15 6
    endloop
  endfacet
  facet normal 0 -1 0
    outer loop
      vertex -8.5 11.15 3
      vertex -8.44889 11.15 3.38823
      vertex -12 11.15 6
    endloop
  endfacet
  facet normal 0 -1 0
    outer loop
      vertex -8.44889 11.15 3.38823
      vertex -8.29904 11.15 3.75
      vertex -12 11.15 6
    endloop
  endfacet
  facet normal 0 -1 0
    outer loop
      vertex -5.70096 11.15 2.25
      vertex -5.93934 11.15 1.93934
      vertex 0 11.15 0
    endloop
  endfacet
  facet normal 0 -1 0
    outer loop
      vertex -8.06066 11.15 4.06066
      vertex -7.75 11.15 4.29904
      vertex -12 11.15 6
    endloop
  endfacet
  facet normal 0 -1 0
    outer loop
      vertex -7.75 11.15 4.29904
      vertex -7.38823 11.15 4.44889
      vertex -12 11.15 6
    endloop
  endfacet
  facet normal 0 -1 0
    outer loop
      vertex -7 11.15 4.5
      vertex 0 11.15 6
      vertex -7.38823 11.15 4.44889
    endloop
  endfacet
  facet normal 0 -1 0
    outer loop
      vertex -6.61177 11.15 4.44889
      vertex -6.25 11.15 4.29904
      vertex 0 11.15 6
    endloop
  endfacet
  facet normal 0 -1 0
    outer loop
      vertex -5.5 11.15 3
      vertex -5.55111 11.15 2.61177
      vertex 0 11.15 0
    endloop
  endfacet
  facet normal 0 -1 0
    outer loop
      vertex 0 11.15 0
      vertex 0 11.15 6
      vertex -6.25 11.15 4.29904
    endloop
  endfacet
  facet normal 0 -1 0
    outer loop
      vertex 0 11.15 0
      vertex -6.25 11.15 4.29904
      vertex -5.93934 11.15 4.06066
    endloop
  endfacet
  facet normal 0 -1 0
    outer loop
      vertex 0 11.15 0
      vertex -5.93934 11.15 4.06066
      vertex -5.70096 11.15 3.75
    endloop
  endfacet
  facet normal 0 -1 0
    outer loop
      vertex 0 11.15 0
      vertex -5.70096 11.15 3.75
      vertex -5.55111 11.15 3.38823
    endloop
  endfacet
  facet normal 0 -1 0
    outer loop
      vertex 0 11.15 0
      vertex -5.55111 11.15 3.38823
      vertex -5.5 11.15 3
    endloop
  endfacet
  facet normal 0 -1 0
    outer loop
      vertex -5.55111 11.15 2.61177
      vertex -5.70096 11.15 2.25
      vertex 0 11.15 0
    endloop
  endfacet
  facet normal 0 -1 0
    outer loop
      vertex -6.61177 11.15 1.55111
      vertex -7 11.15 1.5
      vertex -12 11.15 0
    endloop
  endfacet
  facet normal 0 -1 0
    outer loop
      vertex -6.25 11.15 1.70096
      vertex 0 11.15 0
      vertex -5.93934 11.15 1.93934
    endloop
  endfacet
  facet normal 0 -1 0
    outer loop
      vertex -6.61177 11.15 1.55111
      vertex 0 11.15 0
      vertex -6.25 11.15 1.70096
    endloop
  endfacet
  facet normal 0 -1 0
    outer loop
      vertex -7 11.15 1.5
      vertex -7.38823 11.15 1.55111
      vertex -12 11.15 0
    endloop
  endfacet
  facet normal 0 -1 0
    outer loop
      vertex -12 11.15 0
      vertex 0 11.15 0
      vertex -6.61177 11.15 1.55111
    endloop
  endfacet
  facet normal 0 -1 0
    outer loop
      vertex -12 11.15 0
      vertex -7.38823 11.15 1.55111
      vertex -7.75 11.15 1.70096
    endloop
  endfacet
  facet normal 0 -1 0
    outer loop
      vertex -12 11.15 0
      vertex -7.75 11.15 1.70096
      vertex -8.06066 11.15 1.93934
    endloop
  endfacet
  facet normal 0 -1 0
    outer loop
      vertex -12 11.15 0
      vertex -8.06066 11.15 1.93934
      vertex -8.29904 11.15 2.25
    endloop
  endfacet
  facet normal 0 -1 0
    outer loop
      vertex -12 11.15 0
      vertex -8.44889 11.15 2.61177
      vertex -8.5 11.15 3
    endloop
  endfacet
  facet normal 0 -1 0
    outer loop
      vertex -12 11.15 0
      vertex -8.29904 11.15 2.25
      vertex -8.44889 11.15 2.61177
    endloop
  endfacet
  facet normal 0 -1 0
    outer loop
      vertex -8.29904 11.15 3.75
      vertex -8.06066 11.15 4.06066
      vertex -12 11.15 6
    endloop
  endfacet
  facet normal -1 0 0
    outer loop
      vertex 0 11.15 6
      vertex 0 11.15 0
      vertex 0 5.35 6
    endloop
  endfacet
  facet normal -1 0 0
    outer loop
      vertex 0 5.35 6
      vertex 0 11.15 0
      vertex 0 5.35 0
    endloop
  endfacet
  facet normal -5.74694e-17 0.965926 0.258819
    outer loop
      vertex 78 5.04737 2.45
      vertex 72 5.04737 2.45
      vertex 78 4.9 3
    endloop
  endfacet
  facet normal -5.74694e-17 0.965926 0.258819
    outer loop
      vertex 78 4.9 3
      vertex 72 5.04737 2.45
      vertex 72 4.9 3
    endloop
  endfacet
  facet normal -1.57009e-16 0.707107 0.707107
    outer loop
      vertex 78 5.45 2.04737
      vertex 72 5.45 2.04737
      vertex 78 5.04737 2.45
    endloop
  endfacet
  facet normal -1.57009e-16 0.707107 0.707107
    outer loop
      vertex 78 5.04737 2.45
      vertex 72 5.45 2.04737
      vertex 72 5.04737 2.45
    endloop
  endfacet
  facet normal -2.14479e-16 0.258819 0.965926
    outer loop
      vertex 78 5.45 2.04737
      vertex 78 6 1.9
      vertex 72 6 1.9
    endloop
  endfacet
  facet normal -2.14479e-16 0.258819 0.965926
    outer loop
      vertex 72 5.45 2.04737
      vertex 78 5.45 2.04737
      vertex 72 6 1.9
    endloop
  endfacet
  facet normal -2.14479e-16 -0.258819 0.965926
    outer loop
      vertex 72 6 1.9
      vertex 78 6 1.9
      vertex 78 6.55 2.04737
    endloop
  endfacet
  facet normal -2.14479e-16 -0.258819 0.965926
    outer loop
      vertex 72 6.55 2.04737
      vertex 72 6 1.9
      vertex 78 6.55 2.04737
    endloop
  endfacet
  facet normal -1.57009e-16 -0.707107 0.707107
    outer loop
      vertex 72 6.55 2.04737
      vertex 78 6.55 2.04737
      vertex 78 6.95263 2.45
    endloop
  endfacet
  facet normal -1.57009e-16 -0.707107 0.707107
    outer loop
      vertex 72 6.95263 2.45
      vertex 72 6.55 2.04737
      vertex 78 6.95263 2.45
    endloop
  endfacet
  facet normal -5.74694e-17 -0.965926 0.258819
    outer loop
      vertex 72 6.95263 2.45
      vertex 78 6.95263 2.45
      vertex 78 7.1 3
    endloop
  endfacet
  facet normal -5.74694e-17 -0.965926 0.258819
    outer loop
      vertex 72 7.1 3
      vertex 72 6.95263 2.45
      vertex 78 7.1 3
    endloop
  endfacet
  facet normal 5.74694e-17 -0.965926 -0.258819
    outer loop
      vertex 72 7.1 3
      vertex 78 7.1 3
      vertex 78 6.95263 3.55
    endloop
  endfacet
  facet normal 5.74694e-17 -0.965926 -0.258819
    outer loop
      vertex 72 6.95263 3.55
      vertex 72 7.1 3
      vertex 78 6.95263 3.55
    endloop
  endfacet
  facet normal 1.57009e-16 -0.707107 -0.707107
    outer loop
      vertex 72 6.95263 3.55
      vertex 78 6.95263 3.55
      vertex 78 6.55 3.95263
    endloop
  endfacet
  facet normal 1.57009e-16 -0.707107 -0.707107
    outer loop
      vertex 72 6.55 3.95263
      vertex 72 6.95263 3.55
      vertex 78 6.55 3.95263
    endloop
  endfacet
  facet normal 2.14479e-16 -0.258819 -0.965926
    outer loop
      vertex 78 6.55 3.95263
      vertex 78 6 4.1
      vertex 72 6.55 3.95263
    endloop
  endfacet
  facet normal 2.14479e-16 -0.258819 -0.965926
    outer loop
      vertex 72 6.55 3.95263
      vertex 78 6 4.1
      vertex 72 6 4.1
    endloop
  endfacet
  facet normal 2.14479e-16 0.258819 -0.965926
    outer loop
      vertex 78 5.45 3.95263
      vertex 72 5.45 3.95263
      vertex 78 6 4.1
    endloop
  endfacet
  facet normal 2.14479e-16 0.258819 -0.965926
    outer loop
      vertex 78 6 4.1
      vertex 72 5.45 3.95263
      vertex 72 6 4.1
    endloop
  endfacet
  facet normal 1.57009e-16 0.707107 -0.707107
    outer loop
      vertex 78 5.04737 3.55
      vertex 72 5.04737 3.55
      vertex 78 5.45 3.95263
    endloop
  endfacet
  facet normal 1.57009e-16 0.707107 -0.707107
    outer loop
      vertex 78 5.45 3.95263
      vertex 72 5.04737 3.55
      vertex 72 5.45 3.95263
    endloop
  endfacet
  facet normal 5.74694e-17 0.965926 -0.258819
    outer loop
      vertex 78 4.9 3
      vertex 72 4.9 3
      vertex 78 5.04737 3.55
    endloop
  endfacet
  facet normal 5.74694e-17 0.965926 -0.258819
    outer loop
      vertex 78 5.04737 3.55
      vertex 72 4.9 3
      vertex 72 5.04737 3.55
    endloop
  endfacet
  facet normal -5.74694e-17 0.965926 0.258819
    outer loop
      vertex 78 15.0474 2.45
      vertex 72 15.0474 2.45
      vertex 78 14.9 3
    endloop
  endfacet
  facet normal -5.74694e-17 0.965926 0.258819
    outer loop
      vertex 78 14.9 3
      vertex 72 15.0474 2.45
      vertex 72 14.9 3
    endloop
  endfacet
  facet normal -1.57009e-16 0.707107 0.707107
    outer loop
      vertex 78 15.45 2.04737
      vertex 72 15.45 2.04737
      vertex 78 15.0474 2.45
    endloop
  endfacet
  facet normal -1.57009e-16 0.707107 0.707107
    outer loop
      vertex 78 15.0474 2.45
      vertex 72 15.45 2.04737
      vertex 72 15.0474 2.45
    endloop
  endfacet
  facet normal -2.14479e-16 0.258819 0.965926
    outer loop
      vertex 78 15.45 2.04737
      vertex 78 16 1.9
      vertex 72 16 1.9
    endloop
  endfacet
  facet normal -2.14479e-16 0.258819 0.965926
    outer loop
      vertex 72 15.45 2.04737
      vertex 78 15.45 2.04737
      vertex 72 16 1.9
    endloop
  endfacet
  facet normal -2.14479e-16 -0.258819 0.965926
    outer loop
      vertex 72 16 1.9
      vertex 78 16 1.9
      vertex 78 16.55 2.04737
    endloop
  endfacet
  facet normal -2.14479e-16 -0.258819 0.965926
    outer loop
      vertex 72 16.55 2.04737
      vertex 72 16 1.9
      vertex 78 16.55 2.04737
    endloop
  endfacet
  facet normal -1.57009e-16 -0.707107 0.707107
    outer loop
      vertex 72 16.55 2.04737
      vertex 78 16.55 2.04737
      vertex 78 16.9526 2.45
    endloop
  endfacet
  facet normal -1.57009e-16 -0.707107 0.707107
    outer loop
      vertex 72 16.9526 2.45
      vertex 72 16.55 2.04737
      vertex 78 16.9526 2.45
    endloop
  endfacet
  facet normal -5.74694e-17 -0.965926 0.258819
    outer loop
      vertex 72 16.9526 2.45
      vertex 78 16.9526 2.45
      vertex 78 17.1 3
    endloop
  endfacet
  facet normal -5.74694e-17 -0.965926 0.258819
    outer loop
      vertex 72 17.1 3
      vertex 72 16.9526 2.45
      vertex 78 17.1 3
    endloop
  endfacet
  facet normal 5.74694e-17 -0.965926 -0.258819
    outer loop
      vertex 72 17.1 3
      vertex 78 17.1 3
      vertex 78 16.9526 3.55
    endloop
  endfacet
  facet normal 5.74694e-17 -0.965926 -0.258819
    outer loop
      vertex 72 16.9526 3.55
      vertex 72 17.1 3
      vertex 78 16.9526 3.55
    endloop
  endfacet
  facet normal 1.57009e-16 -0.707107 -0.707107
    outer loop
      vertex 72 16.9526 3.55
      vertex 78 16.9526 3.55
      vertex 78 16.55 3.95263
    endloop
  endfacet
  facet normal 1.57009e-16 -0.707107 -0.707107
    outer loop
      vertex 72 16.55 3.95263
      vertex 72 16.9526 3.55
      vertex 78 16.55 3.95263
    endloop
  endfacet
  facet normal 2.14479e-16 -0.258819 -0.965926
    outer loop
      vertex 78 16.55 3.95263
      vertex 78 16 4.1
      vertex 72 16.55 3.95263
    endloop
  endfacet
  facet normal 2.14479e-16 -0.258819 -0.965926
    outer loop
      vertex 72 16.55 3.95263
      vertex 78 16 4.1
      vertex 72 16 4.1
    endloop
  endfacet
  facet normal 2.14479e-16 0.258819 -0.965926
    outer loop
      vertex 78 15.45 3.95263
      vertex 72 15.45 3.95263
      vertex 78 16 4.1
    endloop
  endfacet
  facet normal 2.14479e-16 0.258819 -0.965926
    outer loop
      vertex 78 16 4.1
      vertex 72 15.45 3.95263
      vertex 72 16 4.1
    endloop
  endfacet
  facet normal 1.57009e-16 0.707107 -0.707107
    outer loop
      vertex 78 15.0474 3.55
      vertex 72 15.0474 3.55
      vertex 78 15.45 3.95263
    endloop
  endfacet
  facet normal 1.57009e-16 0.707107 -0.707107
    outer loop
      vertex 78 15.45 3.95263
      vertex 72 15.0474 3.55
      vertex 72 15.45 3.95263
    endloop
  endfacet
  facet normal 5.74694e-17 0.965926 -0.258819
    outer loop
      vertex 78 14.9 3
      vertex 72 14.9 3
      vertex 78 15.0474 3.55
    endloop
  endfacet
  facet normal 5.74694e-17 0.965926 -0.258819
    outer loop
      vertex 78 15.0474 3.55
      vertex 72 14.9 3
      vertex 72 15.0474 3.55
    endloop
  endfacet
  facet normal 0.991445 -2.89825e-17 -0.130525
    outer loop
      vertex -8.5 16.5 3
      vertex -8.44889 16.5 3.38823
      vertex -8.44889 11.15 3.38823
    endloop
  endfacet
  facet normal 0.991445 -2.89825e-17 -0.130525
    outer loop
      vertex -8.5 11.15 3
      vertex -8.5 16.5 3
      vertex -8.44889 11.15 3.38823
    endloop
  endfacet
  facet normal 0.991445 2.89825e-17 0.130525
    outer loop
      vertex -8.44889 11.15 2.61177
      vertex -8.44889 16.5 2.61177
      vertex -8.5 16.5 3
    endloop
  endfacet
  facet normal 0.991445 2.89825e-17 0.130525
    outer loop
      vertex -8.5 11.15 3
      vertex -8.44889 11.15 2.61177
      vertex -8.5 16.5 3
    endloop
  endfacet
  facet normal 0.923879 -8.49731e-17 -0.382685
    outer loop
      vertex -8.44889 16.5 3.38823
      vertex -8.29904 16.5 3.75
      vertex -8.29904 11.15 3.75
    endloop
  endfacet
  facet normal 0.923879 -8.49731e-17 -0.382685
    outer loop
      vertex -8.44889 11.15 3.38823
      vertex -8.44889 16.5 3.38823
      vertex -8.29904 11.15 3.75
    endloop
  endfacet
  facet normal 0.793353 -1.35172e-16 -0.608762
    outer loop
      vertex -8.29904 16.5 3.75
      vertex -8.06066 16.5 4.06066
      vertex -8.06066 11.15 4.06066
    endloop
  endfacet
  facet normal 0.793353 -1.35172e-16 -0.608762
    outer loop
      vertex -8.29904 11.15 3.75
      vertex -8.29904 16.5 3.75
      vertex -8.06066 11.15 4.06066
    endloop
  endfacet
  facet normal 0.608762 -1.7616e-16 -0.793353
    outer loop
      vertex -7.75 16.5 4.29904
      vertex -7.75 11.15 4.29904
      vertex -8.06066 16.5 4.06066
    endloop
  endfacet
  facet normal 0.608762 -1.7616e-16 -0.793353
    outer loop
      vertex -8.06066 16.5 4.06066
      vertex -7.75 11.15 4.29904
      vertex -8.06066 11.15 4.06066
    endloop
  endfacet
  facet normal 0.382685 -2.05142e-16 -0.923879
    outer loop
      vertex -7.38823 16.5 4.44889
      vertex -7.38823 11.15 4.44889
      vertex -7.75 16.5 4.29904
    endloop
  endfacet
  facet normal 0.382685 -2.05142e-16 -0.923879
    outer loop
      vertex -7.75 16.5 4.29904
      vertex -7.38823 11.15 4.44889
      vertex -7.75 11.15 4.29904
    endloop
  endfacet
  facet normal 0.130525 -2.20145e-16 -0.991445
    outer loop
      vertex -7 16.5 4.5
      vertex -7 11.15 4.5
      vertex -7.38823 16.5 4.44889
    endloop
  endfacet
  facet normal 0.130525 -2.20145e-16 -0.991445
    outer loop
      vertex -7.38823 16.5 4.44889
      vertex -7 11.15 4.5
      vertex -7.38823 11.15 4.44889
    endloop
  endfacet
  facet normal -0.130525 -2.20145e-16 -0.991445
    outer loop
      vertex -6.61177 16.5 4.44889
      vertex -6.61177 11.15 4.44889
      vertex -7 16.5 4.5
    endloop
  endfacet
  facet normal -0.130525 -2.20145e-16 -0.991445
    outer loop
      vertex -7 16.5 4.5
      vertex -6.61177 11.15 4.44889
      vertex -7 11.15 4.5
    endloop
  endfacet
  facet normal -0.382685 -2.05142e-16 -0.923879
    outer loop
      vertex -6.25 16.5 4.29904
      vertex -6.25 11.15 4.29904
      vertex -6.61177 16.5 4.44889
    endloop
  endfacet
  facet normal -0.382685 -2.05142e-16 -0.923879
    outer loop
      vertex -6.61177 16.5 4.44889
      vertex -6.25 11.15 4.29904
      vertex -6.61177 11.15 4.44889
    endloop
  endfacet
  facet normal -0.608762 -1.7616e-16 -0.793353
    outer loop
      vertex -5.93934 16.5 4.06066
      vertex -5.93934 11.15 4.06066
      vertex -6.25 16.5 4.29904
    endloop
  endfacet
  facet normal -0.608762 -1.7616e-16 -0.793353
    outer loop
      vertex -6.25 16.5 4.29904
      vertex -5.93934 11.15 4.06066
      vertex -6.25 11.15 4.29904
    endloop
  endfacet
  facet normal -0.793353 -1.35172e-16 -0.608762
    outer loop
      vertex -5.70096 16.5 3.75
      vertex -5.70096 11.15 3.75
      vertex -5.93934 16.5 4.06066
    endloop
  endfacet
  facet normal -0.793353 -1.35172e-16 -0.608762
    outer loop
      vertex -5.93934 16.5 4.06066
      vertex -5.70096 11.15 3.75
      vertex -5.93934 11.15 4.06066
    endloop
  endfacet
  facet normal -0.923879 -8.49731e-17 -0.382685
    outer loop
      vertex -5.55111 16.5 3.38823
      vertex -5.55111 11.15 3.38823
      vertex -5.70096 16.5 3.75
    endloop
  endfacet
  facet normal -0.923879 -8.49731e-17 -0.382685
    outer loop
      vertex -5.70096 16.5 3.75
      vertex -5.55111 11.15 3.38823
      vertex -5.70096 11.15 3.75
    endloop
  endfacet
  facet normal -0.991445 -2.89825e-17 -0.130525
    outer loop
      vertex -5.5 16.5 3
      vertex -5.5 11.15 3
      vertex -5.55111 16.5 3.38823
    endloop
  endfacet
  facet normal -0.991445 -2.89825e-17 -0.130525
    outer loop
      vertex -5.55111 16.5 3.38823
      vertex -5.5 11.15 3
      vertex -5.55111 11.15 3.38823
    endloop
  endfacet
  facet normal -0.991445 2.89825e-17 0.130525
    outer loop
      vertex -5.5 16.5 3
      vertex -5.55111 16.5 2.61177
      vertex -5.5 11.15 3
    endloop
  endfacet
  facet normal -0.991445 2.89825e-17 0.130525
    outer loop
      vertex -5.5 11.15 3
      vertex -5.55111 16.5 2.61177
      vertex -5.55111 11.15 2.61177
    endloop
  endfacet
  facet normal -0.923879 8.49731e-17 0.382685
    outer loop
      vertex -5.55111 16.5 2.61177
      vertex -5.70096 16.5 2.25
      vertex -5.55111 11.15 2.61177
    endloop
  endfacet
  facet normal -0.923879 8.49731e-17 0.382685
    outer loop
      vertex -5.55111 11.15 2.61177
      vertex -5.70096 16.5 2.25
      vertex -5.70096 11.15 2.25
    endloop
  endfacet
  facet normal -0.793353 1.35172e-16 0.608762
    outer loop
      vertex -5.70096 16.5 2.25
      vertex -5.93934 16.5 1.93934
      vertex -5.70096 11.15 2.25
    endloop
  endfacet
  facet normal -0.793353 1.35172e-16 0.608762
    outer loop
      vertex -5.70096 11.15 2.25
      vertex -5.93934 16.5 1.93934
      vertex -5.93934 11.15 1.93934
    endloop
  endfacet
  facet normal -0.608762 1.7616e-16 0.793353
    outer loop
      vertex -5.93934 11.15 1.93934
      vertex -5.93934 16.5 1.93934
      vertex -6.25 16.5 1.70096
    endloop
  endfacet
  facet normal -0.608762 1.7616e-16 0.793353
    outer loop
      vertex -6.25 11.15 1.70096
      vertex -5.93934 11.15 1.93934
      vertex -6.25 16.5 1.70096
    endloop
  endfacet
  facet normal -0.382685 2.05142e-16 0.923879
    outer loop
      vertex -6.25 11.15 1.70096
      vertex -6.25 16.5 1.70096
      vertex -6.61177 16.5 1.55111
    endloop
  endfacet
  facet normal -0.382685 2.05142e-16 0.923879
    outer loop
      vertex -6.61177 11.15 1.55111
      vertex -6.25 11.15 1.70096
      vertex -6.61177 16.5 1.55111
    endloop
  endfacet
  facet normal -0.130525 2.20145e-16 0.991445
    outer loop
      vertex -6.61177 11.15 1.55111
      vertex -6.61177 16.5 1.55111
      vertex -7 16.5 1.5
    endloop
  endfacet
  facet normal -0.130525 2.20145e-16 0.991445
    outer loop
      vertex -7 11.15 1.5
      vertex -6.61177 11.15 1.55111
      vertex -7 16.5 1.5
    endloop
  endfacet
  facet normal 0.130525 2.20145e-16 0.991445
    outer loop
      vertex -7 11.15 1.5
      vertex -7 16.5 1.5
      vertex -7.38823 16.5 1.55111
    endloop
  endfacet
  facet normal 0.130525 2.20145e-16 0.991445
    outer loop
      vertex -7.38823 11.15 1.55111
      vertex -7 11.15 1.5
      vertex -7.38823 16.5 1.55111
    endloop
  endfacet
  facet normal 0.382685 2.05142e-16 0.923879
    outer loop
      vertex -7.38823 11.15 1.55111
      vertex -7.38823 16.5 1.55111
      vertex -7.75 16.5 1.70096
    endloop
  endfacet
  facet normal 0.382685 2.05142e-16 0.923879
    outer loop
      vertex -7.75 11.15 1.70096
      vertex -7.38823 11.15 1.55111
      vertex -7.75 16.5 1.70096
    endloop
  endfacet
  facet normal 0.608762 1.7616e-16 0.793353
    outer loop
      vertex -7.75 11.15 1.70096
      vertex -7.75 16.5 1.70096
      vertex -8.06066 16.5 1.93934
    endloop
  endfacet
  facet normal 0.608762 1.7616e-16 0.793353
    outer loop
      vertex -8.06066 11.15 1.93934
      vertex -7.75 11.15 1.70096
      vertex -8.06066 16.5 1.93934
    endloop
  endfacet
  facet normal 0.793353 1.35172e-16 0.608762
    outer loop
      vertex -8.06066 11.15 1.93934
      vertex -8.06066 16.5 1.93934
      vertex -8.29904 16.5 2.25
    endloop
  endfacet
  facet normal 0.793353 1.35172e-16 0.608762
    outer loop
      vertex -8.29904 11.15 2.25
      vertex -8.06066 11.15 1.93934
      vertex -8.29904 16.5 2.25
    endloop
  endfacet
  facet normal 0.923879 8.49731e-17 0.382685
    outer loop
      vertex -8.29904 11.15 2.25
      vertex -8.29904 16.5 2.25
      vertex -8.44889 16.5 2.61177
    endloop
  endfacet
  facet normal 0.923879 8.49731e-17 0.382685
    outer loop
      vertex -8.44889 11.15 2.61177
      vertex -8.29904 11.15 2.25
      vertex -8.44889 16.5 2.61177
    endloop
  endfacet
  facet normal 1 0 2.22045e-16
    outer loop
      vertex 72 5.45 3.95263
      vertex 72 5.04737 3.55
      vertex 72 4.9 3
    endloop
  endfacet
  facet normal 1 0 2.22045e-16
    outer loop
      vertex 72 5.45 2.04737
      vertex 72 5.45 3.95263
      vertex 72 5.04737 2.45
    endloop
  endfacet
  facet normal 1 0 2.22045e-16
    outer loop
      vertex 72 5.04737 2.45
      vertex 72 5.45 3.95263
      vertex 72 4.9 3
    endloop
  endfacet
  facet normal 1 0 2.22045e-16
    outer loop
      vertex 72 6 1.9
      vertex 72 5.45 3.95263
      vertex 72 5.45 2.04737
    endloop
  endfacet
  facet normal 1 0 2.22045e-16
    outer loop
      vertex 72 6.55 2.04737
      vertex 72 5.45 3.95263
      vertex 72 6 1.9
    endloop
  endfacet
  facet normal 1 0 2.22045e-16
    outer loop
      vertex 72 6.95263 2.45
      vertex 72 5.45 3.95263
      vertex 72 6.55 2.04737
    endloop
  endfacet
  facet normal 1 0 2.22045e-16
    outer loop
      vertex 72 7.1 3
      vertex 72 5.45 3.95263
      vertex 72 6.95263 2.45
    endloop
  endfacet
  facet normal 1 0 2.22045e-16
    outer loop
      vertex 72 6.95263 3.55
      vertex 72 5.45 3.95263
      vertex 72 7.1 3
    endloop
  endfacet
  facet normal 1 0 2.22045e-16
    outer loop
      vertex 72 6.55 3.95263
      vertex 72 5.45 3.95263
      vertex 72 6.95263 3.55
    endloop
  endfacet
  facet normal 1 0 2.22045e-16
    outer loop
      vertex 72 6 4.1
      vertex 72 5.45 3.95263
      vertex 72 6.55 3.95263
    endloop
  endfacet
  facet normal 1 0 2.22045e-16
    outer loop
      vertex 72 15.45 3.95263
      vertex 72 15.0474 3.55
      vertex 72 14.9 3
    endloop
  endfacet
  facet normal 1 0 2.22045e-16
    outer loop
      vertex 72 15.45 2.04737
      vertex 72 15.45 3.95263
      vertex 72 15.0474 2.45
    endloop
  endfacet
  facet normal 1 0 2.22045e-16
    outer loop
      vertex 72 15.0474 2.45
      vertex 72 15.45 3.95263
      vertex 72 14.9 3
    endloop
  endfacet
  facet normal 1 0 2.22045e-16
    outer loop
      vertex 72 16 1.9
      vertex 72 15.45 3.95263
      vertex 72 15.45 2.04737
    endloop
  endfacet
  facet normal 1 0 2.22045e-16
    outer loop
      vertex 72 16.55 2.04737
      vertex 72 15.45 3.95263
      vertex 72 16 1.9
    endloop
  endfacet
  facet normal 1 0 2.22045e-16
    outer loop
      vertex 72 16.9526 2.45
      vertex 72 15.45 3.95263
      vertex 72 16.55 2.04737
    endloop
  endfacet
  facet normal 1 0 2.22045e-16
    outer loop
      vertex 72 17.1 3
      vertex 72 15.45 3.95263
      vertex 72 16.9526 2.45
    endloop
  endfacet
  facet normal 1 0 2.22045e-16
    outer loop
      vertex 72 16.9526 3.55
      vertex 72 15.45 3.95263
      vertex 72 17.1 3
    endloop
  endfacet
  facet normal 1 0 2.22045e-16
    outer loop
      vertex 72 16.55 3.95263
      vertex 72 15.45 3.95263
      vertex 72 16.9526 3.55
    endloop
  endfacet
  facet normal 1 0 2.22045e-16
    outer loop
      vertex 72 16 4.1
      vertex 72 15.45 3.95263
      vertex 72 16.55 3.95263
    endloop
  endfacet
endsolid OpenSCAD_Model
