solid Untitled-568d69a4
facet normal 6.729759385750506e-17 3.7786164090165864e-17 -1.0
  outer loop
    vertex -15.0 0.0 0.0
    vertex -36.999999999999964 -15.499999999999885 -7.143547905985591e-15
    vertex -36.999999999999964 -9.612508945431132e-31 1.7074015812301723e-16
  endloop
endfacet
facet normal 6.729759385750506e-17 3.7786164090165864e-17 -1.0
  outer loop
    vertex -36.999999999999964 -15.499999999999885 -7.143547905985591e-15
    vertex -15.0 0.0 0.0
    vertex -24.499999999999993 -15.499999999999885 6.2072309098271104e-15
  endloop
endfacet
facet normal 6.729759385750506e-17 3.7786164090165864e-17 -1.0
  outer loop
    vertex -24.499999999999993 -15.499999999999885 6.2072309098271104e-15
    vertex -15.0 0.0 0.0
    vertex -15.000000000000004 -8.999999999999927 -4.7917399215169354e-15
  endloop
endfacet
facet normal -1.0060320978400843e-16 1.41867528840438e-16 1.0
  outer loop
    vertex -36.999999999999964 -15.499999999999881 5.999999999999998
    vertex -33.99999999999995 -12.499999999999924 5.999999999999993
    vertex -36.999999999999964 -9.816412236081195e-16 5.999999999999998
  endloop
endfacet
facet normal -1.0060320978400843e-16 1.41867528840438e-16 1.0
  outer loop
    vertex -33.99999999999995 -12.499999999999924 5.999999999999993
    vertex -36.999999999999964 -15.499999999999881 5.999999999999998
    vertex -24.499999999999993 -15.499999999999881 6.000000000000006
  endloop
endfacet
facet normal -1.0060320978400843e-16 1.41867528840438e-16 1.0
  outer loop
    vertex -33.99999999999995 -12.499999999999924 5.999999999999993
    vertex -24.499999999999993 -15.499999999999881 6.000000000000006
    vertex -27.49999999999999 -12.499999999999924 5.999999999999985
  endloop
endfacet
facet normal -1.0060320978400843e-16 1.41867528840438e-16 1.0
  outer loop
    vertex -27.49999999999999 -12.499999999999924 5.999999999999985
    vertex -17.999999999999996 -5.999999999999953 6.000000000000013
    vertex -27.499999999999996 -5.999999999999953 5.999999999999993
  endloop
endfacet
facet normal -1.0060320978400843e-16 1.41867528840438e-16 1.0
  outer loop
    vertex -17.999999999999996 -5.999999999999953 6.000000000000013
    vertex -27.49999999999999 -12.499999999999924 5.999999999999985
    vertex -24.499999999999993 -15.499999999999881 6.000000000000006
  endloop
endfacet
facet normal -1.0060320978400843e-16 1.41867528840438e-16 1.0
  outer loop
    vertex -17.999999999999996 -5.999999999999953 6.000000000000013
    vertex -24.499999999999993 -15.499999999999881 6.000000000000006
    vertex -15.0 -8.999999999999925 5.9999999999999964
  endloop
endfacet
facet normal -1.0060320978400843e-16 1.41867528840438e-16 1.0
  outer loop
    vertex -17.999999999999996 -5.999999999999953 6.000000000000013
    vertex -15.0 -8.999999999999925 5.9999999999999964
    vertex -17.999999999999996 -2.9999999999999587 6.000000000000014
  endloop
endfacet
facet normal -1.0060320978400843e-16 1.41867528840438e-16 1.0
  outer loop
    vertex -36.999999999999964 -9.816412236081195e-16 5.999999999999998
    vertex -33.99999999999995 -2.999999999999952 5.999999999999992
    vertex -15.0 -9.816412236081167e-16 6.000000000000003
  endloop
endfacet
facet normal -1.0060320978400843e-16 1.41867528840438e-16 1.0
  outer loop
    vertex -33.99999999999995 -2.999999999999952 5.999999999999992
    vertex -36.999999999999964 -9.816412236081195e-16 5.999999999999998
    vertex -33.99999999999995 -12.499999999999924 5.999999999999993
  endloop
endfacet
facet normal -1.0060320978400843e-16 1.41867528840438e-16 1.0
  outer loop
    vertex -15.0 -9.816412236081167e-16 6.000000000000003
    vertex -33.99999999999995 -2.999999999999952 5.999999999999992
    vertex -17.999999999999996 -2.9999999999999587 6.000000000000014
  endloop
endfacet
facet normal -1.0060320978400843e-16 1.41867528840438e-16 1.0
  outer loop
    vertex -15.0 -9.816412236081167e-16 6.000000000000003
    vertex -17.999999999999996 -2.9999999999999587 6.000000000000014
    vertex -15.0 -8.999999999999925 5.9999999999999964
  endloop
endfacet
facet normal -3.83905924212288e-31 1.0 -2.819966482547897e-16
  outer loop
    vertex -33.99999999999997 -12.499999999999925 0.9999999999999917
    vertex -27.49999999999999 -12.499999999999924 5.999999999999985
    vertex -27.49999999999999 -12.499999999999925 0.9999999999999827
  endloop
endfacet
facet normal -3.83905924212288e-31 1.0 -2.819966482547897e-16
  outer loop
    vertex -27.49999999999999 -12.499999999999924 5.999999999999985
    vertex -33.99999999999997 -12.499999999999925 0.9999999999999917
    vertex -33.99999999999995 -12.499999999999924 5.999999999999993
  endloop
endfacet
facet normal -1.0 3.0428251669751246e-31 -5.6399329650958e-16
  outer loop
    vertex -17.999999999999996 -5.999999999999953 6.000000000000013
    vertex -17.999999999999993 -2.9999999999999605 1.0000000000000195
    vertex -17.999999999999993 -5.999999999999956 1.0000000000000169
  endloop
endfacet
facet normal -1.0 3.0428251669751246e-31 -5.6399329650958e-16
  outer loop
    vertex -17.999999999999993 -2.9999999999999605 1.0000000000000195
    vertex -17.999999999999996 -5.999999999999953 6.000000000000013
    vertex -17.999999999999996 -2.9999999999999587 6.000000000000014
  endloop
endfacet
facet normal 1.0 -1.5666480458599546e-16 -2.3499720687899137e-16
  outer loop
    vertex -15.0 0.0 0.0
    vertex -15.0 -8.999999999999925 5.9999999999999964
    vertex -15.000000000000004 -8.999999999999927 -4.7917399215169354e-15
  endloop
endfacet
facet normal 1.0 -1.5666480458599546e-16 -2.3499720687899137e-16
  outer loop
    vertex -15.0 -8.999999999999925 5.9999999999999964
    vertex -15.0 0.0 0.0
    vertex -15.0 -9.816412236081167e-16 6.000000000000003
  endloop
endfacet
facet normal -1.0 -4.338409973150627e-16 -5.639932965095792e-16
  outer loop
    vertex -27.49999999999999 -12.499999999999924 5.999999999999985
    vertex -27.49999999999999 -5.999999999999955 0.9999999999999855
    vertex -27.49999999999999 -12.499999999999925 0.9999999999999827
  endloop
endfacet
facet normal -1.0 -4.338409973150627e-16 -5.639932965095792e-16
  outer loop
    vertex -27.49999999999999 -5.999999999999955 0.9999999999999855
    vertex -27.49999999999999 -12.499999999999924 5.999999999999985
    vertex -27.499999999999996 -5.999999999999953 5.999999999999993
  endloop
endfacet
facet normal -1.0 0.0 0.0
  outer loop
    vertex -36.999999999999964 -15.499999999999881 5.999999999999998
    vertex -36.999999999999964 -9.612508945431132e-31 1.7074015812301723e-16
    vertex -36.999999999999964 -15.499999999999885 -7.143547905985591e-15
  endloop
endfacet
facet normal -1.0 0.0 0.0
  outer loop
    vertex -36.999999999999964 -9.612508945431132e-31 1.7074015812301723e-16
    vertex -36.999999999999964 -15.499999999999881 5.999999999999998
    vertex -36.999999999999964 -9.816412236081195e-16 5.999999999999998
  endloop
endfacet
facet normal -4.1070518885324855e-31 -1.0 4.699944137579827e-16
  outer loop
    vertex -24.499999999999993 -15.499999999999885 6.2072309098271104e-15
    vertex -36.999999999999964 -15.499999999999881 5.999999999999998
    vertex -36.999999999999964 -15.499999999999885 -7.143547905985591e-15
  endloop
endfacet
facet normal -4.1070518885324855e-31 -1.0 4.699944137579827e-16
  outer loop
    vertex -36.999999999999964 -15.499999999999881 5.999999999999998
    vertex -24.499999999999993 -15.499999999999885 6.2072309098271104e-15
    vertex -24.499999999999993 -15.499999999999881 6.000000000000006
  endloop
endfacet
facet normal 1.0 2.1975417330701245e-30 -4.511946372076639e-15
  outer loop
    vertex -33.99999999999997 -2.999999999999953 1.0000000000000022
    vertex -33.99999999999995 -12.499999999999924 5.999999999999993
    vertex -33.99999999999997 -12.499999999999925 0.9999999999999917
  endloop
endfacet
facet normal 1.0 2.1975417330701245e-30 -4.511946372076639e-15
  outer loop
    vertex -33.99999999999995 -12.499999999999924 5.999999999999993
    vertex -33.99999999999997 -2.999999999999953 1.0000000000000022
    vertex -33.99999999999995 -2.999999999999952 5.999999999999992
  endloop
endfacet
facet normal -1.0967337574346185e-15 -1.7634675484359656e-15 1.0
  outer loop
    vertex -27.49999999999999 -12.499999999999925 0.9999999999999827
    vertex -33.99999999999997 -2.999999999999953 1.0000000000000022
    vertex -33.99999999999997 -12.499999999999925 0.9999999999999917
  endloop
endfacet
facet normal -1.0967337574346185e-15 -1.7634675484359656e-15 1.0
  outer loop
    vertex -33.99999999999997 -2.999999999999953 1.0000000000000022
    vertex -27.49999999999999 -12.499999999999925 0.9999999999999827
    vertex -27.49999999999999 -5.999999999999955 0.9999999999999855
  endloop
endfacet
facet normal -1.0967337574346185e-15 -1.7634675484359656e-15 1.0
  outer loop
    vertex -33.99999999999997 -2.999999999999953 1.0000000000000022
    vertex -27.49999999999999 -5.999999999999955 0.9999999999999855
    vertex -17.999999999999993 -2.9999999999999605 1.0000000000000195
  endloop
endfacet
facet normal -1.0967337574346185e-15 -1.7634675484359656e-15 1.0
  outer loop
    vertex -17.999999999999993 -2.9999999999999605 1.0000000000000195
    vertex -27.49999999999999 -5.999999999999955 0.9999999999999855
    vertex -17.999999999999993 -5.999999999999956 1.0000000000000169
  endloop
endfacet
facet normal -4.626507510430157e-16 -1.0 2.8199664825479124e-16
  outer loop
    vertex -17.999999999999993 -2.9999999999999605 1.0000000000000195
    vertex -33.99999999999995 -2.999999999999952 5.999999999999992
    vertex -33.99999999999997 -2.999999999999953 1.0000000000000022
  endloop
endfacet
facet normal -4.626507510430157e-16 -1.0 2.8199664825479124e-16
  outer loop
    vertex -33.99999999999995 -2.999999999999952 5.999999999999992
    vertex -17.999999999999993 -2.9999999999999605 1.0000000000000195
    vertex -17.999999999999996 -2.9999999999999587 6.000000000000014
  endloop
endfacet
facet normal 3.71048221387891e-17 1.0 -3.5249581031848694e-16
  outer loop
    vertex -27.499999999999996 -5.999999999999953 5.999999999999993
    vertex -17.999999999999993 -5.999999999999956 1.0000000000000169
    vertex -27.49999999999999 -5.999999999999955 0.9999999999999855
  endloop
endfacet
facet normal 3.71048221387891e-17 1.0 -3.5249581031848694e-16
  outer loop
    vertex -17.999999999999993 -5.999999999999956 1.0000000000000169
    vertex -27.499999999999996 -5.999999999999953 5.999999999999993
    vertex -17.999999999999996 -5.999999999999953 6.000000000000013
  endloop
endfacet
facet normal 0.5646839155919879 -0.8253072612498336 1.8230182737152549e-16
  outer loop
    vertex -15.0 -8.999999999999925 5.9999999999999964
    vertex -24.499999999999993 -15.499999999999885 6.2072309098271104e-15
    vertex -15.000000000000004 -8.999999999999927 -4.7917399215169354e-15
  endloop
endfacet
facet normal 0.5646839155919879 -0.8253072612498336 1.8230182737152549e-16
  outer loop
    vertex -24.499999999999993 -15.499999999999885 6.2072309098271104e-15
    vertex -15.0 -8.999999999999925 5.9999999999999964
    vertex -24.499999999999993 -15.499999999999881 6.000000000000006
  endloop
endfacet
facet normal -1.0290435833242741e-31 1.0 1.6360687060135296e-16
  outer loop
    vertex -36.999999999999964 -9.612508945431132e-31 1.7074015812301723e-16
    vertex -15.0 -9.816412236081167e-16 6.000000000000003
    vertex -15.0 0.0 0.0
  endloop
endfacet
facet normal -1.0290435833242741e-31 1.0 1.6360687060135296e-16
  outer loop
    vertex -15.0 -9.816412236081167e-16 6.000000000000003
    vertex -36.999999999999964 -9.612508945431132e-31 1.7074015812301723e-16
    vertex -36.999999999999964 -9.816412236081195e-16 5.999999999999998
  endloop
endfacet
facet normal 0.7933533402912357 0.6087614290087201 -9.462640054705471e-18
  outer loop
    vertex 2.1213203435596437 2.1213203435596415 -8.81239525796218e-17
    vertex 2.598076211353316 1.4999999999999991 1.4999999999999998
    vertex 2.598076211353316 1.4999999999999991 -8.81239525796218e-17
  endloop
endfacet
facet normal 0.7933533402912357 0.6087614290087201 -9.462640054705471e-18
  outer loop
    vertex 2.598076211353316 1.4999999999999991 1.4999999999999998
    vertex 2.1213203435596437 2.1213203435596415 -8.81239525796218e-17
    vertex 2.1213203435596437 2.1213203435596415 1.4999999999999998
  endloop
endfacet
facet normal 0.1305261922200519 0.9914448613738105 1.391306453578018e-32
  outer loop
    vertex 5.510910596163089e-16 3.0 1.4999999999999998
    vertex 0.7764571353075645 2.8977774788672046 -8.81239525796218e-17
    vertex 5.510910596163089e-16 3.0 -8.81239525796218e-17
  endloop
endfacet
facet normal 0.1305261922200519 0.9914448613738105 1.391306453578018e-32
  outer loop
    vertex 0.7764571353075645 2.8977774788672046 -8.81239525796218e-17
    vertex 5.510910596163089e-16 3.0 1.4999999999999998
    vertex 0.7764571353075645 2.8977774788672046 1.4999999999999998
  endloop
endfacet
facet normal 0.3826834323650903 -0.9238795325112867 -1.4075832974250306e-32
  outer loop
    vertex 1.4999999999999991 -2.598076211353316 1.4999999999999998
    vertex 0.7764571353075619 -2.897777478867205 -8.81239525796218e-17
    vertex 1.4999999999999991 -2.598076211353316 -8.81239525796218e-17
  endloop
endfacet
facet normal 0.3826834323650903 -0.9238795325112867 -1.4075832974250306e-32
  outer loop
    vertex 0.7764571353075619 -2.897777478867205 -8.81239525796218e-17
    vertex 1.4999999999999991 -2.598076211353316 1.4999999999999998
    vertex 0.7764571353075619 -2.897777478867205 1.4999999999999998
  endloop
endfacet
facet normal -0.9238795325112865 0.3826834323650905 -1.2755008587924404e-32
  outer loop
    vertex -2.598076211353315 1.5000000000000016 1.4999999999999998
    vertex -2.897777478867204 0.7764571353075648 -8.81239525796218e-17
    vertex -2.897777478867204 0.7764571353075648 1.4999999999999998
  endloop
endfacet
facet normal -0.9238795325112865 0.3826834323650905 -1.2755008587924404e-32
  outer loop
    vertex -2.897777478867204 0.7764571353075648 -8.81239525796218e-17
    vertex -2.598076211353315 1.5000000000000016 1.4999999999999998
    vertex -2.598076211353315 1.5000000000000016 -8.81239525796218e-17
  endloop
endfacet
facet normal -0.9914448613738105 0.1305261922200518 -1.3687810235283014e-32
  outer loop
    vertex -2.897777478867204 0.7764571353075648 1.4999999999999998
    vertex -3.0 0.0 -8.81239525796218e-17
    vertex -3.0 0.0 1.4999999999999998
  endloop
endfacet
facet normal -0.9914448613738105 0.1305261922200518 -1.3687810235283014e-32
  outer loop
    vertex -3.0 0.0 -8.81239525796218e-17
    vertex -2.897777478867204 0.7764571353075648 1.4999999999999998
    vertex -2.897777478867204 0.7764571353075648 -8.81239525796218e-17
  endloop
endfacet
facet normal 0.793353340291235 -0.6087614290087211 -9.462640054705499e-18
  outer loop
    vertex 2.5980762113533156 -1.500000000000001 -8.81239525796218e-17
    vertex 2.1213203435596424 -2.121320343559643 1.4999999999999998
    vertex 2.1213203435596424 -2.121320343559643 -8.81239525796218e-17
  endloop
endfacet
facet normal 0.793353340291235 -0.6087614290087211 -9.462640054705499e-18
  outer loop
    vertex 2.1213203435596424 -2.121320343559643 1.4999999999999998
    vertex 2.5980762113533156 -1.500000000000001 -8.81239525796218e-17
    vertex 2.5980762113533156 -1.500000000000001 1.4999999999999998
  endloop
endfacet
facet normal 0.13052619222005132 -0.9914448613738105 -1.3687810235283014e-32
  outer loop
    vertex 0.7764571353075619 -2.897777478867205 1.4999999999999998
    vertex -1.8369701987210297e-16 -3.0 -8.81239525796218e-17
    vertex 0.7764571353075619 -2.897777478867205 -8.81239525796218e-17
  endloop
endfacet
facet normal 0.13052619222005132 -0.9914448613738105 -1.3687810235283014e-32
  outer loop
    vertex -1.8369701987210297e-16 -3.0 -8.81239525796218e-17
    vertex 0.7764571353075619 -2.897777478867205 1.4999999999999998
    vertex -1.8369701987210297e-16 -3.0 1.4999999999999998
  endloop
endfacet
facet normal 0.0 0.0 -1.0
  outer loop
    vertex -2.897777478867204 0.7764571353075648 -8.81239525796218e-17
    vertex -2.897777478867205 -0.7764571353075622 -8.81239525796218e-17
    vertex -3.0 0.0 -8.81239525796218e-17
  endloop
endfacet
facet normal 0.0 0.0 -1.0
  outer loop
    vertex -2.897777478867205 -0.7764571353075622 -8.81239525796218e-17
    vertex -2.897777478867204 0.7764571353075648 -8.81239525796218e-17
    vertex -2.5980762113533156 -1.5 -8.81239525796218e-17
  endloop
endfacet
facet normal 0.0 0.0 -1.0
  outer loop
    vertex -2.5980762113533156 -1.5 -8.81239525796218e-17
    vertex -2.897777478867204 0.7764571353075648 -8.81239525796218e-17
    vertex -2.598076211353315 1.5000000000000016 -8.81239525796218e-17
  endloop
endfacet
facet normal 0.0 0.0 -1.0
  outer loop
    vertex -2.5980762113533156 -1.5 -8.81239525796218e-17
    vertex -2.598076211353315 1.5000000000000016 -8.81239525796218e-17
    vertex -2.1213203435596424 -2.1213203435596424 -8.81239525796218e-17
  endloop
endfacet
facet normal 0.0 0.0 -1.0
  outer loop
    vertex -2.1213203435596424 -2.1213203435596424 -8.81239525796218e-17
    vertex -2.598076211353315 1.5000000000000016 -8.81239525796218e-17
    vertex -2.121320343559642 2.1213203435596433 -8.81239525796218e-17
  endloop
endfacet
facet normal 0.0 0.0 -1.0
  outer loop
    vertex -2.1213203435596424 -2.1213203435596424 -8.81239525796218e-17
    vertex -2.121320343559642 2.1213203435596433 -8.81239525796218e-17
    vertex -1.5000000000000002 -2.5980762113533156 -8.81239525796218e-17
  endloop
endfacet
facet normal 0.0 0.0 -1.0
  outer loop
    vertex -1.5000000000000002 -2.5980762113533156 -8.81239525796218e-17
    vertex -2.121320343559642 2.1213203435596433 -8.81239525796218e-17
    vertex -1.4999999999999978 2.5980762113533173 -8.81239525796218e-17
  endloop
endfacet
facet normal 0.0 0.0 -1.0
  outer loop
    vertex -1.5000000000000002 -2.5980762113533156 -8.81239525796218e-17
    vertex -1.4999999999999978 2.5980762113533173 -8.81239525796218e-17
    vertex -0.7764571353075629 -2.897777478867205 -8.81239525796218e-17
  endloop
endfacet
facet normal 0.0 0.0 -1.0
  outer loop
    vertex -0.7764571353075629 -2.897777478867205 -8.81239525796218e-17
    vertex -1.4999999999999978 2.5980762113533173 -8.81239525796218e-17
    vertex -0.7764571353075608 2.897777478867205 -8.81239525796218e-17
  endloop
endfacet
facet normal 0.0 0.0 -1.0
  outer loop
    vertex -0.7764571353075629 -2.897777478867205 -8.81239525796218e-17
    vertex -0.7764571353075608 2.897777478867205 -8.81239525796218e-17
    vertex -1.8369701987210297e-16 -3.0 -8.81239525796218e-17
  endloop
endfacet
facet normal 0.0 0.0 -1.0
  outer loop
    vertex -1.8369701987210297e-16 -3.0 -8.81239525796218e-17
    vertex -0.7764571353075608 2.897777478867205 -8.81239525796218e-17
    vertex 5.510910596163089e-16 3.0 -8.81239525796218e-17
  endloop
endfacet
facet normal 0.0 0.0 -1.0
  outer loop
    vertex -1.8369701987210297e-16 -3.0 -8.81239525796218e-17
    vertex 5.510910596163089e-16 3.0 -8.81239525796218e-17
    vertex 0.7764571353075619 -2.897777478867205 -8.81239525796218e-17
  endloop
endfacet
facet normal 0.0 0.0 -1.0
  outer loop
    vertex 0.7764571353075619 -2.897777478867205 -8.81239525796218e-17
    vertex 5.510910596163089e-16 3.0 -8.81239525796218e-17
    vertex 0.7764571353075645 2.8977774788672046 -8.81239525796218e-17
  endloop
endfacet
facet normal 0.0 0.0 -1.0
  outer loop
    vertex 0.7764571353075619 -2.897777478867205 -8.81239525796218e-17
    vertex 0.7764571353075645 2.8977774788672046 -8.81239525796218e-17
    vertex 1.4999999999999991 -2.598076211353316 -8.81239525796218e-17
  endloop
endfacet
facet normal 0.0 0.0 -1.0
  outer loop
    vertex 1.4999999999999991 -2.598076211353316 -8.81239525796218e-17
    vertex 0.7764571353075645 2.8977774788672046 -8.81239525796218e-17
    vertex 1.5000000000000013 2.5980762113533156 -8.81239525796218e-17
  endloop
endfacet
facet normal 0.0 0.0 -1.0
  outer loop
    vertex 1.4999999999999991 -2.598076211353316 -8.81239525796218e-17
    vertex 1.5000000000000013 2.5980762113533156 -8.81239525796218e-17
    vertex 2.1213203435596424 -2.121320343559643 -8.81239525796218e-17
  endloop
endfacet
facet normal 0.0 0.0 -1.0
  outer loop
    vertex 2.1213203435596424 -2.121320343559643 -8.81239525796218e-17
    vertex 1.5000000000000013 2.5980762113533156 -8.81239525796218e-17
    vertex 2.1213203435596437 2.1213203435596415 -8.81239525796218e-17
  endloop
endfacet
facet normal 0.0 0.0 -1.0
  outer loop
    vertex 2.1213203435596424 -2.121320343559643 -8.81239525796218e-17
    vertex 2.1213203435596437 2.1213203435596415 -8.81239525796218e-17
    vertex 2.5980762113533156 -1.500000000000001 -8.81239525796218e-17
  endloop
endfacet
facet normal 0.0 0.0 -1.0
  outer loop
    vertex 2.5980762113533156 -1.500000000000001 -8.81239525796218e-17
    vertex 2.1213203435596437 2.1213203435596415 -8.81239525796218e-17
    vertex 2.598076211353316 1.4999999999999991 -8.81239525796218e-17
  endloop
endfacet
facet normal 0.0 0.0 -1.0
  outer loop
    vertex 2.5980762113533156 -1.500000000000001 -8.81239525796218e-17
    vertex 2.598076211353316 1.4999999999999991 -8.81239525796218e-17
    vertex 2.8977774788672046 -0.7764571353075631 -8.81239525796218e-17
  endloop
endfacet
facet normal 0.0 0.0 -1.0
  outer loop
    vertex 2.8977774788672046 -0.7764571353075631 -8.81239525796218e-17
    vertex 2.598076211353316 1.4999999999999991 -8.81239525796218e-17
    vertex 2.897777478867205 0.7764571353075611 -8.81239525796218e-17
  endloop
endfacet
facet normal 0.0 0.0 -1.0
  outer loop
    vertex 2.8977774788672046 -0.7764571353075631 -8.81239525796218e-17
    vertex 2.897777478867205 0.7764571353075611 -8.81239525796218e-17
    vertex 3.0 -3.67394039744206e-16 -8.81239525796218e-17
  endloop
endfacet
facet normal -0.13052619222005168 -0.9914448613738105 0.0
  outer loop
    vertex -1.8369701987210297e-16 -3.0 1.4999999999999998
    vertex -0.7764571353075629 -2.897777478867205 -8.81239525796218e-17
    vertex -1.8369701987210297e-16 -3.0 -8.81239525796218e-17
  endloop
endfacet
facet normal -0.13052619222005168 -0.9914448613738105 0.0
  outer loop
    vertex -0.7764571353075629 -2.897777478867205 -8.81239525796218e-17
    vertex -1.8369701987210297e-16 -3.0 1.4999999999999998
    vertex -0.7764571353075629 -2.897777478867205 1.4999999999999998
  endloop
endfacet
facet normal 0.9914448613738105 -0.13052619222005168 -0.0
  outer loop
    vertex 3.0 -3.67394039744206e-16 -8.81239525796218e-17
    vertex 2.8977774788672046 -0.7764571353075631 1.4999999999999998
    vertex 2.8977774788672046 -0.7764571353075631 -8.81239525796218e-17
  endloop
endfacet
facet normal 0.9914448613738105 -0.13052619222005168 -0.0
  outer loop
    vertex 2.8977774788672046 -0.7764571353075631 1.4999999999999998
    vertex 3.0 -3.67394039744206e-16 -8.81239525796218e-17
    vertex 3.0 -3.67394039744206e-16 1.4999999999999998
  endloop
endfacet
facet normal -0.6087614290087205 -0.7933533402912353 -9.462640054705477e-18
  outer loop
    vertex -1.5000000000000002 -2.5980762113533156 1.4999999999999998
    vertex -2.1213203435596424 -2.1213203435596424 -8.81239525796218e-17
    vertex -1.5000000000000002 -2.5980762113533156 -8.81239525796218e-17
  endloop
endfacet
facet normal -0.6087614290087205 -0.7933533402912353 -9.462640054705477e-18
  outer loop
    vertex -2.1213203435596424 -2.1213203435596424 -8.81239525796218e-17
    vertex -1.5000000000000002 -2.5980762113533156 1.4999999999999998
    vertex -2.1213203435596424 -2.1213203435596424 1.4999999999999998
  endloop
endfacet
facet normal 0.6087614290087211 0.7933533402912348 -9.462640054705487e-18
  outer loop
    vertex 1.5000000000000013 2.5980762113533156 1.4999999999999998
    vertex 2.1213203435596437 2.1213203435596415 -8.81239525796218e-17
    vertex 1.5000000000000013 2.5980762113533156 -8.81239525796218e-17
  endloop
endfacet
facet normal 0.6087614290087211 0.7933533402912348 -9.462640054705487e-18
  outer loop
    vertex 2.1213203435596437 2.1213203435596415 -8.81239525796218e-17
    vertex 1.5000000000000013 2.5980762113533156 1.4999999999999998
    vertex 2.1213203435596437 2.1213203435596415 1.4999999999999998
  endloop
endfacet
facet normal -0.7933533402912355 -0.6087614290087204 -4.202256344989711e-33
  outer loop
    vertex -2.5980762113533156 -1.5 1.4999999999999998
    vertex -2.1213203435596424 -2.1213203435596424 -8.81239525796218e-17
    vertex -2.1213203435596424 -2.1213203435596424 1.4999999999999998
  endloop
endfacet
facet normal -0.7933533402912355 -0.6087614290087204 -4.202256344989711e-33
  outer loop
    vertex -2.1213203435596424 -2.1213203435596424 -8.81239525796218e-17
    vertex -2.5980762113533156 -1.5 1.4999999999999998
    vertex -2.5980762113533156 -1.5 -8.81239525796218e-17
  endloop
endfacet
facet normal -0.7933533402912349 0.608761429008721 9.462640054705497e-18
  outer loop
    vertex -2.121320343559642 2.1213203435596433 1.4999999999999998
    vertex -2.598076211353315 1.5000000000000016 -8.81239525796218e-17
    vertex -2.598076211353315 1.5000000000000016 1.4999999999999998
  endloop
endfacet
facet normal -0.7933533402912349 0.608761429008721 9.462640054705497e-18
  outer loop
    vertex -2.598076211353315 1.5000000000000016 -8.81239525796218e-17
    vertex -2.121320343559642 2.1213203435596433 1.4999999999999998
    vertex -2.121320343559642 2.1213203435596433 -8.81239525796218e-17
  endloop
endfacet
facet normal -0.13052619222005146 0.9914448613738105 -1.346255593478585e-32
  outer loop
    vertex -0.7764571353075608 2.897777478867205 1.4999999999999998
    vertex 5.510910596163089e-16 3.0 -8.81239525796218e-17
    vertex -0.7764571353075608 2.897777478867205 -8.81239525796218e-17
  endloop
endfacet
facet normal -0.13052619222005146 0.9914448613738105 -1.346255593478585e-32
  outer loop
    vertex 5.510910596163089e-16 3.0 -8.81239525796218e-17
    vertex -0.7764571353075608 2.897777478867205 1.4999999999999998
    vertex 5.510910596163089e-16 3.0 1.4999999999999998
  endloop
endfacet
facet normal 0.9914448613738105 0.13052619222005146 1.3687810235283016e-32
  outer loop
    vertex 2.897777478867205 0.7764571353075611 -8.81239525796218e-17
    vertex 3.0 -3.67394039744206e-16 1.4999999999999998
    vertex 3.0 -3.67394039744206e-16 -8.81239525796218e-17
  endloop
endfacet
facet normal 0.9914448613738105 0.13052619222005146 1.3687810235283016e-32
  outer loop
    vertex 3.0 -3.67394039744206e-16 1.4999999999999998
    vertex 2.897777478867205 0.7764571353075611 -8.81239525796218e-17
    vertex 2.897777478867205 0.7764571353075611 1.4999999999999998
  endloop
endfacet
facet normal 0.6087614290087202 -0.7933533402912355 4.2022563449897095e-33
  outer loop
    vertex 2.1213203435596424 -2.121320343559643 1.4999999999999998
    vertex 1.4999999999999991 -2.598076211353316 -8.81239525796218e-17
    vertex 2.1213203435596424 -2.121320343559643 -8.81239525796218e-17
  endloop
endfacet
facet normal 0.6087614290087202 -0.7933533402912355 4.2022563449897095e-33
  outer loop
    vertex 1.4999999999999991 -2.598076211353316 -8.81239525796218e-17
    vertex 2.1213203435596424 -2.121320343559643 1.4999999999999998
    vertex 1.4999999999999991 -2.598076211353316 1.4999999999999998
  endloop
endfacet
facet normal -0.38268343236509017 -0.9238795325112867 1.2755008587924406e-32
  outer loop
    vertex -0.7764571353075629 -2.897777478867205 1.4999999999999998
    vertex -1.5000000000000002 -2.5980762113533156 -8.81239525796218e-17
    vertex -0.7764571353075629 -2.897777478867205 -8.81239525796218e-17
  endloop
endfacet
facet normal -0.38268343236509017 -0.9238795325112867 1.2755008587924406e-32
  outer loop
    vertex -1.5000000000000002 -2.5980762113533156 -8.81239525796218e-17
    vertex -0.7764571353075629 -2.897777478867205 1.4999999999999998
    vertex -1.5000000000000002 -2.5980762113533156 1.4999999999999998
  endloop
endfacet
facet normal -0.38268343236508917 0.9238795325112871 -1.3208243863258954e-33
  outer loop
    vertex -1.4999999999999978 2.5980762113533173 1.4999999999999998
    vertex -0.7764571353075608 2.897777478867205 -8.81239525796218e-17
    vertex -1.4999999999999978 2.5980762113533173 -8.81239525796218e-17
  endloop
endfacet
facet normal -0.38268343236508917 0.9238795325112871 -1.3208243863258954e-33
  outer loop
    vertex -0.7764571353075608 2.897777478867205 -8.81239525796218e-17
    vertex -1.4999999999999978 2.5980762113533173 1.4999999999999998
    vertex -0.7764571353075608 2.897777478867205 1.4999999999999998
  endloop
endfacet
facet normal 0.9238795325112871 0.3826834323650895 -0.0
  outer loop
    vertex 2.598076211353316 1.4999999999999991 -8.81239525796218e-17
    vertex 2.897777478867205 0.7764571353075611 1.4999999999999998
    vertex 2.897777478867205 0.7764571353075611 -8.81239525796218e-17
  endloop
endfacet
facet normal 0.9238795325112871 0.3826834323650895 -0.0
  outer loop
    vertex 2.897777478867205 0.7764571353075611 1.4999999999999998
    vertex 2.598076211353316 1.4999999999999991 -8.81239525796218e-17
    vertex 2.598076211353316 1.4999999999999991 1.4999999999999998
  endloop
endfacet
facet normal -0.6087614290087201 0.7933533402912355 9.46264005470547e-18
  outer loop
    vertex -2.121320343559642 2.1213203435596433 1.4999999999999998
    vertex -1.4999999999999978 2.5980762113533173 -8.81239525796218e-17
    vertex -2.121320343559642 2.1213203435596433 -8.81239525796218e-17
  endloop
endfacet
facet normal -0.6087614290087201 0.7933533402912355 9.46264005470547e-18
  outer loop
    vertex -1.4999999999999978 2.5980762113533173 -8.81239525796218e-17
    vertex -2.121320343559642 2.1213203435596433 1.4999999999999998
    vertex -1.4999999999999978 2.5980762113533173 1.4999999999999998
  endloop
endfacet
facet normal -0.9914448613738105 -0.13052619222005132 1.3687810235283014e-32
  outer loop
    vertex -3.0 0.0 1.4999999999999998
    vertex -2.897777478867205 -0.7764571353075622 -8.81239525796218e-17
    vertex -2.897777478867205 -0.7764571353075622 1.4999999999999998
  endloop
endfacet
facet normal -0.9914448613738105 -0.13052619222005132 1.3687810235283014e-32
  outer loop
    vertex -2.897777478867205 -0.7764571353075622 -8.81239525796218e-17
    vertex -3.0 0.0 1.4999999999999998
    vertex -3.0 0.0 -8.81239525796218e-17
  endloop
endfacet
facet normal 0.38268343236509045 0.9238795325112865 -1.1434184201598504e-32
  outer loop
    vertex 0.7764571353075645 2.8977774788672046 1.4999999999999998
    vertex 1.5000000000000013 2.5980762113533156 -8.81239525796218e-17
    vertex 0.7764571353075645 2.8977774788672046 -8.81239525796218e-17
  endloop
endfacet
facet normal 0.38268343236509045 0.9238795325112865 -1.1434184201598504e-32
  outer loop
    vertex 1.5000000000000013 2.5980762113533156 -8.81239525796218e-17
    vertex 0.7764571353075645 2.8977774788672046 1.4999999999999998
    vertex 1.5000000000000013 2.5980762113533156 1.4999999999999998
  endloop
endfacet
facet normal 0.9238795325112867 -0.38268343236508995 -5.9484642140791914e-18
  outer loop
    vertex 2.8977774788672046 -0.7764571353075631 -8.81239525796218e-17
    vertex 2.5980762113533156 -1.500000000000001 1.4999999999999998
    vertex 2.5980762113533156 -1.500000000000001 -8.81239525796218e-17
  endloop
endfacet
facet normal 0.9238795325112867 -0.38268343236508995 -5.9484642140791914e-18
  outer loop
    vertex 2.5980762113533156 -1.500000000000001 1.4999999999999998
    vertex 2.8977774788672046 -0.7764571353075631 -8.81239525796218e-17
    vertex 2.8977774788672046 -0.7764571353075631 1.4999999999999998
  endloop
endfacet
facet normal -0.9238795325112867 -0.38268343236509 1.1434184201598509e-32
  outer loop
    vertex -2.897777478867205 -0.7764571353075622 1.4999999999999998
    vertex -2.5980762113533156 -1.5 -8.81239525796218e-17
    vertex -2.5980762113533156 -1.5 1.4999999999999998
  endloop
endfacet
facet normal -0.9238795325112867 -0.38268343236509 1.1434184201598509e-32
  outer loop
    vertex -2.5980762113533156 -1.5 -8.81239525796218e-17
    vertex -2.897777478867205 -0.7764571353075622 1.4999999999999998
    vertex -2.897777478867205 -0.7764571353075622 -8.81239525796218e-17
  endloop
endfacet
facet normal -0.3826834323650904 0.9238795325112865 -4.750593628809477e-32
  outer loop
    vertex 0.3882285676537823 -1.448888739433602 1.4999999999999998
    vertex 0.7500000000000007 -1.2990381056766576 0.4999999999999999
    vertex 0.3882285676537823 -1.448888739433602 0.4999999999999999
  endloop
endfacet
facet normal -0.3826834323650904 0.9238795325112865 -4.750593628809477e-32
  outer loop
    vertex 0.7500000000000007 -1.2990381056766576 0.4999999999999999
    vertex 0.3882285676537823 -1.448888739433602 1.4999999999999998
    vertex 0.7500000000000007 -1.2990381056766576 1.4999999999999998
  endloop
endfacet
facet normal -0.13052619222005135 -0.9914448613738105 -4.619635954408017e-32
  outer loop
    vertex 0.38822856765378094 1.4488887394336025 1.4999999999999998
    vertex -9.184850993605148e-17 1.5 0.4999999999999999
    vertex 0.38822856765378094 1.4488887394336025 0.4999999999999999
  endloop
endfacet
facet normal -0.13052619222005135 -0.9914448613738105 -4.619635954408017e-32
  outer loop
    vertex -9.184850993605148e-17 1.5 0.4999999999999999
    vertex 0.38822856765378094 1.4488887394336025 1.4999999999999998
    vertex -9.184850993605148e-17 1.5 1.4999999999999998
  endloop
endfacet
facet normal -0.9238795325112867 0.38268343236508995 4.750593628809477e-32
  outer loop
    vertex 1.4488887394336025 -0.3882285676537805 1.4999999999999998
    vertex 1.299038105676658 -0.7499999999999996 0.4999999999999999
    vertex 1.299038105676658 -0.7499999999999996 1.4999999999999998
  endloop
endfacet
facet normal -0.9238795325112867 0.38268343236508995 4.750593628809477e-32
  outer loop
    vertex 1.299038105676658 -0.7499999999999996 0.4999999999999999
    vertex 1.4488887394336025 -0.3882285676537805 1.4999999999999998
    vertex 1.4488887394336025 -0.3882285676537805 0.4999999999999999
  endloop
endfacet
facet normal 0.9238795325112865 0.3826834323650905 -3.8590371680394956e-32
  outer loop
    vertex -1.448888739433602 -0.38822856765378233 0.4999999999999999
    vertex -1.2990381056766576 -0.7500000000000007 1.4999999999999998
    vertex -1.2990381056766576 -0.7500000000000007 0.4999999999999999
  endloop
endfacet
facet normal 0.9238795325112865 0.3826834323650905 -3.8590371680394956e-32
  outer loop
    vertex -1.2990381056766576 -0.7500000000000007 1.4999999999999998
    vertex -1.448888739433602 -0.38822856765378233 0.4999999999999999
    vertex -1.448888739433602 -0.38822856765378233 1.4999999999999998
  endloop
endfacet
facet normal -0.6087614290087204 -0.7933533402912355 2.2783672706481127e-32
  outer loop
    vertex 1.0606601717798212 1.0606601717798212 1.4999999999999998
    vertex 0.7499999999999996 1.299038105676658 0.4999999999999999
    vertex 1.0606601717798212 1.0606601717798212 0.4999999999999999
  endloop
endfacet
facet normal -0.6087614290087204 -0.7933533402912355 2.2783672706481127e-32
  outer loop
    vertex 0.7499999999999996 1.299038105676658 0.4999999999999999
    vertex 1.0606601717798212 1.0606601717798212 1.4999999999999998
    vertex 0.7499999999999996 1.299038105676658 1.4999999999999998
  endloop
endfacet
facet normal -0.6087614290087211 0.7933533402912348 -1.4182615164340288e-32
  outer loop
    vertex 0.7500000000000007 -1.2990381056766576 1.4999999999999998
    vertex 1.0606601717798219 -1.0606601717798205 0.4999999999999999
    vertex 0.7500000000000007 -1.2990381056766576 0.4999999999999999
  endloop
endfacet
facet normal -0.6087614290087211 0.7933533402912348 -1.4182615164340288e-32
  outer loop
    vertex 1.0606601717798219 -1.0606601717798205 0.4999999999999999
    vertex 0.7500000000000007 -1.2990381056766576 1.4999999999999998
    vertex 1.0606601717798219 -1.0606601717798205 1.4999999999999998
  endloop
endfacet
facet normal 0.3826834323650897 -0.9238795325112867 0.0
  outer loop
    vertex -0.38822856765378144 1.4488887394336023 1.4999999999999998
    vertex -0.7500000000000001 1.2990381056766578 0.4999999999999999
    vertex -0.38822856765378144 1.4488887394336023 0.4999999999999999
  endloop
endfacet
facet normal 0.3826834323650897 -0.9238795325112867 0.0
  outer loop
    vertex -0.7500000000000001 1.2990381056766578 0.4999999999999999
    vertex -0.38822856765378144 1.4488887394336023 1.4999999999999998
    vertex -0.7500000000000001 1.2990381056766578 1.4999999999999998
  endloop
endfacet
facet normal 0.3826834323650896 0.9238795325112868 6.6920222408390306e-18
  outer loop
    vertex -0.7499999999999989 -1.2990381056766584 1.4999999999999998
    vertex -0.3882285676537804 -1.4488887394336025 0.4999999999999999
    vertex -0.7499999999999989 -1.2990381056766584 0.4999999999999999
  endloop
endfacet
facet normal 0.3826834323650896 0.9238795325112868 6.6920222408390306e-18
  outer loop
    vertex -0.3882285676537804 -1.4488887394336025 0.4999999999999999
    vertex -0.7499999999999989 -1.2990381056766584 1.4999999999999998
    vertex -0.3882285676537804 -1.4488887394336025 1.4999999999999998
  endloop
endfacet
facet normal -0.38268343236508984 -0.9238795325112867 4.4577823038499045e-33
  outer loop
    vertex 0.7499999999999996 1.299038105676658 1.4999999999999998
    vertex 0.38822856765378094 1.4488887394336025 0.4999999999999999
    vertex 0.7499999999999996 1.299038105676658 0.4999999999999999
  endloop
endfacet
facet normal -0.38268343236508984 -0.9238795325112867 4.4577823038499045e-33
  outer loop
    vertex 0.38822856765378094 1.4488887394336025 0.4999999999999999
    vertex 0.7499999999999996 1.299038105676658 1.4999999999999998
    vertex 0.38822856765378094 1.4488887394336025 1.4999999999999998
  endloop
endfacet
facet normal -1.5531662036510866e-32 2.473560990999878e-32 1.0
  outer loop
    vertex -1.448888739433602 -0.38822856765378233 0.4999999999999999
    vertex -1.4488887394336025 0.38822856765378105 0.4999999999999999
    vertex -1.5 0.0 0.4999999999999999
  endloop
endfacet
facet normal -1.5531662036510866e-32 2.473560990999878e-32 1.0
  outer loop
    vertex -1.4488887394336025 0.38822856765378105 0.4999999999999999
    vertex -1.448888739433602 -0.38822856765378233 0.4999999999999999
    vertex -1.299038105676658 0.7499999999999999 0.4999999999999999
  endloop
endfacet
facet normal -1.5531662036510866e-32 2.473560990999878e-32 1.0
  outer loop
    vertex -1.299038105676658 0.7499999999999999 0.4999999999999999
    vertex -1.448888739433602 -0.38822856765378233 0.4999999999999999
    vertex -1.2990381056766576 -0.7500000000000007 0.4999999999999999
  endloop
endfacet
facet normal -1.5531662036510866e-32 2.473560990999878e-32 1.0
  outer loop
    vertex -1.299038105676658 0.7499999999999999 0.4999999999999999
    vertex -1.2990381056766576 -0.7500000000000007 0.4999999999999999
    vertex -1.0606601717798212 1.0606601717798212 0.4999999999999999
  endloop
endfacet
facet normal -1.5531662036510866e-32 2.473560990999878e-32 1.0
  outer loop
    vertex -1.0606601717798212 1.0606601717798212 0.4999999999999999
    vertex -1.2990381056766576 -0.7500000000000007 0.4999999999999999
    vertex -1.060660171779821 -1.0606601717798214 0.4999999999999999
  endloop
endfacet
facet normal -1.5531662036510866e-32 2.473560990999878e-32 1.0
  outer loop
    vertex -1.0606601717798212 1.0606601717798212 0.4999999999999999
    vertex -1.060660171779821 -1.0606601717798214 0.4999999999999999
    vertex -0.7500000000000001 1.2990381056766578 0.4999999999999999
  endloop
endfacet
facet normal -1.5531662036510866e-32 2.473560990999878e-32 1.0
  outer loop
    vertex -0.7500000000000001 1.2990381056766578 0.4999999999999999
    vertex -1.060660171779821 -1.0606601717798214 0.4999999999999999
    vertex -0.7499999999999989 -1.2990381056766584 0.4999999999999999
  endloop
endfacet
facet normal -1.5531662036510866e-32 2.473560990999878e-32 1.0
  outer loop
    vertex -0.7500000000000001 1.2990381056766578 0.4999999999999999
    vertex -0.7499999999999989 -1.2990381056766584 0.4999999999999999
    vertex -0.38822856765378144 1.4488887394336023 0.4999999999999999
  endloop
endfacet
facet normal -1.5531662036510866e-32 2.473560990999878e-32 1.0
  outer loop
    vertex -0.38822856765378144 1.4488887394336023 0.4999999999999999
    vertex -0.7499999999999989 -1.2990381056766584 0.4999999999999999
    vertex -0.3882285676537804 -1.4488887394336025 0.4999999999999999
  endloop
endfacet
facet normal -1.5531662036510866e-32 2.473560990999878e-32 1.0
  outer loop
    vertex -0.38822856765378144 1.4488887394336023 0.4999999999999999
    vertex -0.3882285676537804 -1.4488887394336025 0.4999999999999999
    vertex -9.184850993605148e-17 1.5 0.4999999999999999
  endloop
endfacet
facet normal -1.5531662036510866e-32 2.473560990999878e-32 1.0
  outer loop
    vertex -9.184850993605148e-17 1.5 0.4999999999999999
    vertex -0.3882285676537804 -1.4488887394336025 0.4999999999999999
    vertex 2.7554552980815443e-16 -1.5 0.4999999999999999
  endloop
endfacet
facet normal -1.5531662036510866e-32 2.473560990999878e-32 1.0
  outer loop
    vertex -9.184850993605148e-17 1.5 0.4999999999999999
    vertex 2.7554552980815443e-16 -1.5 0.4999999999999999
    vertex 0.38822856765378094 1.4488887394336025 0.4999999999999999
  endloop
endfacet
facet normal -1.5531662036510866e-32 2.473560990999878e-32 1.0
  outer loop
    vertex 0.38822856765378094 1.4488887394336025 0.4999999999999999
    vertex 2.7554552980815443e-16 -1.5 0.4999999999999999
    vertex 0.3882285676537823 -1.448888739433602 0.4999999999999999
  endloop
endfacet
facet normal -1.5531662036510866e-32 2.473560990999878e-32 1.0
  outer loop
    vertex 0.38822856765378094 1.4488887394336025 0.4999999999999999
    vertex 0.3882285676537823 -1.448888739433602 0.4999999999999999
    vertex 0.7499999999999996 1.299038105676658 0.4999999999999999
  endloop
endfacet
facet normal -1.5531662036510866e-32 2.473560990999878e-32 1.0
  outer loop
    vertex 0.7499999999999996 1.299038105676658 0.4999999999999999
    vertex 0.3882285676537823 -1.448888739433602 0.4999999999999999
    vertex 0.7500000000000007 -1.2990381056766576 0.4999999999999999
  endloop
endfacet
facet normal -1.5531662036510866e-32 2.473560990999878e-32 1.0
  outer loop
    vertex 0.7499999999999996 1.299038105676658 0.4999999999999999
    vertex 0.7500000000000007 -1.2990381056766576 0.4999999999999999
    vertex 1.0606601717798212 1.0606601717798212 0.4999999999999999
  endloop
endfacet
facet normal -1.5531662036510866e-32 2.473560990999878e-32 1.0
  outer loop
    vertex 1.0606601717798212 1.0606601717798212 0.4999999999999999
    vertex 0.7500000000000007 -1.2990381056766576 0.4999999999999999
    vertex 1.0606601717798219 -1.0606601717798205 0.4999999999999999
  endloop
endfacet
facet normal -1.5531662036510866e-32 2.473560990999878e-32 1.0
  outer loop
    vertex 1.0606601717798212 1.0606601717798212 0.4999999999999999
    vertex 1.0606601717798219 -1.0606601717798205 0.4999999999999999
    vertex 1.2990381056766578 0.7500000000000004 0.4999999999999999
  endloop
endfacet
facet normal -1.5531662036510866e-32 2.473560990999878e-32 1.0
  outer loop
    vertex 1.2990381056766578 0.7500000000000004 0.4999999999999999
    vertex 1.0606601717798219 -1.0606601717798205 0.4999999999999999
    vertex 1.299038105676658 -0.7499999999999996 0.4999999999999999
  endloop
endfacet
facet normal -1.5531662036510866e-32 2.473560990999878e-32 1.0
  outer loop
    vertex 1.2990381056766578 0.7500000000000004 0.4999999999999999
    vertex 1.299038105676658 -0.7499999999999996 0.4999999999999999
    vertex 1.4488887394336023 0.3882285676537815 0.4999999999999999
  endloop
endfacet
facet normal -1.5531662036510866e-32 2.473560990999878e-32 1.0
  outer loop
    vertex 1.4488887394336023 0.3882285676537815 0.4999999999999999
    vertex 1.299038105676658 -0.7499999999999996 0.4999999999999999
    vertex 1.4488887394336025 -0.3882285676537805 0.4999999999999999
  endloop
endfacet
facet normal -1.5531662036510866e-32 2.473560990999878e-32 1.0
  outer loop
    vertex 1.4488887394336023 0.3882285676537815 0.4999999999999999
    vertex 1.4488887394336025 -0.3882285676537805 0.4999999999999999
    vertex 1.5 1.8369701987210297e-16 0.4999999999999999
  endloop
endfacet
facet normal 0.7933533402912352 -0.6087614290087208 5.322735030771845e-18
  outer loop
    vertex -1.0606601717798212 1.0606601717798212 0.4999999999999999
    vertex -1.299038105676658 0.7499999999999999 1.4999999999999998
    vertex -1.299038105676658 0.7499999999999999 0.4999999999999999
  endloop
endfacet
facet normal 0.7933533402912352 -0.6087614290087208 5.322735030771845e-18
  outer loop
    vertex -1.299038105676658 0.7499999999999999 1.4999999999999998
    vertex -1.0606601717798212 1.0606601717798212 0.4999999999999999
    vertex -1.0606601717798212 1.0606601717798212 1.4999999999999998
  endloop
endfacet
facet normal 0.6087614290087209 -0.7933533402912352 -5.114890303516167e-32
  outer loop
    vertex -0.7500000000000001 1.2990381056766578 1.4999999999999998
    vertex -1.0606601717798212 1.0606601717798212 0.4999999999999999
    vertex -0.7500000000000001 1.2990381056766578 0.4999999999999999
  endloop
endfacet
facet normal 0.6087614290087209 -0.7933533402912352 -5.114890303516167e-32
  outer loop
    vertex -1.0606601717798212 1.0606601717798212 0.4999999999999999
    vertex -0.7500000000000001 1.2990381056766578 1.4999999999999998
    vertex -1.0606601717798212 1.0606601717798212 1.4999999999999998
  endloop
endfacet
facet normal 0.13052619222005102 0.9914448613738105 -2.282524163510929e-18
  outer loop
    vertex -0.3882285676537804 -1.4488887394336025 1.4999999999999998
    vertex 2.7554552980815443e-16 -1.5 0.4999999999999999
    vertex -0.3882285676537804 -1.4488887394336025 0.4999999999999999
  endloop
endfacet
facet normal 0.13052619222005102 0.9914448613738105 -2.282524163510929e-18
  outer loop
    vertex 2.7554552980815443e-16 -1.5 0.4999999999999999
    vertex -0.3882285676537804 -1.4488887394336025 1.4999999999999998
    vertex 2.7554552980815443e-16 -1.5 1.4999999999999998
  endloop
endfacet
facet normal -0.9914448613738105 -0.13052619222005168 0.0
  outer loop
    vertex 1.4488887394336023 0.3882285676537815 1.4999999999999998
    vertex 1.5 1.8369701987210297e-16 0.4999999999999999
    vertex 1.5 1.8369701987210297e-16 1.4999999999999998
  endloop
endfacet
facet normal -0.9914448613738105 -0.13052619222005168 0.0
  outer loop
    vertex 1.5 1.8369701987210297e-16 0.4999999999999999
    vertex 1.4488887394336023 0.3882285676537815 1.4999999999999998
    vertex 1.4488887394336023 0.3882285676537815 0.4999999999999999
  endloop
endfacet
facet normal 0.9914448613738105 0.13052619222005182 -2.167186537797797e-18
  outer loop
    vertex -1.5 0.0 0.4999999999999999
    vertex -1.448888739433602 -0.38822856765378233 1.4999999999999998
    vertex -1.448888739433602 -0.38822856765378233 0.4999999999999999
  endloop
endfacet
facet normal 0.9914448613738105 0.13052619222005182 -2.167186537797797e-18
  outer loop
    vertex -1.448888739433602 -0.38822856765378233 1.4999999999999998
    vertex -1.5 0.0 0.4999999999999999
    vertex -1.5 0.0 1.4999999999999998
  endloop
endfacet
facet normal -0.13052619222005188 0.9914448613738105 -2.167186537797796e-18
  outer loop
    vertex 2.7554552980815443e-16 -1.5 1.4999999999999998
    vertex 0.3882285676537823 -1.448888739433602 0.4999999999999999
    vertex 2.7554552980815443e-16 -1.5 0.4999999999999999
  endloop
endfacet
facet normal -0.13052619222005188 0.9914448613738105 -2.167186537797796e-18
  outer loop
    vertex 0.3882285676537823 -1.448888739433602 0.4999999999999999
    vertex 2.7554552980815443e-16 -1.5 1.4999999999999998
    vertex 0.3882285676537823 -1.448888739433602 1.4999999999999998
  endloop
endfacet
facet normal 0.9238795325112868 -0.38268343236508967 6.692022240839079e-18
  outer loop
    vertex -1.299038105676658 0.7499999999999999 0.4999999999999999
    vertex -1.4488887394336025 0.38822856765378105 1.4999999999999998
    vertex -1.4488887394336025 0.38822856765378105 0.4999999999999999
  endloop
endfacet
facet normal 0.9238795325112868 -0.38268343236508967 6.692022240839079e-18
  outer loop
    vertex -1.4488887394336025 0.38822856765378105 1.4999999999999998
    vertex -1.299038105676658 0.7499999999999999 0.4999999999999999
    vertex -1.299038105676658 0.7499999999999999 1.4999999999999998
  endloop
endfacet
facet normal -0.7933533402912357 0.6087614290087202 0.0
  outer loop
    vertex 1.299038105676658 -0.7499999999999996 1.4999999999999998
    vertex 1.0606601717798219 -1.0606601717798205 0.4999999999999999
    vertex 1.0606601717798219 -1.0606601717798205 1.4999999999999998
  endloop
endfacet
facet normal -0.7933533402912357 0.6087614290087202 0.0
  outer loop
    vertex 1.0606601717798219 -1.0606601717798205 0.4999999999999999
    vertex 1.299038105676658 -0.7499999999999996 1.4999999999999998
    vertex 1.299038105676658 -0.7499999999999996 0.4999999999999999
  endloop
endfacet
facet normal 0.9914448613738105 -0.13052619222005132 -4.619635954408017e-32
  outer loop
    vertex -1.4488887394336025 0.38822856765378105 0.4999999999999999
    vertex -1.5 0.0 1.4999999999999998
    vertex -1.5 0.0 0.4999999999999999
  endloop
endfacet
facet normal 0.9914448613738105 -0.13052619222005132 -4.619635954408017e-32
  outer loop
    vertex -1.5 0.0 1.4999999999999998
    vertex -1.4488887394336025 0.38822856765378105 0.4999999999999999
    vertex -1.4488887394336025 0.38822856765378105 1.4999999999999998
  endloop
endfacet
facet normal -0.9238795325112867 -0.3826834323650899 6.692022240839109e-18
  outer loop
    vertex 1.2990381056766578 0.7500000000000004 1.4999999999999998
    vertex 1.4488887394336023 0.3882285676537815 0.4999999999999999
    vertex 1.4488887394336023 0.3882285676537815 1.4999999999999998
  endloop
endfacet
facet normal -0.9238795325112867 -0.3826834323650899 6.692022240839109e-18
  outer loop
    vertex 1.4488887394336023 0.3882285676537815 0.4999999999999999
    vertex 1.2990381056766578 0.7500000000000004 1.4999999999999998
    vertex 1.2990381056766578 0.7500000000000004 0.4999999999999999
  endloop
endfacet
facet normal 0.793353340291235 0.6087614290087211 -1.4182615164340285e-32
  outer loop
    vertex -1.2990381056766576 -0.7500000000000007 0.4999999999999999
    vertex -1.060660171779821 -1.0606601717798214 1.4999999999999998
    vertex -1.060660171779821 -1.0606601717798214 0.4999999999999999
  endloop
endfacet
facet normal 0.793353340291235 0.6087614290087211 -1.4182615164340285e-32
  outer loop
    vertex -1.060660171779821 -1.0606601717798214 1.4999999999999998
    vertex -1.2990381056766576 -0.7500000000000007 0.4999999999999999
    vertex -1.2990381056766576 -0.7500000000000007 1.4999999999999998
  endloop
endfacet
facet normal 0.6087614290087201 0.7933533402912357 1.4182615164340264e-32
  outer loop
    vertex -1.060660171779821 -1.0606601717798214 1.4999999999999998
    vertex -0.7499999999999989 -1.2990381056766584 0.4999999999999999
    vertex -1.060660171779821 -1.0606601717798214 0.4999999999999999
  endloop
endfacet
facet normal 0.6087614290087201 0.7933533402912357 1.4182615164340264e-32
  outer loop
    vertex -0.7499999999999989 -1.2990381056766584 0.4999999999999999
    vertex -1.060660171779821 -1.0606601717798214 1.4999999999999998
    vertex -0.7499999999999989 -1.2990381056766584 1.4999999999999998
  endloop
endfacet
facet normal -0.0 -0.0 1.0
  outer loop
    vertex -1.5000000000000002 -2.5980762113533156 1.4999999999999998
    vertex -1.448888739433602 -0.38822856765378233 1.4999999999999998
    vertex -1.5 0.0 1.4999999999999998
  endloop
endfacet
facet normal -0.0 -0.0 1.0
  outer loop
    vertex -1.448888739433602 -0.38822856765378233 1.4999999999999998
    vertex -1.5000000000000002 -2.5980762113533156 1.4999999999999998
    vertex -0.7764571353075629 -2.897777478867205 1.4999999999999998
  endloop
endfacet
facet normal -0.0 -0.0 1.0
  outer loop
    vertex -1.448888739433602 -0.38822856765378233 1.4999999999999998
    vertex -0.7764571353075629 -2.897777478867205 1.4999999999999998
    vertex -1.2990381056766576 -0.7500000000000007 1.4999999999999998
  endloop
endfacet
facet normal -0.0 -0.0 1.0
  outer loop
    vertex -1.2990381056766576 -0.7500000000000007 1.4999999999999998
    vertex -0.7764571353075629 -2.897777478867205 1.4999999999999998
    vertex -1.060660171779821 -1.0606601717798214 1.4999999999999998
  endloop
endfacet
facet normal -0.0 -0.0 1.0
  outer loop
    vertex -1.060660171779821 -1.0606601717798214 1.4999999999999998
    vertex -0.7764571353075629 -2.897777478867205 1.4999999999999998
    vertex -0.7499999999999989 -1.2990381056766584 1.4999999999999998
  endloop
endfacet
facet normal -0.0 -0.0 1.0
  outer loop
    vertex -0.7499999999999989 -1.2990381056766584 1.4999999999999998
    vertex -0.7764571353075629 -2.897777478867205 1.4999999999999998
    vertex -1.8369701987210297e-16 -3.0 1.4999999999999998
  endloop
endfacet
facet normal -0.0 -0.0 1.0
  outer loop
    vertex -0.7499999999999989 -1.2990381056766584 1.4999999999999998
    vertex -1.8369701987210297e-16 -3.0 1.4999999999999998
    vertex -0.3882285676537804 -1.4488887394336025 1.4999999999999998
  endloop
endfacet
facet normal -0.0 -0.0 1.0
  outer loop
    vertex -0.3882285676537804 -1.4488887394336025 1.4999999999999998
    vertex -1.8369701987210297e-16 -3.0 1.4999999999999998
    vertex 2.7554552980815443e-16 -1.5 1.4999999999999998
  endloop
endfacet
facet normal -0.0 -0.0 1.0
  outer loop
    vertex 2.7554552980815443e-16 -1.5 1.4999999999999998
    vertex -1.8369701987210297e-16 -3.0 1.4999999999999998
    vertex 0.7764571353075619 -2.897777478867205 1.4999999999999998
  endloop
endfacet
facet normal -0.0 -0.0 1.0
  outer loop
    vertex 2.7554552980815443e-16 -1.5 1.4999999999999998
    vertex 0.7764571353075619 -2.897777478867205 1.4999999999999998
    vertex 0.3882285676537823 -1.448888739433602 1.4999999999999998
  endloop
endfacet
facet normal -0.0 -0.0 1.0
  outer loop
    vertex 0.3882285676537823 -1.448888739433602 1.4999999999999998
    vertex 0.7764571353075619 -2.897777478867205 1.4999999999999998
    vertex 0.7500000000000007 -1.2990381056766576 1.4999999999999998
  endloop
endfacet
facet normal -0.0 -0.0 1.0
  outer loop
    vertex 0.7500000000000007 -1.2990381056766576 1.4999999999999998
    vertex 0.7764571353075619 -2.897777478867205 1.4999999999999998
    vertex 1.0606601717798219 -1.0606601717798205 1.4999999999999998
  endloop
endfacet
facet normal -0.0 -0.0 1.0
  outer loop
    vertex 1.0606601717798219 -1.0606601717798205 1.4999999999999998
    vertex 0.7764571353075619 -2.897777478867205 1.4999999999999998
    vertex 1.4999999999999991 -2.598076211353316 1.4999999999999998
  endloop
endfacet
facet normal -0.0 -0.0 1.0
  outer loop
    vertex 1.0606601717798219 -1.0606601717798205 1.4999999999999998
    vertex 1.4999999999999991 -2.598076211353316 1.4999999999999998
    vertex 1.299038105676658 -0.7499999999999996 1.4999999999999998
  endloop
endfacet
facet normal -0.0 -0.0 1.0
  outer loop
    vertex 1.299038105676658 -0.7499999999999996 1.4999999999999998
    vertex 1.4999999999999991 -2.598076211353316 1.4999999999999998
    vertex 1.4488887394336025 -0.3882285676537805 1.4999999999999998
  endloop
endfacet
facet normal -0.0 -0.0 1.0
  outer loop
    vertex 1.4488887394336025 -0.3882285676537805 1.4999999999999998
    vertex 1.4999999999999991 -2.598076211353316 1.4999999999999998
    vertex 1.5 1.8369701987210297e-16 1.4999999999999998
  endloop
endfacet
facet normal -0.0 -0.0 1.0
  outer loop
    vertex 1.5 1.8369701987210297e-16 1.4999999999999998
    vertex 1.4999999999999991 -2.598076211353316 1.4999999999999998
    vertex 2.1213203435596424 -2.121320343559643 1.4999999999999998
  endloop
endfacet
facet normal -0.0 -0.0 1.0
  outer loop
    vertex 1.5 1.8369701987210297e-16 1.4999999999999998
    vertex 2.1213203435596424 -2.121320343559643 1.4999999999999998
    vertex 1.5000000000000013 2.5980762113533156 1.4999999999999998
  endloop
endfacet
facet normal -0.0 -0.0 1.0
  outer loop
    vertex 1.5000000000000013 2.5980762113533156 1.4999999999999998
    vertex 2.1213203435596424 -2.121320343559643 1.4999999999999998
    vertex 2.1213203435596437 2.1213203435596415 1.4999999999999998
  endloop
endfacet
facet normal -0.0 -0.0 1.0
  outer loop
    vertex 2.1213203435596437 2.1213203435596415 1.4999999999999998
    vertex 2.1213203435596424 -2.121320343559643 1.4999999999999998
    vertex 2.5980762113533156 -1.500000000000001 1.4999999999999998
  endloop
endfacet
facet normal -0.0 -0.0 1.0
  outer loop
    vertex 2.1213203435596437 2.1213203435596415 1.4999999999999998
    vertex 2.5980762113533156 -1.500000000000001 1.4999999999999998
    vertex 2.598076211353316 1.4999999999999991 1.4999999999999998
  endloop
endfacet
facet normal -0.0 -0.0 1.0
  outer loop
    vertex 2.598076211353316 1.4999999999999991 1.4999999999999998
    vertex 2.5980762113533156 -1.500000000000001 1.4999999999999998
    vertex 2.8977774788672046 -0.7764571353075631 1.4999999999999998
  endloop
endfacet
facet normal -0.0 -0.0 1.0
  outer loop
    vertex 2.598076211353316 1.4999999999999991 1.4999999999999998
    vertex 2.8977774788672046 -0.7764571353075631 1.4999999999999998
    vertex 2.897777478867205 0.7764571353075611 1.4999999999999998
  endloop
endfacet
facet normal -0.0 -0.0 1.0
  outer loop
    vertex 2.897777478867205 0.7764571353075611 1.4999999999999998
    vertex 2.8977774788672046 -0.7764571353075631 1.4999999999999998
    vertex 3.0 -3.67394039744206e-16 1.4999999999999998
  endloop
endfacet
facet normal -0.0 -0.0 1.0
  outer loop
    vertex -2.897777478867205 -0.7764571353075622 1.4999999999999998
    vertex -2.897777478867204 0.7764571353075648 1.4999999999999998
    vertex -3.0 0.0 1.4999999999999998
  endloop
endfacet
facet normal -0.0 -0.0 1.0
  outer loop
    vertex -2.897777478867204 0.7764571353075648 1.4999999999999998
    vertex -2.897777478867205 -0.7764571353075622 1.4999999999999998
    vertex -2.5980762113533156 -1.5 1.4999999999999998
  endloop
endfacet
facet normal -0.0 -0.0 1.0
  outer loop
    vertex -2.897777478867204 0.7764571353075648 1.4999999999999998
    vertex -2.5980762113533156 -1.5 1.4999999999999998
    vertex -2.598076211353315 1.5000000000000016 1.4999999999999998
  endloop
endfacet
facet normal -0.0 -0.0 1.0
  outer loop
    vertex -2.598076211353315 1.5000000000000016 1.4999999999999998
    vertex -2.5980762113533156 -1.5 1.4999999999999998
    vertex -2.1213203435596424 -2.1213203435596424 1.4999999999999998
  endloop
endfacet
facet normal -0.0 -0.0 1.0
  outer loop
    vertex -2.598076211353315 1.5000000000000016 1.4999999999999998
    vertex -2.1213203435596424 -2.1213203435596424 1.4999999999999998
    vertex -2.121320343559642 2.1213203435596433 1.4999999999999998
  endloop
endfacet
facet normal -0.0 -0.0 1.0
  outer loop
    vertex -2.121320343559642 2.1213203435596433 1.4999999999999998
    vertex -2.1213203435596424 -2.1213203435596424 1.4999999999999998
    vertex -1.5000000000000002 -2.5980762113533156 1.4999999999999998
  endloop
endfacet
facet normal -0.0 -0.0 1.0
  outer loop
    vertex -2.121320343559642 2.1213203435596433 1.4999999999999998
    vertex -1.5000000000000002 -2.5980762113533156 1.4999999999999998
    vertex -1.5 0.0 1.4999999999999998
  endloop
endfacet
facet normal -0.0 -0.0 1.0
  outer loop
    vertex -2.121320343559642 2.1213203435596433 1.4999999999999998
    vertex -1.5 0.0 1.4999999999999998
    vertex -1.4999999999999978 2.5980762113533173 1.4999999999999998
  endloop
endfacet
facet normal -0.0 -0.0 1.0
  outer loop
    vertex -1.4999999999999978 2.5980762113533173 1.4999999999999998
    vertex -1.5 0.0 1.4999999999999998
    vertex -1.4488887394336025 0.38822856765378105 1.4999999999999998
  endloop
endfacet
facet normal -0.0 -0.0 1.0
  outer loop
    vertex -1.4999999999999978 2.5980762113533173 1.4999999999999998
    vertex -1.4488887394336025 0.38822856765378105 1.4999999999999998
    vertex -0.7764571353075608 2.897777478867205 1.4999999999999998
  endloop
endfacet
facet normal -0.0 -0.0 1.0
  outer loop
    vertex -0.7764571353075608 2.897777478867205 1.4999999999999998
    vertex -1.4488887394336025 0.38822856765378105 1.4999999999999998
    vertex -1.299038105676658 0.7499999999999999 1.4999999999999998
  endloop
endfacet
facet normal -0.0 -0.0 1.0
  outer loop
    vertex -0.7764571353075608 2.897777478867205 1.4999999999999998
    vertex -1.299038105676658 0.7499999999999999 1.4999999999999998
    vertex -1.0606601717798212 1.0606601717798212 1.4999999999999998
  endloop
endfacet
facet normal -0.0 -0.0 1.0
  outer loop
    vertex -0.7764571353075608 2.897777478867205 1.4999999999999998
    vertex -1.0606601717798212 1.0606601717798212 1.4999999999999998
    vertex -0.7500000000000001 1.2990381056766578 1.4999999999999998
  endloop
endfacet
facet normal -0.0 -0.0 1.0
  outer loop
    vertex -0.7764571353075608 2.897777478867205 1.4999999999999998
    vertex -0.7500000000000001 1.2990381056766578 1.4999999999999998
    vertex 5.510910596163089e-16 3.0 1.4999999999999998
  endloop
endfacet
facet normal -0.0 -0.0 1.0
  outer loop
    vertex 5.510910596163089e-16 3.0 1.4999999999999998
    vertex -0.7500000000000001 1.2990381056766578 1.4999999999999998
    vertex -0.38822856765378144 1.4488887394336023 1.4999999999999998
  endloop
endfacet
facet normal -0.0 -0.0 1.0
  outer loop
    vertex 5.510910596163089e-16 3.0 1.4999999999999998
    vertex -0.38822856765378144 1.4488887394336023 1.4999999999999998
    vertex -9.184850993605148e-17 1.5 1.4999999999999998
  endloop
endfacet
facet normal -0.0 -0.0 1.0
  outer loop
    vertex 5.510910596163089e-16 3.0 1.4999999999999998
    vertex -9.184850993605148e-17 1.5 1.4999999999999998
    vertex 0.38822856765378094 1.4488887394336025 1.4999999999999998
  endloop
endfacet
facet normal -0.0 -0.0 1.0
  outer loop
    vertex 5.510910596163089e-16 3.0 1.4999999999999998
    vertex 0.38822856765378094 1.4488887394336025 1.4999999999999998
    vertex 0.7764571353075645 2.8977774788672046 1.4999999999999998
  endloop
endfacet
facet normal -0.0 -0.0 1.0
  outer loop
    vertex 0.7764571353075645 2.8977774788672046 1.4999999999999998
    vertex 0.38822856765378094 1.4488887394336025 1.4999999999999998
    vertex 0.7499999999999996 1.299038105676658 1.4999999999999998
  endloop
endfacet
facet normal -0.0 -0.0 1.0
  outer loop
    vertex 0.7764571353075645 2.8977774788672046 1.4999999999999998
    vertex 0.7499999999999996 1.299038105676658 1.4999999999999998
    vertex 1.0606601717798212 1.0606601717798212 1.4999999999999998
  endloop
endfacet
facet normal -0.0 -0.0 1.0
  outer loop
    vertex 0.7764571353075645 2.8977774788672046 1.4999999999999998
    vertex 1.0606601717798212 1.0606601717798212 1.4999999999999998
    vertex 1.5000000000000013 2.5980762113533156 1.4999999999999998
  endloop
endfacet
facet normal -0.0 -0.0 1.0
  outer loop
    vertex 1.5000000000000013 2.5980762113533156 1.4999999999999998
    vertex 1.0606601717798212 1.0606601717798212 1.4999999999999998
    vertex 1.2990381056766578 0.7500000000000004 1.4999999999999998
  endloop
endfacet
facet normal -0.0 -0.0 1.0
  outer loop
    vertex 1.5000000000000013 2.5980762113533156 1.4999999999999998
    vertex 1.2990381056766578 0.7500000000000004 1.4999999999999998
    vertex 1.4488887394336023 0.3882285676537815 1.4999999999999998
  endloop
endfacet
facet normal -0.0 -0.0 1.0
  outer loop
    vertex 1.5000000000000013 2.5980762113533156 1.4999999999999998
    vertex 1.4488887394336023 0.3882285676537815 1.4999999999999998
    vertex 1.5 1.8369701987210297e-16 1.4999999999999998
  endloop
endfacet
facet normal -0.793353340291235 -0.6087614290087211 -1.4182615164340285e-32
  outer loop
    vertex 1.0606601717798212 1.0606601717798212 1.4999999999999998
    vertex 1.2990381056766578 0.7500000000000004 0.4999999999999999
    vertex 1.2990381056766578 0.7500000000000004 1.4999999999999998
  endloop
endfacet
facet normal -0.793353340291235 -0.6087614290087211 -1.4182615164340285e-32
  outer loop
    vertex 1.2990381056766578 0.7500000000000004 0.4999999999999999
    vertex 1.0606601717798212 1.0606601717798212 1.4999999999999998
    vertex 1.0606601717798212 1.0606601717798212 0.4999999999999999
  endloop
endfacet
facet normal -0.9914448613738105 0.13052619222005102 0.0
  outer loop
    vertex 1.5 1.8369701987210297e-16 1.4999999999999998
    vertex 1.4488887394336025 -0.3882285676537805 0.4999999999999999
    vertex 1.4488887394336025 -0.3882285676537805 1.4999999999999998
  endloop
endfacet
facet normal -0.9914448613738105 0.13052619222005102 0.0
  outer loop
    vertex 1.4488887394336025 -0.3882285676537805 0.4999999999999999
    vertex 1.5 1.8369701987210297e-16 1.4999999999999998
    vertex 1.5 1.8369701987210297e-16 0.4999999999999999
  endloop
endfacet
facet normal 0.13052619222005168 -0.9914448613738105 0.0
  outer loop
    vertex -9.184850993605148e-17 1.5 1.4999999999999998
    vertex -0.38822856765378144 1.4488887394336023 0.4999999999999999
    vertex -9.184850993605148e-17 1.5 0.4999999999999999
  endloop
endfacet
facet normal 0.13052619222005168 -0.9914448613738105 0.0
  outer loop
    vertex -0.38822856765378144 1.4488887394336023 0.4999999999999999
    vertex -9.184850993605148e-17 1.5 1.4999999999999998
    vertex -0.38822856765378144 1.4488887394336023 1.4999999999999998
  endloop
endfacet
endsolid Untitled-568d69a4
