solid soporte lampara palo
facet normal -0.13052619222005188 -0.0 0.9914448613738104
  outer loop
    vertex -10.676476193621848 0.0 9.792592717138662
    vertex -11.0 5.000000000000001 9.749999999999998
    vertex -11.0 0.0 9.749999999999998
  endloop
endfacet
facet normal -0.13052619222005188 -0.0 0.9914448613738104
  outer loop
    vertex -11.0 5.000000000000001 9.749999999999998
    vertex -10.676476193621848 0.0 9.792592717138662
    vertex -10.676476193621848 5.000000000000001 9.792592717138662
  endloop
endfacet
facet normal -0.9238795325112873 -0.0 0.3826834323650887
  outer loop
    vertex -9.792592717138664 5.000000000000001 10.676476193621848
    vertex -9.91746824526945 0.0 10.374999999999998
    vertex -9.792592717138664 0.0 10.676476193621848
  endloop
endfacet
facet normal -0.9238795325112873 -0.0 0.3826834323650887
  outer loop
    vertex -9.91746824526945 0.0 10.374999999999998
    vertex -9.792592717138664 5.000000000000001 10.676476193621848
    vertex -9.91746824526945 5.000000000000001 10.374999999999998
  endloop
endfacet
facet normal 1.0 -0.0 -0.0
  outer loop
    vertex 0.0 -29.99999999999995 5.0759396685862156e-14
    vertex 0.0 -24.999999999999982 21.999999999999996
    vertex 0.0 -30.000000000000018 22.000000000000004
  endloop
endfacet
facet normal 1.0 -0.0 -0.0
  outer loop
    vertex 0.0 -24.999999999999982 21.999999999999996
    vertex 0.0 -29.99999999999995 5.0759396685862156e-14
    vertex 0.0 -24.999999999999993 2.8199664825478975e-15
  endloop
endfacet
facet normal -0.9914448613738104 -0.0 0.13052619222005188
  outer loop
    vertex -9.749999999999998 5.000000000000001 10.999999999999998
    vertex -9.792592717138664 0.0 10.676476193621848
    vertex -9.749999999999998 0.0 10.999999999999998
  endloop
endfacet
facet normal -0.9914448613738104 -0.0 0.13052619222005188
  outer loop
    vertex -9.792592717138664 0.0 10.676476193621848
    vertex -9.749999999999998 5.000000000000001 10.999999999999998
    vertex -9.792592717138664 5.000000000000001 10.676476193621848
  endloop
endfacet
facet normal -0.9914448613738106 -0.0 -0.13052619222005132
  outer loop
    vertex -9.792592717138664 5.000000000000001 11.32352380637815
    vertex -9.749999999999998 0.0 10.999999999999998
    vertex -9.792592717138664 0.0 11.32352380637815
  endloop
endfacet
facet normal -0.9914448613738106 -0.0 -0.13052619222005132
  outer loop
    vertex -9.749999999999998 0.0 10.999999999999998
    vertex -9.792592717138664 5.000000000000001 11.32352380637815
    vertex -9.749999999999998 5.000000000000001 10.999999999999998
  endloop
endfacet
facet normal 1.2378603828002615e-17 6.673097096556567e-17 1.0
  outer loop
    vertex -39.99999999999999 -15.5 21.999999999999993
    vertex -59.99999999999998 1.4125251694622081e-31 21.999999999999996
    vertex -59.99999999999998 -15.5 21.999999999999993
  endloop
endfacet
facet normal 1.2378603828002615e-17 6.673097096556567e-17 1.0
  outer loop
    vertex -59.99999999999998 1.4125251694622081e-31 21.999999999999996
    vertex -39.99999999999999 -15.5 21.999999999999993
    vertex -39.99999999999999 -5.359720603844893e-15 22.000000000000018
  endloop
endfacet
facet normal 1.2378603828002615e-17 6.673097096556567e-17 1.0
  outer loop
    vertex -39.99999999999999 -5.359720603844893e-15 22.000000000000018
    vertex -39.99999999999999 -15.5 21.999999999999993
    vertex -34.99999999999999 -20.5 22.0
  endloop
endfacet
facet normal 1.2378603828002615e-17 6.673097096556567e-17 1.0
  outer loop
    vertex -39.99999999999999 -5.359720603844893e-15 22.000000000000018
    vertex -34.99999999999999 -20.5 22.0
    vertex -34.99999999999999 5.000000000000001 21.999999999999993
  endloop
endfacet
facet normal 1.2378603828002615e-17 6.673097096556567e-17 1.0
  outer loop
    vertex -34.99999999999999 -30.000000000000018 22.000000000000004
    vertex -30.0 -24.999999999999982 21.999999999999996
    vertex -34.99999999999999 -20.5 22.0
  endloop
endfacet
facet normal 1.2378603828002615e-17 6.673097096556567e-17 1.0
  outer loop
    vertex -30.0 -24.999999999999982 21.999999999999996
    vertex -34.99999999999999 -30.000000000000018 22.000000000000004
    vertex 0.0 -30.000000000000018 22.000000000000004
  endloop
endfacet
facet normal 1.2378603828002615e-17 6.673097096556567e-17 1.0
  outer loop
    vertex -34.99999999999999 -20.5 22.0
    vertex -30.0 -24.999999999999982 21.999999999999996
    vertex -34.99999999999999 5.000000000000001 21.999999999999993
  endloop
endfacet
facet normal 1.2378603828002615e-17 6.673097096556567e-17 1.0
  outer loop
    vertex -30.0 -24.999999999999982 21.999999999999996
    vertex 0.0 -30.000000000000018 22.000000000000004
    vertex 0.0 -24.999999999999982 21.999999999999996
  endloop
endfacet
facet normal 1.2378603828002615e-17 6.673097096556567e-17 1.0
  outer loop
    vertex -34.99999999999999 5.000000000000001 21.999999999999993
    vertex -30.0 0.0 21.999999999999996
    vertex 0.0 5.000000000000001 21.999999999999993
  endloop
endfacet
facet normal 1.2378603828002615e-17 6.673097096556567e-17 1.0
  outer loop
    vertex -30.0 0.0 21.999999999999996
    vertex -34.99999999999999 5.000000000000001 21.999999999999993
    vertex -30.0 -24.999999999999982 21.999999999999996
  endloop
endfacet
facet normal 1.2378603828002615e-17 6.673097096556567e-17 1.0
  outer loop
    vertex 0.0 5.000000000000001 21.999999999999993
    vertex -30.0 0.0 21.999999999999996
    vertex 0.0 0.0 21.999999999999996
  endloop
endfacet
facet normal -0.9238795325112866 -0.0 -0.3826834323650902
  outer loop
    vertex -9.91746824526945 5.000000000000001 11.624999999999998
    vertex -9.792592717138664 0.0 11.32352380637815
    vertex -9.91746824526945 0.0 11.624999999999998
  endloop
endfacet
facet normal -0.9238795325112866 -0.0 -0.3826834323650902
  outer loop
    vertex -9.792592717138664 0.0 11.32352380637815
    vertex -9.91746824526945 5.000000000000001 11.624999999999998
    vertex -9.792592717138664 5.000000000000001 11.32352380637815
  endloop
endfacet
facet normal -0.6087614290087197 -0.0 0.7933533402912362
  outer loop
    vertex -10.116116523516814 0.0 10.116116523516814
    vertex -10.375 5.000000000000001 9.917468245269449
    vertex -10.375 0.0 9.917468245269449
  endloop
endfacet
facet normal -0.6087614290087197 -0.0 0.7933533402912362
  outer loop
    vertex -10.375 5.000000000000001 9.917468245269449
    vertex -10.116116523516814 0.0 10.116116523516814
    vertex -10.116116523516814 5.000000000000001 10.116116523516814
  endloop
endfacet
facet normal -0.7933533402912362 -0.0 0.6087614290087197
  outer loop
    vertex -9.91746824526945 5.000000000000001 10.374999999999998
    vertex -10.116116523516814 0.0 10.116116523516814
    vertex -9.91746824526945 0.0 10.374999999999998
  endloop
endfacet
facet normal -0.7933533402912362 -0.0 0.6087614290087197
  outer loop
    vertex -10.116116523516814 0.0 10.116116523516814
    vertex -9.91746824526945 5.000000000000001 10.374999999999998
    vertex -10.116116523516814 5.000000000000001 10.116116523516814
  endloop
endfacet
facet normal -0.0 1.0 -5.127211786450724e-16
  outer loop
    vertex -30.0 -24.999999999999982 21.999999999999996
    vertex 0.0 -24.999999999999993 2.8199664825478975e-15
    vertex -30.0 -24.999999999999993 2.8199664825478975e-15
  endloop
endfacet
facet normal -0.0 1.0 -5.127211786450724e-16
  outer loop
    vertex 0.0 -24.999999999999993 2.8199664825478975e-15
    vertex -30.0 -24.999999999999982 21.999999999999996
    vertex -11.624999999999996 -24.999999999999954 9.917468245269466
  endloop
endfacet
facet normal -0.0 1.0 -5.127211786450724e-16
  outer loop
    vertex 0.0 -24.999999999999993 2.8199664825478975e-15
    vertex -11.624999999999996 -24.999999999999954 9.917468245269466
    vertex -11.323523806378148 -24.999999999999954 9.79259271713868
  endloop
endfacet
facet normal -0.0 1.0 -5.127211786450724e-16
  outer loop
    vertex 0.0 -24.999999999999993 2.8199664825478975e-15
    vertex -11.323523806378148 -24.999999999999954 9.79259271713868
    vertex -10.999999999999998 -24.999999999999954 9.750000000000014
  endloop
endfacet
facet normal -0.0 1.0 -5.127211786450724e-16
  outer loop
    vertex -11.624999999999996 -24.999999999999954 9.917468245269466
    vertex -30.0 -24.999999999999982 21.999999999999996
    vertex -11.883883476483183 -24.99999999999996 10.11611652351683
  endloop
endfacet
facet normal -0.0 1.0 -5.127211786450724e-16
  outer loop
    vertex -11.883883476483183 -24.99999999999996 10.11611652351683
    vertex -30.0 -24.999999999999982 21.999999999999996
    vertex -12.082531754730546 -24.99999999999996 10.375000000000014
  endloop
endfacet
facet normal -0.0 1.0 -5.127211786450724e-16
  outer loop
    vertex -12.082531754730546 -24.99999999999996 10.375000000000014
    vertex -30.0 -24.999999999999982 21.999999999999996
    vertex -12.207407282861332 -24.99999999999996 10.676476193621863
  endloop
endfacet
facet normal -0.0 1.0 -5.127211786450724e-16
  outer loop
    vertex -12.207407282861332 -24.99999999999996 10.676476193621863
    vertex -30.0 -24.999999999999982 21.999999999999996
    vertex -12.249999999999996 -24.99999999999996 11.000000000000014
  endloop
endfacet
facet normal -0.0 1.0 -5.127211786450724e-16
  outer loop
    vertex -12.249999999999996 -24.99999999999996 11.000000000000014
    vertex -30.0 -24.999999999999982 21.999999999999996
    vertex -12.207407282861332 -24.99999999999996 11.323523806378164
  endloop
endfacet
facet normal -0.0 1.0 -5.127211786450724e-16
  outer loop
    vertex -12.207407282861332 -24.99999999999996 11.323523806378164
    vertex -30.0 -24.999999999999982 21.999999999999996
    vertex -12.082531754730546 -24.99999999999996 11.625000000000012
  endloop
endfacet
facet normal -0.0 1.0 -5.127211786450724e-16
  outer loop
    vertex -12.082531754730546 -24.99999999999996 11.625000000000012
    vertex -30.0 -24.999999999999982 21.999999999999996
    vertex -11.883883476483183 -24.99999999999996 11.883883476483197
  endloop
endfacet
facet normal -0.0 1.0 -5.127211786450724e-16
  outer loop
    vertex -11.883883476483183 -24.99999999999996 11.883883476483197
    vertex -30.0 -24.999999999999982 21.999999999999996
    vertex -11.624999999999998 -24.999999999999964 12.082531754730562
  endloop
endfacet
facet normal -0.0 1.0 -5.127211786450724e-16
  outer loop
    vertex -11.624999999999998 -24.999999999999964 12.082531754730562
    vertex -30.0 -24.999999999999982 21.999999999999996
    vertex -11.32352380637815 -24.999999999999964 12.207407282861348
  endloop
endfacet
facet normal -0.0 1.0 -5.127211786450724e-16
  outer loop
    vertex -11.32352380637815 -24.999999999999964 12.207407282861348
    vertex -30.0 -24.999999999999982 21.999999999999996
    vertex -10.999999999999998 -24.999999999999964 12.250000000000012
  endloop
endfacet
facet normal -0.0 1.0 -5.127211786450724e-16
  outer loop
    vertex 0.0 -24.999999999999993 2.8199664825478975e-15
    vertex -10.116116523516814 -24.99999999999996 10.11611652351683
    vertex 0.0 -24.999999999999982 21.999999999999996
  endloop
endfacet
facet normal -0.0 1.0 -5.127211786450724e-16
  outer loop
    vertex -10.116116523516814 -24.99999999999996 10.11611652351683
    vertex 0.0 -24.999999999999993 2.8199664825478975e-15
    vertex -10.374999999999998 -24.999999999999954 9.917468245269466
  endloop
endfacet
facet normal -0.0 1.0 -5.127211786450724e-16
  outer loop
    vertex -10.374999999999998 -24.999999999999954 9.917468245269466
    vertex 0.0 -24.999999999999993 2.8199664825478975e-15
    vertex -10.676476193621848 -24.999999999999954 9.79259271713868
  endloop
endfacet
facet normal -0.0 1.0 -5.127211786450724e-16
  outer loop
    vertex -10.676476193621848 -24.999999999999954 9.79259271713868
    vertex 0.0 -24.999999999999993 2.8199664825478975e-15
    vertex -10.999999999999998 -24.999999999999954 9.750000000000014
  endloop
endfacet
facet normal -0.0 1.0 -5.127211786450724e-16
  outer loop
    vertex 0.0 -24.999999999999982 21.999999999999996
    vertex -10.116116523516814 -24.99999999999996 10.11611652351683
    vertex -9.91746824526945 -24.99999999999996 10.375000000000014
  endloop
endfacet
facet normal -0.0 1.0 -5.127211786450724e-16
  outer loop
    vertex 0.0 -24.999999999999982 21.999999999999996
    vertex -9.91746824526945 -24.99999999999996 10.375000000000014
    vertex -9.792592717138664 -24.99999999999996 10.676476193621863
  endloop
endfacet
facet normal -0.0 1.0 -5.127211786450724e-16
  outer loop
    vertex 0.0 -24.999999999999982 21.999999999999996
    vertex -9.792592717138664 -24.99999999999996 10.676476193621863
    vertex -9.749999999999998 -24.99999999999996 11.000000000000014
  endloop
endfacet
facet normal -0.0 1.0 -5.127211786450724e-16
  outer loop
    vertex 0.0 -24.999999999999982 21.999999999999996
    vertex -9.749999999999998 -24.99999999999996 11.000000000000014
    vertex -9.792592717138664 -24.99999999999996 11.323523806378166
  endloop
endfacet
facet normal -0.0 1.0 -5.127211786450724e-16
  outer loop
    vertex 0.0 -24.999999999999982 21.999999999999996
    vertex -9.792592717138664 -24.99999999999996 11.323523806378166
    vertex -9.91746824526945 -24.99999999999996 11.625000000000014
  endloop
endfacet
facet normal -0.0 1.0 -5.127211786450724e-16
  outer loop
    vertex 0.0 -24.999999999999982 21.999999999999996
    vertex -9.91746824526945 -24.99999999999996 11.625000000000014
    vertex -10.116116523516814 -24.99999999999996 11.883883476483197
  endloop
endfacet
facet normal -0.0 1.0 -5.127211786450724e-16
  outer loop
    vertex 0.0 -24.999999999999982 21.999999999999996
    vertex -10.116116523516814 -24.99999999999996 11.883883476483197
    vertex -10.375 -24.999999999999964 12.082531754730562
  endloop
endfacet
facet normal -0.0 1.0 -5.127211786450724e-16
  outer loop
    vertex 0.0 -24.999999999999982 21.999999999999996
    vertex -10.375 -24.999999999999964 12.082531754730562
    vertex -10.676476193621848 -24.999999999999964 12.207407282861348
  endloop
endfacet
facet normal -0.0 1.0 -5.127211786450724e-16
  outer loop
    vertex 0.0 -24.999999999999982 21.999999999999996
    vertex -10.676476193621848 -24.999999999999964 12.207407282861348
    vertex -10.999999999999998 -24.999999999999964 12.250000000000012
  endloop
endfacet
facet normal -0.0 1.0 -5.127211786450724e-16
  outer loop
    vertex 0.0 -24.999999999999982 21.999999999999996
    vertex -10.999999999999998 -24.999999999999964 12.250000000000012
    vertex -30.0 -24.999999999999982 21.999999999999996
  endloop
endfacet
facet normal 4.3117607031903577e-16 2.1284144037879647e-16 -1.0
  outer loop
    vertex -29.999999999999996 -2.9999999999999996 19.0
    vertex -59.99999999999998 -12.5 18.999999999999982
    vertex -59.99999999999998 -2.9999999999999982 18.999999999999986
  endloop
endfacet
facet normal 4.3117607031903577e-16 2.1284144037879647e-16 -1.0
  outer loop
    vertex -59.99999999999998 -12.5 18.999999999999982
    vertex -29.999999999999996 -2.9999999999999996 19.0
    vertex -29.999999999999996 -12.5 18.999999999999996
  endloop
endfacet
facet normal 8.739906691560967e-33 1.0 1.942890293094024e-16
  outer loop
    vertex -59.99999999999999 -12.499999999999998 12.500000000000007
    vertex -29.999999999999996 -12.5 18.999999999999996
    vertex -29.999999999999996 -12.499999999999998 12.499999999999995
  endloop
endfacet
facet normal 8.739906691560967e-33 1.0 1.942890293094024e-16
  outer loop
    vertex -29.999999999999996 -12.5 18.999999999999996
    vertex -59.99999999999999 -12.499999999999998 12.500000000000007
    vertex -59.99999999999998 -12.5 18.999999999999982
  endloop
endfacet
facet normal -1.415575526276055e-16 -5.900148149854343e-16 -1.0
  outer loop
    vertex -39.99999999999999 4.537018908716086e-15 1.799742894397533e-14
    vertex -59.99999999999999 -8.999999999999996 1.973976537783528e-14
    vertex -59.99999999999999 3.92186283448836e-15 2.255973186038318e-14
  endloop
endfacet
facet normal -1.415575526276055e-16 -5.900148149854343e-16 -1.0
  outer loop
    vertex -59.99999999999999 -8.999999999999996 1.973976537783528e-14
    vertex -39.99999999999999 4.537018908716086e-15 1.799742894397533e-14
    vertex -39.99999999999999 -8.999999999999995 1.6722401241509028e-14
  endloop
endfacet
facet normal -1.415575526276055e-16 -5.900148149854343e-16 -1.0
  outer loop
    vertex -39.99999999999999 -8.999999999999995 1.6722401241509028e-14
    vertex -39.99999999999999 4.537018908716086e-15 1.799742894397533e-14
    vertex -34.99999999999999 4.9999999999999964 1.973976537783528e-14
  endloop
endfacet
facet normal -1.415575526276055e-16 -5.900148149854343e-16 -1.0
  outer loop
    vertex -39.99999999999999 -8.999999999999995 1.6722401241509028e-14
    vertex -34.99999999999999 4.9999999999999964 1.973976537783528e-14
    vertex -34.99999999999999 -13.999999999999996 2.7376055567084052e-14
  endloop
endfacet
facet normal -1.415575526276055e-16 -5.900148149854343e-16 -1.0
  outer loop
    vertex -34.99999999999999 -13.999999999999996 2.7376055567084052e-14
    vertex -34.99999999999999 4.9999999999999964 1.973976537783528e-14
    vertex -30.0 0.0 0.0
  endloop
endfacet
facet normal -1.415575526276055e-16 -5.900148149854343e-16 -1.0
  outer loop
    vertex -30.0 0.0 0.0
    vertex -34.99999999999999 4.9999999999999964 1.973976537783528e-14
    vertex 0.0 4.9999999999999964 1.973976537783528e-14
  endloop
endfacet
facet normal -1.415575526276055e-16 -5.900148149854343e-16 -1.0
  outer loop
    vertex -34.99999999999999 -13.999999999999996 2.7376055567084052e-14
    vertex -30.0 0.0 0.0
    vertex -34.99999999999999 -29.99999999999995 5.0759396685862156e-14
  endloop
endfacet
facet normal -1.415575526276055e-16 -5.900148149854343e-16 -1.0
  outer loop
    vertex -30.0 0.0 0.0
    vertex 0.0 4.9999999999999964 1.973976537783528e-14
    vertex 0.0 0.0 0.0
  endloop
endfacet
facet normal -1.415575526276055e-16 -5.900148149854343e-16 -1.0
  outer loop
    vertex -34.99999999999999 -29.99999999999995 5.0759396685862156e-14
    vertex -30.0 -24.999999999999993 2.8199664825478975e-15
    vertex 0.0 -29.99999999999995 5.0759396685862156e-14
  endloop
endfacet
facet normal -1.415575526276055e-16 -5.900148149854343e-16 -1.0
  outer loop
    vertex -30.0 -24.999999999999993 2.8199664825478975e-15
    vertex -34.99999999999999 -29.99999999999995 5.0759396685862156e-14
    vertex -30.0 0.0 0.0
  endloop
endfacet
facet normal -1.415575526276055e-16 -5.900148149854343e-16 -1.0
  outer loop
    vertex 0.0 -29.99999999999995 5.0759396685862156e-14
    vertex -30.0 -24.999999999999993 2.8199664825478975e-15
    vertex 0.0 -24.999999999999993 2.8199664825478975e-15
  endloop
endfacet
facet normal 1.1749860343949594e-17 1.0 2.313938514481906e-16
  outer loop
    vertex -59.99999999999999 -5.999999999999998 12.500000000000009
    vertex -30.0 -5.9999999999999964 3.000000000000014
    vertex -59.99999999999998 -5.9999999999999964 3.000000000000014
  endloop
endfacet
facet normal 1.1749860343949594e-17 1.0 2.313938514481906e-16
  outer loop
    vertex -30.0 -5.9999999999999964 3.000000000000014
    vertex -59.99999999999999 -5.999999999999998 12.500000000000009
    vertex -29.999999999999996 -5.999999999999998 12.499999999999996
  endloop
endfacet
facet normal -0.6087614290087197 -0.0 -0.7933533402912362
  outer loop
    vertex -10.116116523516816 5.000000000000001 11.883883476483183
    vertex -10.375 0.0 12.082531754730548
    vertex -10.375 5.000000000000001 12.082531754730548
  endloop
endfacet
facet normal -0.6087614290087197 -0.0 -0.7933533402912362
  outer loop
    vertex -10.375 0.0 12.082531754730548
    vertex -10.116116523516816 5.000000000000001 11.883883476483183
    vertex -10.116116523516816 0.0 11.883883476483183
  endloop
endfacet
facet normal 3.971890839294094e-16 -1.942890293094024e-16 1.0
  outer loop
    vertex -29.999999999999996 -12.499999999999998 12.499999999999995
    vertex -59.99999999999999 -5.999999999999998 12.500000000000009
    vertex -59.99999999999999 -12.499999999999998 12.500000000000007
  endloop
endfacet
facet normal 3.971890839294094e-16 -1.942890293094024e-16 1.0
  outer loop
    vertex -59.99999999999999 -5.999999999999998 12.500000000000009
    vertex -29.999999999999996 -12.499999999999998 12.499999999999995
    vertex -29.999999999999996 -5.999999999999998 12.499999999999996
  endloop
endfacet
facet normal -2.9374650859873946e-17 -1.0 -2.273355115267606e-16
  outer loop
    vertex -30.0 -2.999999999999996 3.000000000000017
    vertex -59.99999999999998 -2.9999999999999982 18.999999999999986
    vertex -59.99999999999998 -2.999999999999995 3.000000000000014
  endloop
endfacet
facet normal -2.9374650859873946e-17 -1.0 -2.273355115267606e-16
  outer loop
    vertex -59.99999999999998 -2.9999999999999982 18.999999999999986
    vertex -30.0 -2.999999999999996 3.000000000000017
    vertex -29.999999999999996 -2.9999999999999996 19.0
  endloop
endfacet
facet normal -0.0 1.0 -1.9227044199190234e-16
  outer loop
    vertex -34.99999999999999 5.000000000000001 21.999999999999993
    vertex 0.0 4.9999999999999964 1.973976537783528e-14
    vertex -34.99999999999999 4.9999999999999964 1.973976537783528e-14
  endloop
endfacet
facet normal -0.0 1.0 -1.9227044199190234e-16
  outer loop
    vertex 0.0 4.9999999999999964 1.973976537783528e-14
    vertex -34.99999999999999 5.000000000000001 21.999999999999993
    vertex -11.625 5.000000000000001 9.917468245269449
  endloop
endfacet
facet normal -0.0 1.0 -1.9227044199190234e-16
  outer loop
    vertex 0.0 4.9999999999999964 1.973976537783528e-14
    vertex -11.625 5.000000000000001 9.917468245269449
    vertex -11.32352380637815 5.000000000000001 9.792592717138662
  endloop
endfacet
facet normal -0.0 1.0 -1.9227044199190234e-16
  outer loop
    vertex 0.0 4.9999999999999964 1.973976537783528e-14
    vertex -11.32352380637815 5.000000000000001 9.792592717138662
    vertex -11.0 5.000000000000001 9.749999999999998
  endloop
endfacet
facet normal -0.0 1.0 -1.9227044199190234e-16
  outer loop
    vertex -11.625 5.000000000000001 9.917468245269449
    vertex -34.99999999999999 5.000000000000001 21.999999999999993
    vertex -11.883883476483184 5.000000000000001 10.116116523516814
  endloop
endfacet
facet normal -0.0 1.0 -1.9227044199190234e-16
  outer loop
    vertex -11.883883476483184 5.000000000000001 10.116116523516814
    vertex -34.99999999999999 5.000000000000001 21.999999999999993
    vertex -12.082531754730548 5.000000000000001 10.374999999999998
  endloop
endfacet
facet normal -0.0 1.0 -1.9227044199190234e-16
  outer loop
    vertex -12.082531754730548 5.000000000000001 10.374999999999998
    vertex -34.99999999999999 5.000000000000001 21.999999999999993
    vertex -12.207407282861336 5.000000000000001 10.676476193621847
  endloop
endfacet
facet normal -0.0 1.0 -1.9227044199190234e-16
  outer loop
    vertex -12.207407282861336 5.000000000000001 10.676476193621847
    vertex -34.99999999999999 5.000000000000001 21.999999999999993
    vertex -12.25 5.000000000000001 10.999999999999998
  endloop
endfacet
facet normal -0.0 1.0 -1.9227044199190234e-16
  outer loop
    vertex -12.25 5.000000000000001 10.999999999999998
    vertex -34.99999999999999 5.000000000000001 21.999999999999993
    vertex -12.207407282861336 5.000000000000001 11.323523806378148
  endloop
endfacet
facet normal -0.0 1.0 -1.9227044199190234e-16
  outer loop
    vertex -12.207407282861336 5.000000000000001 11.323523806378148
    vertex -34.99999999999999 5.000000000000001 21.999999999999993
    vertex -12.082531754730548 5.000000000000001 11.624999999999998
  endloop
endfacet
facet normal -0.0 1.0 -1.9227044199190234e-16
  outer loop
    vertex -12.082531754730548 5.000000000000001 11.624999999999998
    vertex -34.99999999999999 5.000000000000001 21.999999999999993
    vertex -11.883883476483184 5.000000000000001 11.883883476483183
  endloop
endfacet
facet normal -0.0 1.0 -1.9227044199190234e-16
  outer loop
    vertex -11.883883476483184 5.000000000000001 11.883883476483183
    vertex -34.99999999999999 5.000000000000001 21.999999999999993
    vertex -11.625 5.000000000000001 12.082531754730548
  endloop
endfacet
facet normal -0.0 1.0 -1.9227044199190234e-16
  outer loop
    vertex -11.625 5.000000000000001 12.082531754730548
    vertex -34.99999999999999 5.000000000000001 21.999999999999993
    vertex -11.323523806378152 5.000000000000001 12.207407282861334
  endloop
endfacet
facet normal -0.0 1.0 -1.9227044199190234e-16
  outer loop
    vertex -11.323523806378152 5.000000000000001 12.207407282861334
    vertex -34.99999999999999 5.000000000000001 21.999999999999993
    vertex -11.0 5.000000000000001 12.249999999999998
  endloop
endfacet
facet normal -0.0 1.0 -1.9227044199190234e-16
  outer loop
    vertex 0.0 4.9999999999999964 1.973976537783528e-14
    vertex -10.116116523516814 5.000000000000001 10.116116523516814
    vertex 0.0 5.000000000000001 21.999999999999993
  endloop
endfacet
facet normal -0.0 1.0 -1.9227044199190234e-16
  outer loop
    vertex -10.116116523516814 5.000000000000001 10.116116523516814
    vertex 0.0 4.9999999999999964 1.973976537783528e-14
    vertex -10.375 5.000000000000001 9.917468245269449
  endloop
endfacet
facet normal -0.0 1.0 -1.9227044199190234e-16
  outer loop
    vertex -10.375 5.000000000000001 9.917468245269449
    vertex 0.0 4.9999999999999964 1.973976537783528e-14
    vertex -10.676476193621848 5.000000000000001 9.792592717138662
  endloop
endfacet
facet normal -0.0 1.0 -1.9227044199190234e-16
  outer loop
    vertex -10.676476193621848 5.000000000000001 9.792592717138662
    vertex 0.0 4.9999999999999964 1.973976537783528e-14
    vertex -11.0 5.000000000000001 9.749999999999998
  endloop
endfacet
facet normal -0.0 1.0 -1.9227044199190234e-16
  outer loop
    vertex 0.0 5.000000000000001 21.999999999999993
    vertex -10.116116523516814 5.000000000000001 10.116116523516814
    vertex -9.91746824526945 5.000000000000001 10.374999999999998
  endloop
endfacet
facet normal -0.0 1.0 -1.9227044199190234e-16
  outer loop
    vertex 0.0 5.000000000000001 21.999999999999993
    vertex -9.91746824526945 5.000000000000001 10.374999999999998
    vertex -9.792592717138664 5.000000000000001 10.676476193621848
  endloop
endfacet
facet normal -0.0 1.0 -1.9227044199190234e-16
  outer loop
    vertex 0.0 5.000000000000001 21.999999999999993
    vertex -9.792592717138664 5.000000000000001 10.676476193621848
    vertex -9.749999999999998 5.000000000000001 10.999999999999998
  endloop
endfacet
facet normal -0.0 1.0 -1.9227044199190234e-16
  outer loop
    vertex 0.0 5.000000000000001 21.999999999999993
    vertex -9.749999999999998 5.000000000000001 10.999999999999998
    vertex -9.792592717138664 5.000000000000001 11.32352380637815
  endloop
endfacet
facet normal -0.0 1.0 -1.9227044199190234e-16
  outer loop
    vertex 0.0 5.000000000000001 21.999999999999993
    vertex -9.792592717138664 5.000000000000001 11.32352380637815
    vertex -9.91746824526945 5.000000000000001 11.624999999999998
  endloop
endfacet
facet normal -0.0 1.0 -1.9227044199190234e-16
  outer loop
    vertex 0.0 5.000000000000001 21.999999999999993
    vertex -9.91746824526945 5.000000000000001 11.624999999999998
    vertex -10.116116523516816 5.000000000000001 11.883883476483183
  endloop
endfacet
facet normal -0.0 1.0 -1.9227044199190234e-16
  outer loop
    vertex 0.0 5.000000000000001 21.999999999999993
    vertex -10.116116523516816 5.000000000000001 11.883883476483183
    vertex -10.375 5.000000000000001 12.082531754730548
  endloop
endfacet
facet normal -0.0 1.0 -1.9227044199190234e-16
  outer loop
    vertex 0.0 5.000000000000001 21.999999999999993
    vertex -10.375 5.000000000000001 12.082531754730548
    vertex -10.676476193621848 5.000000000000001 12.207407282861334
  endloop
endfacet
facet normal -0.0 1.0 -1.9227044199190234e-16
  outer loop
    vertex 0.0 5.000000000000001 21.999999999999993
    vertex -10.676476193621848 5.000000000000001 12.207407282861334
    vertex -11.0 5.000000000000001 12.249999999999998
  endloop
endfacet
facet normal -0.0 1.0 -1.9227044199190234e-16
  outer loop
    vertex 0.0 5.000000000000001 21.999999999999993
    vertex -11.0 5.000000000000001 12.249999999999998
    vertex -34.99999999999999 5.000000000000001 21.999999999999993
  endloop
endfacet
facet normal 0.0 -1.0 0.0
  outer loop
    vertex 0.0 0.0 0.0
    vertex -10.375 0.0 9.917468245269449
    vertex -30.0 0.0 0.0
  endloop
endfacet
facet normal 0.0 -1.0 0.0
  outer loop
    vertex -10.375 0.0 9.917468245269449
    vertex 0.0 0.0 0.0
    vertex -10.116116523516814 0.0 10.116116523516814
  endloop
endfacet
facet normal 0.0 -1.0 0.0
  outer loop
    vertex -10.116116523516814 0.0 10.116116523516814
    vertex 0.0 0.0 0.0
    vertex 0.0 0.0 21.999999999999996
  endloop
endfacet
facet normal 0.0 -1.0 0.0
  outer loop
    vertex -30.0 0.0 0.0
    vertex -10.375 0.0 9.917468245269449
    vertex -10.676476193621848 0.0 9.792592717138662
  endloop
endfacet
facet normal 0.0 -1.0 0.0
  outer loop
    vertex -30.0 0.0 0.0
    vertex -10.676476193621848 0.0 9.792592717138662
    vertex -11.0 0.0 9.749999999999998
  endloop
endfacet
facet normal 0.0 -1.0 0.0
  outer loop
    vertex -10.116116523516814 0.0 10.116116523516814
    vertex 0.0 0.0 21.999999999999996
    vertex -9.91746824526945 0.0 10.374999999999998
  endloop
endfacet
facet normal 0.0 -1.0 0.0
  outer loop
    vertex -9.91746824526945 0.0 10.374999999999998
    vertex 0.0 0.0 21.999999999999996
    vertex -9.792592717138664 0.0 10.676476193621848
  endloop
endfacet
facet normal 0.0 -1.0 0.0
  outer loop
    vertex -9.792592717138664 0.0 10.676476193621848
    vertex 0.0 0.0 21.999999999999996
    vertex -9.749999999999998 0.0 10.999999999999998
  endloop
endfacet
facet normal 0.0 -1.0 0.0
  outer loop
    vertex -9.749999999999998 0.0 10.999999999999998
    vertex 0.0 0.0 21.999999999999996
    vertex -9.792592717138664 0.0 11.32352380637815
  endloop
endfacet
facet normal 0.0 -1.0 0.0
  outer loop
    vertex -9.792592717138664 0.0 11.32352380637815
    vertex 0.0 0.0 21.999999999999996
    vertex -9.91746824526945 0.0 11.624999999999998
  endloop
endfacet
facet normal 0.0 -1.0 0.0
  outer loop
    vertex -9.91746824526945 0.0 11.624999999999998
    vertex 0.0 0.0 21.999999999999996
    vertex -10.116116523516816 0.0 11.883883476483183
  endloop
endfacet
facet normal 0.0 -1.0 0.0
  outer loop
    vertex -10.116116523516816 0.0 11.883883476483183
    vertex 0.0 0.0 21.999999999999996
    vertex -10.375 0.0 12.082531754730548
  endloop
endfacet
facet normal 0.0 -1.0 0.0
  outer loop
    vertex -10.375 0.0 12.082531754730548
    vertex 0.0 0.0 21.999999999999996
    vertex -10.676476193621848 0.0 12.207407282861334
  endloop
endfacet
facet normal 0.0 -1.0 0.0
  outer loop
    vertex -10.676476193621848 0.0 12.207407282861334
    vertex 0.0 0.0 21.999999999999996
    vertex -11.0 0.0 12.249999999999998
  endloop
endfacet
facet normal 0.0 -1.0 0.0
  outer loop
    vertex -30.0 0.0 0.0
    vertex -11.625 0.0 9.917468245269449
    vertex -30.0 0.0 21.999999999999996
  endloop
endfacet
facet normal 0.0 -1.0 0.0
  outer loop
    vertex -11.625 0.0 9.917468245269449
    vertex -30.0 0.0 0.0
    vertex -11.32352380637815 0.0 9.792592717138662
  endloop
endfacet
facet normal 0.0 -1.0 0.0
  outer loop
    vertex -11.32352380637815 0.0 9.792592717138662
    vertex -30.0 0.0 0.0
    vertex -11.0 0.0 9.749999999999998
  endloop
endfacet
facet normal 0.0 -1.0 0.0
  outer loop
    vertex -30.0 0.0 21.999999999999996
    vertex -11.625 0.0 9.917468245269449
    vertex -11.883883476483184 0.0 10.116116523516814
  endloop
endfacet
facet normal 0.0 -1.0 0.0
  outer loop
    vertex -30.0 0.0 21.999999999999996
    vertex -11.883883476483184 0.0 10.116116523516814
    vertex -12.082531754730548 0.0 10.374999999999998
  endloop
endfacet
facet normal 0.0 -1.0 0.0
  outer loop
    vertex -30.0 0.0 21.999999999999996
    vertex -12.082531754730548 0.0 10.374999999999998
    vertex -12.207407282861336 0.0 10.676476193621847
  endloop
endfacet
facet normal 0.0 -1.0 0.0
  outer loop
    vertex -30.0 0.0 21.999999999999996
    vertex -12.207407282861336 0.0 10.676476193621847
    vertex -12.25 0.0 10.999999999999998
  endloop
endfacet
facet normal 0.0 -1.0 0.0
  outer loop
    vertex -30.0 0.0 21.999999999999996
    vertex -12.25 0.0 10.999999999999998
    vertex -12.207407282861336 0.0 11.323523806378148
  endloop
endfacet
facet normal 0.0 -1.0 0.0
  outer loop
    vertex -30.0 0.0 21.999999999999996
    vertex -12.207407282861336 0.0 11.323523806378148
    vertex -12.082531754730548 0.0 11.624999999999998
  endloop
endfacet
facet normal 0.0 -1.0 0.0
  outer loop
    vertex -30.0 0.0 21.999999999999996
    vertex -12.082531754730548 0.0 11.624999999999998
    vertex -11.883883476483184 0.0 11.883883476483183
  endloop
endfacet
facet normal 0.0 -1.0 0.0
  outer loop
    vertex -30.0 0.0 21.999999999999996
    vertex -11.883883476483184 0.0 11.883883476483183
    vertex -11.625 0.0 12.082531754730548
  endloop
endfacet
facet normal 0.0 -1.0 0.0
  outer loop
    vertex -30.0 0.0 21.999999999999996
    vertex -11.625 0.0 12.082531754730548
    vertex -11.323523806378152 0.0 12.207407282861334
  endloop
endfacet
facet normal 0.0 -1.0 0.0
  outer loop
    vertex -30.0 0.0 21.999999999999996
    vertex -11.323523806378152 0.0 12.207407282861334
    vertex -11.0 0.0 12.249999999999998
  endloop
endfacet
facet normal 0.0 -1.0 0.0
  outer loop
    vertex -30.0 0.0 21.999999999999996
    vertex -11.0 0.0 12.249999999999998
    vertex 0.0 0.0 21.999999999999996
  endloop
endfacet
facet normal 0.0 -1.0 -3.0763270718704403e-15
  outer loop
    vertex 0.0 -29.99999999999995 5.0759396685862156e-14
    vertex -10.676476193621848 -29.99999999999998 9.792592717138671
    vertex -34.99999999999999 -29.99999999999995 5.0759396685862156e-14
  endloop
endfacet
facet normal 0.0 -1.0 -3.0763270718704403e-15
  outer loop
    vertex -10.676476193621848 -29.99999999999998 9.792592717138671
    vertex 0.0 -29.99999999999995 5.0759396685862156e-14
    vertex -10.374999999999998 -29.99999999999998 9.917468245269458
  endloop
endfacet
facet normal 0.0 -1.0 -3.0763270718704403e-15
  outer loop
    vertex -10.374999999999998 -29.99999999999998 9.917468245269458
    vertex 0.0 -29.99999999999995 5.0759396685862156e-14
    vertex -10.116116523516814 -29.999999999999986 10.116116523516821
  endloop
endfacet
facet normal 0.0 -1.0 -3.0763270718704403e-15
  outer loop
    vertex -10.116116523516814 -29.999999999999986 10.116116523516821
    vertex 0.0 -29.99999999999995 5.0759396685862156e-14
    vertex 0.0 -30.000000000000018 22.000000000000004
  endloop
endfacet
facet normal 0.0 -1.0 -3.0763270718704403e-15
  outer loop
    vertex -34.99999999999999 -29.99999999999995 5.0759396685862156e-14
    vertex -10.676476193621848 -29.99999999999998 9.792592717138671
    vertex -10.999999999999998 -29.99999999999998 9.750000000000005
  endloop
endfacet
facet normal 0.0 -1.0 -3.0763270718704403e-15
  outer loop
    vertex -10.116116523516814 -29.999999999999986 10.116116523516821
    vertex 0.0 -30.000000000000018 22.000000000000004
    vertex -9.91746824526945 -29.999999999999986 10.375000000000007
  endloop
endfacet
facet normal 0.0 -1.0 -3.0763270718704403e-15
  outer loop
    vertex -9.91746824526945 -29.999999999999986 10.375000000000007
    vertex 0.0 -30.000000000000018 22.000000000000004
    vertex -9.792592717138664 -29.999999999999986 10.676476193621854
  endloop
endfacet
facet normal 0.0 -1.0 -3.0763270718704403e-15
  outer loop
    vertex -9.792592717138664 -29.999999999999986 10.676476193621854
    vertex 0.0 -30.000000000000018 22.000000000000004
    vertex -9.749999999999998 -29.999999999999986 11.000000000000005
  endloop
endfacet
facet normal 0.0 -1.0 -3.0763270718704403e-15
  outer loop
    vertex -9.749999999999998 -29.999999999999986 11.000000000000005
    vertex 0.0 -30.000000000000018 22.000000000000004
    vertex -9.792592717138664 -29.999999999999986 11.323523806378157
  endloop
endfacet
facet normal 0.0 -1.0 -3.0763270718704403e-15
  outer loop
    vertex -9.792592717138664 -29.999999999999986 11.323523806378157
    vertex 0.0 -30.000000000000018 22.000000000000004
    vertex -9.91746824526945 -29.999999999999986 11.625000000000005
  endloop
endfacet
facet normal 0.0 -1.0 -3.0763270718704403e-15
  outer loop
    vertex -9.91746824526945 -29.999999999999986 11.625000000000005
    vertex 0.0 -30.000000000000018 22.000000000000004
    vertex -10.116116523516814 -29.999999999999986 11.88388347648319
  endloop
endfacet
facet normal 0.0 -1.0 -3.0763270718704403e-15
  outer loop
    vertex -10.116116523516814 -29.999999999999986 11.88388347648319
    vertex 0.0 -30.000000000000018 22.000000000000004
    vertex -10.375 -29.99999999999999 12.082531754730553
  endloop
endfacet
facet normal 0.0 -1.0 -3.0763270718704403e-15
  outer loop
    vertex -10.375 -29.99999999999999 12.082531754730553
    vertex 0.0 -30.000000000000018 22.000000000000004
    vertex -10.676476193621848 -29.99999999999999 12.20740728286134
  endloop
endfacet
facet normal 0.0 -1.0 -3.0763270718704403e-15
  outer loop
    vertex -10.676476193621848 -29.99999999999999 12.20740728286134
    vertex 0.0 -30.000000000000018 22.000000000000004
    vertex -10.999999999999998 -29.99999999999999 12.250000000000004
  endloop
endfacet
facet normal 0.0 -1.0 -3.0763270718704403e-15
  outer loop
    vertex -34.99999999999999 -29.99999999999995 5.0759396685862156e-14
    vertex -11.624999999999996 -29.99999999999998 9.917468245269458
    vertex -34.99999999999999 -30.000000000000018 22.000000000000004
  endloop
endfacet
facet normal 0.0 -1.0 -3.0763270718704403e-15
  outer loop
    vertex -11.624999999999996 -29.99999999999998 9.917468245269458
    vertex -34.99999999999999 -29.99999999999995 5.0759396685862156e-14
    vertex -11.323523806378148 -29.99999999999998 9.792592717138671
  endloop
endfacet
facet normal 0.0 -1.0 -3.0763270718704403e-15
  outer loop
    vertex -11.323523806378148 -29.99999999999998 9.792592717138671
    vertex -34.99999999999999 -29.99999999999995 5.0759396685862156e-14
    vertex -10.999999999999998 -29.99999999999998 9.750000000000005
  endloop
endfacet
facet normal 0.0 -1.0 -3.0763270718704403e-15
  outer loop
    vertex -34.99999999999999 -30.000000000000018 22.000000000000004
    vertex -11.624999999999996 -29.99999999999998 9.917468245269458
    vertex -11.883883476483183 -29.999999999999986 10.116116523516821
  endloop
endfacet
facet normal 0.0 -1.0 -3.0763270718704403e-15
  outer loop
    vertex -34.99999999999999 -30.000000000000018 22.000000000000004
    vertex -11.883883476483183 -29.999999999999986 10.116116523516821
    vertex -12.082531754730546 -29.999999999999986 10.375000000000005
  endloop
endfacet
facet normal 0.0 -1.0 -3.0763270718704403e-15
  outer loop
    vertex -34.99999999999999 -30.000000000000018 22.000000000000004
    vertex -12.082531754730546 -29.999999999999986 10.375000000000005
    vertex -12.207407282861332 -29.999999999999986 10.676476193621854
  endloop
endfacet
facet normal 0.0 -1.0 -3.0763270718704403e-15
  outer loop
    vertex -34.99999999999999 -30.000000000000018 22.000000000000004
    vertex -12.207407282861332 -29.999999999999986 10.676476193621854
    vertex -12.249999999999996 -29.999999999999986 11.000000000000005
  endloop
endfacet
facet normal 0.0 -1.0 -3.0763270718704403e-15
  outer loop
    vertex -34.99999999999999 -30.000000000000018 22.000000000000004
    vertex -12.249999999999996 -29.999999999999986 11.000000000000005
    vertex -12.207407282861332 -29.999999999999986 11.323523806378155
  endloop
endfacet
facet normal 0.0 -1.0 -3.0763270718704403e-15
  outer loop
    vertex -34.99999999999999 -30.000000000000018 22.000000000000004
    vertex -12.207407282861332 -29.999999999999986 11.323523806378155
    vertex -12.082531754730546 -29.999999999999986 11.625000000000004
  endloop
endfacet
facet normal 0.0 -1.0 -3.0763270718704403e-15
  outer loop
    vertex -34.99999999999999 -30.000000000000018 22.000000000000004
    vertex -12.082531754730546 -29.999999999999986 11.625000000000004
    vertex -11.883883476483183 -29.999999999999986 11.88388347648319
  endloop
endfacet
facet normal 0.0 -1.0 -3.0763270718704403e-15
  outer loop
    vertex -34.99999999999999 -30.000000000000018 22.000000000000004
    vertex -11.883883476483183 -29.999999999999986 11.88388347648319
    vertex -11.624999999999998 -29.99999999999999 12.082531754730553
  endloop
endfacet
facet normal 0.0 -1.0 -3.0763270718704403e-15
  outer loop
    vertex -34.99999999999999 -30.000000000000018 22.000000000000004
    vertex -11.624999999999998 -29.99999999999999 12.082531754730553
    vertex -11.32352380637815 -29.99999999999999 12.20740728286134
  endloop
endfacet
facet normal 0.0 -1.0 -3.0763270718704403e-15
  outer loop
    vertex -34.99999999999999 -30.000000000000018 22.000000000000004
    vertex -11.32352380637815 -29.99999999999999 12.20740728286134
    vertex -10.999999999999998 -29.99999999999999 12.250000000000004
  endloop
endfacet
facet normal 0.0 -1.0 -3.0763270718704403e-15
  outer loop
    vertex -34.99999999999999 -30.000000000000018 22.000000000000004
    vertex -10.999999999999998 -29.99999999999999 12.250000000000004
    vertex 0.0 -30.000000000000018 22.000000000000004
  endloop
endfacet
facet normal -7.280532982857356e-17 -1.9428902930940244e-16 1.0
  outer loop
    vertex -30.0 -5.9999999999999964 3.000000000000014
    vertex -59.99999999999998 -2.999999999999995 3.000000000000014
    vertex -59.99999999999998 -5.9999999999999964 3.000000000000014
  endloop
endfacet
facet normal -7.280532982857356e-17 -1.9428902930940244e-16 1.0
  outer loop
    vertex -59.99999999999998 -2.999999999999995 3.000000000000014
    vertex -30.0 -5.9999999999999964 3.000000000000014
    vertex -30.0 -2.999999999999996 3.000000000000017
  endloop
endfacet
facet normal 1.0 -0.0 -0.0
  outer loop
    vertex 0.0 4.9999999999999964 1.973976537783528e-14
    vertex 0.0 0.0 21.999999999999996
    vertex 0.0 0.0 0.0
  endloop
endfacet
facet normal 1.0 -0.0 -0.0
  outer loop
    vertex 0.0 0.0 21.999999999999996
    vertex 0.0 4.9999999999999964 1.973976537783528e-14
    vertex 0.0 5.000000000000001 21.999999999999993
  endloop
endfacet
facet normal -0.793353340291234 -0.0 -0.6087614290087223
  outer loop
    vertex -10.116116523516816 5.000000000000001 11.883883476483183
    vertex -9.91746824526945 0.0 11.624999999999998
    vertex -10.116116523516816 0.0 11.883883476483183
  endloop
endfacet
facet normal -0.793353340291234 -0.0 -0.6087614290087223
  outer loop
    vertex -9.91746824526945 0.0 11.624999999999998
    vertex -10.116116523516816 5.000000000000001 11.883883476483183
    vertex -9.91746824526945 5.000000000000001 11.624999999999998
  endloop
endfacet
facet normal 1.0 1.7647769382307636e-17 -8.371549188046661e-17
  outer loop
    vertex -30.0 -24.999999999999993 2.8199664825478975e-15
    vertex -30.0 -5.9999999999999964 3.000000000000014
    vertex -30.0 -24.999999999999982 21.999999999999996
  endloop
endfacet
facet normal 1.0 1.7647769382307636e-17 -8.371549188046661e-17
  outer loop
    vertex -30.0 -5.9999999999999964 3.000000000000014
    vertex -30.0 -24.999999999999993 2.8199664825478975e-15
    vertex -30.0 0.0 0.0
  endloop
endfacet
facet normal 1.0 1.7647769382307636e-17 -8.371549188046661e-17
  outer loop
    vertex -30.0 -24.999999999999982 21.999999999999996
    vertex -30.0 -5.9999999999999964 3.000000000000014
    vertex -29.999999999999996 -12.499999999999998 12.499999999999995
  endloop
endfacet
facet normal 1.0 1.7647769382307636e-17 -8.371549188046661e-17
  outer loop
    vertex -30.0 -24.999999999999982 21.999999999999996
    vertex -29.999999999999996 -12.499999999999998 12.499999999999995
    vertex -29.999999999999996 -12.5 18.999999999999996
  endloop
endfacet
facet normal 1.0 1.7647769382307636e-17 -8.371549188046661e-17
  outer loop
    vertex -29.999999999999996 -12.499999999999998 12.499999999999995
    vertex -30.0 -5.9999999999999964 3.000000000000014
    vertex -29.999999999999996 -5.999999999999998 12.499999999999996
  endloop
endfacet
facet normal 1.0 1.7647769382307636e-17 -8.371549188046661e-17
  outer loop
    vertex -30.0 -5.9999999999999964 3.000000000000014
    vertex -30.0 0.0 0.0
    vertex -30.0 -2.999999999999996 3.000000000000017
  endloop
endfacet
facet normal 1.0 1.7647769382307636e-17 -8.371549188046661e-17
  outer loop
    vertex -29.999999999999996 -12.5 18.999999999999996
    vertex -30.0 0.0 21.999999999999996
    vertex -30.0 -24.999999999999982 21.999999999999996
  endloop
endfacet
facet normal 1.0 1.7647769382307636e-17 -8.371549188046661e-17
  outer loop
    vertex -30.0 0.0 21.999999999999996
    vertex -29.999999999999996 -12.5 18.999999999999996
    vertex -29.999999999999996 -2.9999999999999996 19.0
  endloop
endfacet
facet normal 1.0 1.7647769382307636e-17 -8.371549188046661e-17
  outer loop
    vertex -30.0 0.0 21.999999999999996
    vertex -29.999999999999996 -2.9999999999999996 19.0
    vertex -30.0 -2.999999999999996 3.000000000000017
  endloop
endfacet
facet normal 1.0 1.7647769382307636e-17 -8.371549188046661e-17
  outer loop
    vertex -30.0 0.0 21.999999999999996
    vertex -30.0 -2.999999999999996 3.000000000000017
    vertex -30.0 0.0 0.0
  endloop
endfacet
facet normal -1.0 -2.0946858482623082e-16 4.709111747021816e-16
  outer loop
    vertex -59.99999999999998 -15.5 21.999999999999993
    vertex -59.99999999999998 -12.5 18.999999999999982
    vertex -59.99999999999998 -15.499999999999996 9.500000000000007
  endloop
endfacet
facet normal -1.0 -2.0946858482623082e-16 4.709111747021816e-16
  outer loop
    vertex -59.99999999999998 -12.5 18.999999999999982
    vertex -59.99999999999998 -15.5 21.999999999999993
    vertex -59.99999999999998 1.4125251694622081e-31 21.999999999999996
  endloop
endfacet
facet normal -1.0 -2.0946858482623082e-16 4.709111747021816e-16
  outer loop
    vertex -59.99999999999998 -12.5 18.999999999999982
    vertex -59.99999999999998 1.4125251694622081e-31 21.999999999999996
    vertex -59.99999999999998 -2.9999999999999982 18.999999999999986
  endloop
endfacet
facet normal -1.0 -2.0946858482623082e-16 4.709111747021816e-16
  outer loop
    vertex -59.99999999999998 -2.9999999999999982 18.999999999999986
    vertex -59.99999999999998 1.4125251694622081e-31 21.999999999999996
    vertex -59.99999999999998 -2.999999999999995 3.000000000000014
  endloop
endfacet
facet normal -1.0 -2.0946858482623082e-16 4.709111747021816e-16
  outer loop
    vertex -59.99999999999998 -15.499999999999996 9.500000000000007
    vertex -59.99999999999999 -12.499999999999998 12.500000000000007
    vertex -59.99999999999999 -8.999999999999996 1.973976537783528e-14
  endloop
endfacet
facet normal -1.0 -2.0946858482623082e-16 4.709111747021816e-16
  outer loop
    vertex -59.99999999999999 -12.499999999999998 12.500000000000007
    vertex -59.99999999999998 -15.499999999999996 9.500000000000007
    vertex -59.99999999999998 -12.5 18.999999999999982
  endloop
endfacet
facet normal -1.0 -2.0946858482623082e-16 4.709111747021816e-16
  outer loop
    vertex -59.99999999999999 -8.999999999999996 1.973976537783528e-14
    vertex -59.99999999999999 -12.499999999999998 12.500000000000007
    vertex -59.99999999999999 -5.999999999999998 12.500000000000009
  endloop
endfacet
facet normal -1.0 -2.0946858482623082e-16 4.709111747021816e-16
  outer loop
    vertex -59.99999999999999 -8.999999999999996 1.973976537783528e-14
    vertex -59.99999999999999 -5.999999999999998 12.500000000000009
    vertex -59.99999999999998 -5.9999999999999964 3.000000000000014
  endloop
endfacet
facet normal -1.0 -2.0946858482623082e-16 4.709111747021816e-16
  outer loop
    vertex -59.99999999999999 -8.999999999999996 1.973976537783528e-14
    vertex -59.99999999999998 -5.9999999999999964 3.000000000000014
    vertex -59.99999999999999 3.92186283448836e-15 2.255973186038318e-14
  endloop
endfacet
facet normal -1.0 -2.0946858482623082e-16 4.709111747021816e-16
  outer loop
    vertex -59.99999999999999 3.92186283448836e-15 2.255973186038318e-14
    vertex -59.99999999999998 -5.9999999999999964 3.000000000000014
    vertex -59.99999999999998 -2.999999999999995 3.000000000000014
  endloop
endfacet
facet normal -1.0 -2.0946858482623082e-16 4.709111747021816e-16
  outer loop
    vertex -59.99999999999999 3.92186283448836e-15 2.255973186038318e-14
    vertex -59.99999999999998 -2.999999999999995 3.000000000000014
    vertex -59.99999999999998 1.4125251694622081e-31 21.999999999999996
  endloop
endfacet
facet normal -6.350035966537461e-17 -1.0 -6.972501869026474e-17
  outer loop
    vertex -39.99999999999999 -15.5 21.999999999999993
    vertex -59.99999999999998 -15.499999999999996 9.500000000000007
    vertex -39.99999999999999 -15.5 9.499999999999984
  endloop
endfacet
facet normal -6.350035966537461e-17 -1.0 -6.972501869026474e-17
  outer loop
    vertex -59.99999999999998 -15.499999999999996 9.500000000000007
    vertex -39.99999999999999 -15.5 21.999999999999993
    vertex -59.99999999999998 -15.5 21.999999999999993
  endloop
endfacet
facet normal 2.3716006482917605e-17 1.0 2.7958525746275856e-16
  outer loop
    vertex -59.99999999999999 3.92186283448836e-15 2.255973186038318e-14
    vertex -39.99999999999999 -5.359720603844893e-15 22.000000000000018
    vertex -39.99999999999999 4.537018908716086e-15 1.799742894397533e-14
  endloop
endfacet
facet normal 2.3716006482917605e-17 1.0 2.7958525746275856e-16
  outer loop
    vertex -39.99999999999999 -5.359720603844893e-15 22.000000000000018
    vertex -59.99999999999999 3.92186283448836e-15 2.255973186038318e-14
    vertex -59.99999999999998 1.4125251694622081e-31 21.999999999999996
  endloop
endfacet
facet normal -0.3826834323650902 -0.0 -0.9238795325112866
  outer loop
    vertex -10.375 5.000000000000001 12.082531754730548
    vertex -10.676476193621848 0.0 12.207407282861334
    vertex -10.676476193621848 5.000000000000001 12.207407282861334
  endloop
endfacet
facet normal -0.3826834323650902 -0.0 -0.9238795325112866
  outer loop
    vertex -10.676476193621848 0.0 12.207407282861334
    vertex -10.375 5.000000000000001 12.082531754730548
    vertex -10.375 0.0 12.082531754730548
  endloop
endfacet
facet normal -0.13052619222005188 -0.0 -0.9914448613738104
  outer loop
    vertex -10.676476193621848 5.000000000000001 12.207407282861334
    vertex -11.0 0.0 12.249999999999998
    vertex -11.0 5.000000000000001 12.249999999999998
  endloop
endfacet
facet normal -0.13052619222005188 -0.0 -0.9914448613738104
  outer loop
    vertex -11.0 0.0 12.249999999999998
    vertex -10.676476193621848 5.000000000000001 12.207407282861334
    vertex -10.676476193621848 0.0 12.207407282861334
  endloop
endfacet
facet normal 0.13052619222005132 -0.0 -0.9914448613738106
  outer loop
    vertex -11.0 5.000000000000001 12.249999999999998
    vertex -11.323523806378152 0.0 12.207407282861334
    vertex -11.323523806378152 5.000000000000001 12.207407282861334
  endloop
endfacet
facet normal 0.13052619222005132 -0.0 -0.9914448613738106
  outer loop
    vertex -11.323523806378152 0.0 12.207407282861334
    vertex -11.0 5.000000000000001 12.249999999999998
    vertex -11.0 0.0 12.249999999999998
  endloop
endfacet
facet normal 0.3826834323650902 -0.0 -0.9238795325112866
  outer loop
    vertex -11.323523806378152 5.000000000000001 12.207407282861334
    vertex -11.625 0.0 12.082531754730548
    vertex -11.625 5.000000000000001 12.082531754730548
  endloop
endfacet
facet normal 0.3826834323650902 -0.0 -0.9238795325112866
  outer loop
    vertex -11.625 0.0 12.082531754730548
    vertex -11.323523806378152 5.000000000000001 12.207407282861334
    vertex -11.323523806378152 0.0 12.207407282861334
  endloop
endfacet
facet normal 1.6919798895287376e-15 5.639932965095795e-16 -1.0
  outer loop
    vertex -34.99999999999999 -20.5 9.49999999999999
    vertex -39.99999999999999 -15.5 9.499999999999984
    vertex -34.99999999999999 -15.5 9.499999999999993
  endloop
endfacet
facet normal -0.7071067811865474 0.7071067811865477 8.502383173022691e-17
  outer loop
    vertex -39.99999999999999 -5.359720603844893e-15 22.000000000000018
    vertex -34.99999999999999 4.9999999999999964 1.973976537783528e-14
    vertex -39.99999999999999 4.537018908716086e-15 1.799742894397533e-14
  endloop
endfacet
facet normal -0.7071067811865474 0.7071067811865477 8.502383173022691e-17
  outer loop
    vertex -34.99999999999999 4.9999999999999964 1.973976537783528e-14
    vertex -39.99999999999999 -5.359720603844893e-15 22.000000000000018
    vertex -34.99999999999999 5.000000000000001 21.999999999999993
  endloop
endfacet
facet normal 0.6087614290087223 -0.0 -0.793353340291234
  outer loop
    vertex -11.625 5.000000000000001 12.082531754730548
    vertex -11.883883476483184 0.0 11.883883476483183
    vertex -11.883883476483184 5.000000000000001 11.883883476483183
  endloop
endfacet
facet normal 0.6087614290087223 -0.0 -0.793353340291234
  outer loop
    vertex -11.883883476483184 0.0 11.883883476483183
    vertex -11.625 5.000000000000001 12.082531754730548
    vertex -11.625 0.0 12.082531754730548
  endloop
endfacet
facet normal 0.7933533402912344 -0.0 -0.6087614290087217
  outer loop
    vertex -12.082531754730548 5.000000000000001 11.624999999999998
    vertex -11.883883476483184 0.0 11.883883476483183
    vertex -12.082531754730548 0.0 11.624999999999998
  endloop
endfacet
facet normal 0.7933533402912344 -0.0 -0.6087614290087217
  outer loop
    vertex -11.883883476483184 0.0 11.883883476483183
    vertex -12.082531754730548 5.000000000000001 11.624999999999998
    vertex -11.883883476483184 5.000000000000001 11.883883476483183
  endloop
endfacet
facet normal -0.6365239496641667 -0.6365239496641676 -0.4355163866123269
  outer loop
    vertex -34.99999999999999 -13.999999999999996 2.7376055567084052e-14
    vertex -39.99999999999999 -15.5 9.499999999999984
    vertex -39.99999999999999 -8.999999999999995 1.6722401241509028e-14
  endloop
endfacet
facet normal -0.6365239496641667 -0.6365239496641676 -0.4355163866123269
  outer loop
    vertex -39.99999999999999 -15.5 9.499999999999984
    vertex -34.99999999999999 -13.999999999999996 2.7376055567084052e-14
    vertex -34.99999999999999 -20.5 9.49999999999999
  endloop
endfacet
facet normal -1.0 0.0 0.0
  outer loop
    vertex -34.99999999999999 -20.5 22.0
    vertex -34.99999999999999 -29.99999999999995 5.0759396685862156e-14
    vertex -34.99999999999999 -30.000000000000018 22.000000000000004
  endloop
endfacet
facet normal -1.0 0.0 0.0
  outer loop
    vertex -34.99999999999999 -29.99999999999995 5.0759396685862156e-14
    vertex -34.99999999999999 -20.5 22.0
    vertex -34.99999999999999 -20.5 9.49999999999999
  endloop
endfacet
facet normal -1.0 0.0 0.0
  outer loop
    vertex -34.99999999999999 -29.99999999999995 5.0759396685862156e-14
    vertex -34.99999999999999 -20.5 9.49999999999999
    vertex -34.99999999999999 -13.999999999999996 2.7376055567084052e-14
  endloop
endfacet
facet normal -3.8891056505927273e-16 -0.825307261249831 -0.5646839155919913
  outer loop
    vertex -39.99999999999999 -15.5 9.499999999999984
    vertex -59.99999999999999 -8.999999999999996 1.973976537783528e-14
    vertex -39.99999999999999 -8.999999999999995 1.6722401241509028e-14
  endloop
endfacet
facet normal -3.8891056505927273e-16 -0.825307261249831 -0.5646839155919913
  outer loop
    vertex -59.99999999999999 -8.999999999999996 1.973976537783528e-14
    vertex -39.99999999999999 -15.5 9.499999999999984
    vertex -59.99999999999998 -15.499999999999996 9.500000000000007
  endloop
endfacet
facet normal -0.7071067811865474 -0.7071067811865477 -1.0129608506444542e-17
  outer loop
    vertex -34.99999999999999 -20.5 9.49999999999999
    vertex -39.99999999999999 -15.5 21.999999999999993
    vertex -39.99999999999999 -15.5 9.499999999999984
  endloop
endfacet
facet normal -0.7071067811865474 -0.7071067811865477 -1.0129608506444542e-17
  outer loop
    vertex -39.99999999999999 -15.5 21.999999999999993
    vertex -34.99999999999999 -20.5 9.49999999999999
    vertex -34.99999999999999 -20.5 22.0
  endloop
endfacet
facet normal -0.6087614290087197 2.782459120205214e-15 -0.7933533402912362
  outer loop
    vertex -10.116116523516814 -24.99999999999996 11.883883476483197
    vertex -10.375 -29.99999999999999 12.082531754730553
    vertex -10.375 -24.999999999999964 12.082531754730562
  endloop
endfacet
facet normal -0.6087614290087197 2.782459120205214e-15 -0.7933533402912362
  outer loop
    vertex -10.375 -29.99999999999999 12.082531754730553
    vertex -10.116116523516814 -24.99999999999996 11.883883476483197
    vertex -10.116116523516814 -29.999999999999986 11.88388347648319
  endloop
endfacet
facet normal -0.3826834323650902 3.2402422737178915e-15 -0.9238795325112866
  outer loop
    vertex -10.375 -24.999999999999964 12.082531754730562
    vertex -10.676476193621848 -29.99999999999999 12.20740728286134
    vertex -10.676476193621848 -24.999999999999964 12.207407282861348
  endloop
endfacet
facet normal -0.3826834323650902 3.2402422737178915e-15 -0.9238795325112866
  outer loop
    vertex -10.676476193621848 -29.99999999999999 12.20740728286134
    vertex -10.375 -24.999999999999964 12.082531754730562
    vertex -10.375 -29.99999999999999 12.082531754730553
  endloop
endfacet
facet normal 0.9914448613738104 -4.577831535126807e-16 0.13052619222005188
  outer loop
    vertex -12.207407282861332 -24.99999999999996 10.676476193621863
    vertex -12.249999999999996 -29.999999999999986 11.000000000000005
    vertex -12.207407282861332 -29.999999999999986 10.676476193621854
  endloop
endfacet
facet normal 0.9914448613738104 -4.577831535126807e-16 0.13052619222005188
  outer loop
    vertex -12.249999999999996 -29.999999999999986 11.000000000000005
    vertex -12.207407282861332 -24.99999999999996 10.676476193621863
    vertex -12.249999999999996 -24.99999999999996 11.000000000000014
  endloop
endfacet
facet normal 0.9238795325112866 1.3421522951485888e-15 -0.3826834323650902
  outer loop
    vertex -12.207407282861332 -24.99999999999996 11.323523806378164
    vertex -12.082531754730546 -29.999999999999986 11.625000000000004
    vertex -12.207407282861332 -29.999999999999986 11.323523806378155
  endloop
endfacet
facet normal 0.9238795325112866 1.3421522951485888e-15 -0.3826834323650902
  outer loop
    vertex -12.082531754730546 -29.999999999999986 11.625000000000004
    vertex -12.207407282861332 -24.99999999999996 11.323523806378164
    vertex -12.082531754730546 -24.99999999999996 11.625000000000012
  endloop
endfacet
facet normal -0.9238795325112866 -1.3421522951485888e-15 0.3826834323650902
  outer loop
    vertex -9.792592717138664 -24.99999999999996 10.676476193621863
    vertex -9.91746824526945 -29.999999999999986 10.375000000000007
    vertex -9.792592717138664 -29.999999999999986 10.676476193621854
  endloop
endfacet
facet normal -0.9238795325112866 -1.3421522951485888e-15 0.3826834323650902
  outer loop
    vertex -9.91746824526945 -29.999999999999986 10.375000000000007
    vertex -9.792592717138664 -24.99999999999996 10.676476193621863
    vertex -9.91746824526945 -24.99999999999996 10.375000000000014
  endloop
endfacet
facet normal 0.13052619222005188 -3.4772082710302384e-15 0.9914448613738104
  outer loop
    vertex -10.999999999999998 -29.99999999999998 9.750000000000005
    vertex -11.323523806378148 -24.999999999999954 9.79259271713868
    vertex -11.323523806378148 -29.99999999999998 9.792592717138671
  endloop
endfacet
facet normal 0.13052619222005188 -3.4772082710302384e-15 0.9914448613738104
  outer loop
    vertex -11.323523806378148 -24.999999999999954 9.79259271713868
    vertex -10.999999999999998 -29.99999999999998 9.750000000000005
    vertex -10.999999999999998 -24.999999999999954 9.750000000000014
  endloop
endfacet
facet normal -0.7933533402912362 -2.1350559758816506e-15 0.6087614290087197
  outer loop
    vertex -9.91746824526945 -24.99999999999996 10.375000000000014
    vertex -10.116116523516814 -29.999999999999986 10.116116523516821
    vertex -9.91746824526945 -29.999999999999986 10.375000000000007
  endloop
endfacet
facet normal -0.7933533402912362 -2.1350559758816506e-15 0.6087614290087197
  outer loop
    vertex -10.116116523516814 -29.999999999999986 10.116116523516821
    vertex -9.91746824526945 -24.99999999999996 10.375000000000014
    vertex -10.116116523516814 -24.99999999999996 10.11611652351683
  endloop
endfacet
facet normal 0.9238795325112873 -1.3421522951485805e-15 0.3826834323650887
  outer loop
    vertex -12.082531754730546 -24.99999999999996 10.375000000000014
    vertex -12.207407282861332 -29.999999999999986 10.676476193621854
    vertex -12.082531754730546 -29.999999999999986 10.375000000000005
  endloop
endfacet
facet normal 0.9238795325112873 -1.3421522951485805e-15 0.3826834323650887
  outer loop
    vertex -12.207407282861332 -29.999999999999986 10.676476193621854
    vertex -12.082531754730546 -24.99999999999996 10.375000000000014
    vertex -12.207407282861332 -24.99999999999996 10.676476193621863
  endloop
endfacet
facet normal -0.9914448613738106 4.577831535126787e-16 -0.13052619222005132
  outer loop
    vertex -9.792592717138664 -24.99999999999996 11.323523806378166
    vertex -9.749999999999998 -29.999999999999986 11.000000000000005
    vertex -9.792592717138664 -29.999999999999986 11.323523806378157
  endloop
endfacet
facet normal -0.9914448613738106 4.577831535126787e-16 -0.13052619222005132
  outer loop
    vertex -9.749999999999998 -29.999999999999986 11.000000000000005
    vertex -9.792592717138664 -24.99999999999996 11.323523806378166
    vertex -9.749999999999998 -24.99999999999996 11.000000000000014
  endloop
endfacet
facet normal 0.13052619222005132 3.4772082710302392e-15 -0.9914448613738106
  outer loop
    vertex -10.999999999999998 -24.999999999999964 12.250000000000012
    vertex -11.32352380637815 -29.99999999999999 12.20740728286134
    vertex -11.32352380637815 -24.999999999999964 12.207407282861348
  endloop
endfacet
facet normal 0.13052619222005132 3.4772082710302392e-15 -0.9914448613738106
  outer loop
    vertex -11.32352380637815 -29.99999999999999 12.20740728286134
    vertex -10.999999999999998 -24.999999999999964 12.250000000000012
    vertex -10.999999999999998 -29.99999999999999 12.250000000000004
  endloop
endfacet
facet normal 0.6087614290087217 2.7824591202052096e-15 -0.7933533402912344
  outer loop
    vertex -11.624999999999998 -24.999999999999964 12.082531754730562
    vertex -11.883883476483183 -29.999999999999986 11.88388347648319
    vertex -11.883883476483183 -24.99999999999996 11.883883476483197
  endloop
endfacet
facet normal 0.6087614290087217 2.7824591202052096e-15 -0.7933533402912344
  outer loop
    vertex -11.883883476483183 -29.999999999999986 11.88388347648319
    vertex -11.624999999999998 -24.999999999999964 12.082531754730562
    vertex -11.624999999999998 -29.99999999999999 12.082531754730553
  endloop
endfacet
facet normal -0.3826834323650887 -3.2402422737178947e-15 0.9238795325112873
  outer loop
    vertex -10.374999999999998 -29.99999999999998 9.917468245269458
    vertex -10.676476193621848 -24.999999999999954 9.79259271713868
    vertex -10.676476193621848 -29.99999999999998 9.792592717138671
  endloop
endfacet
facet normal -0.3826834323650887 -3.2402422737178947e-15 0.9238795325112873
  outer loop
    vertex -10.676476193621848 -24.999999999999954 9.79259271713868
    vertex -10.374999999999998 -29.99999999999998 9.917468245269458
    vertex -10.374999999999998 -24.999999999999954 9.917468245269466
  endloop
endfacet
facet normal 0.7933533402912344 -2.135055975881655e-15 0.6087614290087217
  outer loop
    vertex -11.883883476483183 -24.99999999999996 10.11611652351683
    vertex -12.082531754730546 -29.999999999999986 10.375000000000005
    vertex -11.883883476483183 -29.999999999999986 10.116116523516821
  endloop
endfacet
facet normal 0.7933533402912344 -2.135055975881655e-15 0.6087614290087217
  outer loop
    vertex -12.082531754730546 -29.999999999999986 10.375000000000005
    vertex -11.883883476483183 -24.99999999999996 10.11611652351683
    vertex -12.082531754730546 -24.99999999999996 10.375000000000014
  endloop
endfacet
facet normal 0.6087614290087197 -2.782459120205214e-15 0.7933533402912362
  outer loop
    vertex -11.624999999999996 -29.99999999999998 9.917468245269458
    vertex -11.883883476483183 -24.99999999999996 10.11611652351683
    vertex -11.883883476483183 -29.999999999999986 10.116116523516821
  endloop
endfacet
facet normal 0.6087614290087197 -2.782459120205214e-15 0.7933533402912362
  outer loop
    vertex -11.883883476483183 -24.99999999999996 10.11611652351683
    vertex -11.624999999999996 -29.99999999999998 9.917468245269458
    vertex -11.624999999999996 -24.999999999999954 9.917468245269466
  endloop
endfacet
facet normal -0.13052619222005188 -3.4772082710302384e-15 0.9914448613738104
  outer loop
    vertex -10.676476193621848 -29.99999999999998 9.792592717138671
    vertex -10.999999999999998 -24.999999999999954 9.750000000000014
    vertex -10.999999999999998 -29.99999999999998 9.750000000000005
  endloop
endfacet
facet normal -0.13052619222005188 -3.4772082710302384e-15 0.9914448613738104
  outer loop
    vertex -10.999999999999998 -24.999999999999954 9.750000000000014
    vertex -10.676476193621848 -29.99999999999998 9.792592717138671
    vertex -10.676476193621848 -24.999999999999954 9.79259271713868
  endloop
endfacet
facet normal 0.9914448613738104 4.577831535126841e-16 -0.13052619222005188
  outer loop
    vertex -12.249999999999996 -24.99999999999996 11.000000000000014
    vertex -12.207407282861332 -29.999999999999986 11.323523806378155
    vertex -12.249999999999996 -29.999999999999986 11.000000000000005
  endloop
endfacet
facet normal 0.9914448613738104 4.577831535126841e-16 -0.13052619222005188
  outer loop
    vertex -12.207407282861332 -29.999999999999986 11.323523806378155
    vertex -12.249999999999996 -24.99999999999996 11.000000000000014
    vertex -12.207407282861332 -24.99999999999996 11.323523806378164
  endloop
endfacet
facet normal 0.3826834323650902 -3.2402422737178915e-15 0.9238795325112866
  outer loop
    vertex -11.323523806378148 -29.99999999999998 9.792592717138671
    vertex -11.624999999999996 -24.999999999999954 9.917468245269466
    vertex -11.624999999999996 -29.99999999999998 9.917468245269458
  endloop
endfacet
facet normal 0.3826834323650902 -3.2402422737178915e-15 0.9238795325112866
  outer loop
    vertex -11.624999999999996 -24.999999999999954 9.917468245269466
    vertex -11.323523806378148 -29.99999999999998 9.792592717138671
    vertex -11.323523806378148 -24.999999999999954 9.79259271713868
  endloop
endfacet
facet normal -0.9914448613738104 -4.577831535126841e-16 0.13052619222005188
  outer loop
    vertex -9.749999999999998 -24.99999999999996 11.000000000000014
    vertex -9.792592717138664 -29.999999999999986 10.676476193621854
    vertex -9.749999999999998 -29.999999999999986 11.000000000000005
  endloop
endfacet
facet normal -0.9914448613738104 -4.577831535126841e-16 0.13052619222005188
  outer loop
    vertex -9.792592717138664 -29.999999999999986 10.676476193621854
    vertex -9.749999999999998 -24.99999999999996 11.000000000000014
    vertex -9.792592717138664 -24.99999999999996 10.676476193621863
  endloop
endfacet
facet normal -0.13052619222005188 3.4772082710302384e-15 -0.9914448613738104
  outer loop
    vertex -10.676476193621848 -24.999999999999964 12.207407282861348
    vertex -10.999999999999998 -29.99999999999999 12.250000000000004
    vertex -10.999999999999998 -24.999999999999964 12.250000000000012
  endloop
endfacet
facet normal -0.13052619222005188 3.4772082710302384e-15 -0.9914448613738104
  outer loop
    vertex -10.999999999999998 -29.99999999999999 12.250000000000004
    vertex -10.676476193621848 -24.999999999999964 12.207407282861348
    vertex -10.676476193621848 -29.99999999999999 12.20740728286134
  endloop
endfacet
facet normal 0.3826834323650902 3.2402422737178923e-15 -0.9238795325112866
  outer loop
    vertex -11.32352380637815 -24.999999999999964 12.207407282861348
    vertex -11.624999999999998 -29.99999999999999 12.082531754730553
    vertex -11.624999999999998 -24.999999999999964 12.082531754730562
  endloop
endfacet
facet normal 0.3826834323650902 3.2402422737178923e-15 -0.9238795325112866
  outer loop
    vertex -11.624999999999998 -29.99999999999999 12.082531754730553
    vertex -11.32352380637815 -24.999999999999964 12.207407282861348
    vertex -11.32352380637815 -29.99999999999999 12.20740728286134
  endloop
endfacet
facet normal 0.7933533402912362 2.1350559758816506e-15 -0.6087614290087197
  outer loop
    vertex -12.082531754730546 -24.99999999999996 11.625000000000012
    vertex -11.883883476483183 -29.999999999999986 11.88388347648319
    vertex -12.082531754730546 -29.999999999999986 11.625000000000004
  endloop
endfacet
facet normal 0.7933533402912362 2.1350559758816506e-15 -0.6087614290087197
  outer loop
    vertex -11.883883476483183 -29.999999999999986 11.88388347648319
    vertex -12.082531754730546 -24.99999999999996 11.625000000000012
    vertex -11.883883476483183 -24.99999999999996 11.883883476483197
  endloop
endfacet
facet normal -0.6087614290087217 -2.7824591202052096e-15 0.7933533402912344
  outer loop
    vertex -10.116116523516814 -29.999999999999986 10.116116523516821
    vertex -10.374999999999998 -24.999999999999954 9.917468245269466
    vertex -10.374999999999998 -29.99999999999998 9.917468245269458
  endloop
endfacet
facet normal -0.6087614290087217 -2.7824591202052096e-15 0.7933533402912344
  outer loop
    vertex -10.374999999999998 -24.999999999999954 9.917468245269466
    vertex -10.116116523516814 -29.999999999999986 10.116116523516821
    vertex -10.116116523516814 -24.99999999999996 10.11611652351683
  endloop
endfacet
facet normal -0.9238795325112866 1.3421522951485858e-15 -0.3826834323650902
  outer loop
    vertex -9.91746824526945 -24.99999999999996 11.625000000000014
    vertex -9.792592717138664 -29.999999999999986 11.323523806378157
    vertex -9.91746824526945 -29.999999999999986 11.625000000000005
  endloop
endfacet
facet normal -0.9238795325112866 1.3421522951485858e-15 -0.3826834323650902
  outer loop
    vertex -9.792592717138664 -29.999999999999986 11.323523806378157
    vertex -9.91746824526945 -24.99999999999996 11.625000000000014
    vertex -9.792592717138664 -24.99999999999996 11.323523806378166
  endloop
endfacet
facet normal -0.7933533402912344 2.135055975881655e-15 -0.6087614290087217
  outer loop
    vertex -10.116116523516814 -24.99999999999996 11.883883476483197
    vertex -9.91746824526945 -29.999999999999986 11.625000000000005
    vertex -10.116116523516814 -29.999999999999986 11.88388347648319
  endloop
endfacet
facet normal -0.7933533402912344 2.135055975881655e-15 -0.6087614290087217
  outer loop
    vertex -9.91746824526945 -29.999999999999986 11.625000000000005
    vertex -10.116116523516814 -24.99999999999996 11.883883476483197
    vertex -9.91746824526945 -24.99999999999996 11.625000000000014
  endloop
endfacet
facet normal 0.3826834323650887 0.0 0.9238795325112873
  outer loop
    vertex -11.32352380637815 0.0 9.792592717138662
    vertex -11.625 5.000000000000001 9.917468245269449
    vertex -11.625 0.0 9.917468245269449
  endloop
endfacet
facet normal 0.3826834323650887 0.0 0.9238795325112873
  outer loop
    vertex -11.625 5.000000000000001 9.917468245269449
    vertex -11.32352380637815 0.0 9.792592717138662
    vertex -11.32352380637815 5.000000000000001 9.792592717138662
  endloop
endfacet
facet normal 0.13052619222005188 0.0 0.9914448613738104
  outer loop
    vertex -11.0 0.0 9.749999999999998
    vertex -11.32352380637815 5.000000000000001 9.792592717138662
    vertex -11.32352380637815 0.0 9.792592717138662
  endloop
endfacet
facet normal 0.13052619222005188 0.0 0.9914448613738104
  outer loop
    vertex -11.32352380637815 5.000000000000001 9.792592717138662
    vertex -11.0 0.0 9.749999999999998
    vertex -11.0 5.000000000000001 9.749999999999998
  endloop
endfacet
facet normal 0.9238795325112873 -0.0 -0.3826834323650887
  outer loop
    vertex -12.207407282861336 5.000000000000001 11.323523806378148
    vertex -12.082531754730548 0.0 11.624999999999998
    vertex -12.207407282861336 0.0 11.323523806378148
  endloop
endfacet
facet normal 0.9238795325112873 -0.0 -0.3826834323650887
  outer loop
    vertex -12.082531754730548 0.0 11.624999999999998
    vertex -12.207407282861336 5.000000000000001 11.323523806378148
    vertex -12.082531754730548 5.000000000000001 11.624999999999998
  endloop
endfacet
facet normal 0.9914448613738104 -0.0 -0.13052619222005188
  outer loop
    vertex -12.25 5.000000000000001 10.999999999999998
    vertex -12.207407282861336 0.0 11.323523806378148
    vertex -12.25 0.0 10.999999999999998
  endloop
endfacet
facet normal 0.9914448613738104 -0.0 -0.13052619222005188
  outer loop
    vertex -12.207407282861336 0.0 11.323523806378148
    vertex -12.25 5.000000000000001 10.999999999999998
    vertex -12.207407282861336 5.000000000000001 11.323523806378148
  endloop
endfacet
facet normal 0.9914448613738106 0.0 0.13052619222005132
  outer loop
    vertex -12.207407282861336 5.000000000000001 10.676476193621847
    vertex -12.25 0.0 10.999999999999998
    vertex -12.207407282861336 0.0 10.676476193621847
  endloop
endfacet
facet normal 0.9914448613738106 0.0 0.13052619222005132
  outer loop
    vertex -12.25 0.0 10.999999999999998
    vertex -12.207407282861336 5.000000000000001 10.676476193621847
    vertex -12.25 5.000000000000001 10.999999999999998
  endloop
endfacet
facet normal 0.9238795325112866 0.0 0.3826834323650902
  outer loop
    vertex -12.082531754730548 5.000000000000001 10.374999999999998
    vertex -12.207407282861336 0.0 10.676476193621847
    vertex -12.082531754730548 0.0 10.374999999999998
  endloop
endfacet
facet normal 0.9238795325112866 0.0 0.3826834323650902
  outer loop
    vertex -12.207407282861336 0.0 10.676476193621847
    vertex -12.082531754730548 5.000000000000001 10.374999999999998
    vertex -12.207407282861336 5.000000000000001 10.676476193621847
  endloop
endfacet
facet normal 0.7933533402912362 0.0 0.6087614290087197
  outer loop
    vertex -11.883883476483184 5.000000000000001 10.116116523516814
    vertex -12.082531754730548 0.0 10.374999999999998
    vertex -11.883883476483184 0.0 10.116116523516814
  endloop
endfacet
facet normal 0.7933533402912362 0.0 0.6087614290087197
  outer loop
    vertex -12.082531754730548 0.0 10.374999999999998
    vertex -11.883883476483184 5.000000000000001 10.116116523516814
    vertex -12.082531754730548 5.000000000000001 10.374999999999998
  endloop
endfacet
facet normal 0.6087614290087197 0.0 0.7933533402912362
  outer loop
    vertex -11.625 0.0 9.917468245269449
    vertex -11.883883476483184 5.000000000000001 10.116116523516814
    vertex -11.883883476483184 0.0 10.116116523516814
  endloop
endfacet
facet normal 0.6087614290087197 0.0 0.7933533402912362
  outer loop
    vertex -11.883883476483184 5.000000000000001 10.116116523516814
    vertex -11.625 0.0 9.917468245269449
    vertex -11.625 5.000000000000001 9.917468245269449
  endloop
endfacet
facet normal -0.3826834323650887 -0.0 0.9238795325112873
  outer loop
    vertex -10.375 0.0 9.917468245269449
    vertex -10.676476193621848 5.000000000000001 9.792592717138662
    vertex -10.676476193621848 0.0 9.792592717138662
  endloop
endfacet
facet normal -0.3826834323650887 -0.0 0.9238795325112873
  outer loop
    vertex -10.676476193621848 5.000000000000001 9.792592717138662
    vertex -10.375 0.0 9.917468245269449
    vertex -10.375 5.000000000000001 9.917468245269449
  endloop
endfacet
endsolid soporte lampara palo
